G75*
G70*
%OFA0B0*%
%FSLAX24Y24*%
%IPPOS*%
%LPD*%
%AMOC8*
5,1,8,0,0,1.08239X$1,22.5*
%
%ADD10C,0.0000*%
%ADD11C,0.0040*%
%ADD12C,0.0060*%
%ADD13C,0.0050*%
%ADD14C,0.0120*%
%ADD15R,0.0240X0.0340*%
%ADD16R,0.0230X0.0160*%
%ADD17C,0.0160*%
%ADD18C,0.0100*%
%ADD19C,0.0020*%
%ADD20R,0.0300X0.0250*%
%ADD21R,0.0500X0.1100*%
%ADD22R,0.1000X0.0200*%
%ADD23R,0.0300X0.0750*%
D10*
X000222Y000222D02*
X000222Y033686D01*
X039592Y033686D01*
X039592Y000222D01*
X000222Y000222D01*
X030572Y001822D02*
X030574Y001872D01*
X030580Y001922D01*
X030590Y001972D01*
X030603Y002020D01*
X030620Y002068D01*
X030641Y002114D01*
X030665Y002158D01*
X030693Y002200D01*
X030724Y002240D01*
X030758Y002277D01*
X030795Y002312D01*
X030834Y002343D01*
X030875Y002372D01*
X030919Y002397D01*
X030965Y002419D01*
X031012Y002437D01*
X031060Y002451D01*
X031109Y002462D01*
X031159Y002469D01*
X031209Y002472D01*
X031260Y002471D01*
X031310Y002466D01*
X031360Y002457D01*
X031408Y002445D01*
X031456Y002428D01*
X031502Y002408D01*
X031547Y002385D01*
X031590Y002358D01*
X031630Y002328D01*
X031668Y002295D01*
X031703Y002259D01*
X031736Y002220D01*
X031765Y002179D01*
X031791Y002136D01*
X031814Y002091D01*
X031833Y002044D01*
X031848Y001996D01*
X031860Y001947D01*
X031868Y001897D01*
X031872Y001847D01*
X031872Y001797D01*
X031868Y001747D01*
X031860Y001697D01*
X031848Y001648D01*
X031833Y001600D01*
X031814Y001553D01*
X031791Y001508D01*
X031765Y001465D01*
X031736Y001424D01*
X031703Y001385D01*
X031668Y001349D01*
X031630Y001316D01*
X031590Y001286D01*
X031547Y001259D01*
X031502Y001236D01*
X031456Y001216D01*
X031408Y001199D01*
X031360Y001187D01*
X031310Y001178D01*
X031260Y001173D01*
X031209Y001172D01*
X031159Y001175D01*
X031109Y001182D01*
X031060Y001193D01*
X031012Y001207D01*
X030965Y001225D01*
X030919Y001247D01*
X030875Y001272D01*
X030834Y001301D01*
X030795Y001332D01*
X030758Y001367D01*
X030724Y001404D01*
X030693Y001444D01*
X030665Y001486D01*
X030641Y001530D01*
X030620Y001576D01*
X030603Y001624D01*
X030590Y001672D01*
X030580Y001722D01*
X030574Y001772D01*
X030572Y001822D01*
D11*
X009183Y011719D02*
X009183Y011873D01*
X009106Y011949D01*
X008799Y011949D01*
X008722Y011873D01*
X008722Y011719D01*
X008799Y011643D01*
X009106Y011643D01*
X009183Y011719D01*
X009106Y012103D02*
X008799Y012103D01*
X008722Y012180D01*
X008722Y012333D01*
X008799Y012410D01*
X009106Y012410D02*
X009183Y012333D01*
X009183Y012180D01*
X009106Y012103D01*
X009183Y013024D02*
X009183Y013330D01*
X009183Y013177D02*
X008722Y013177D01*
X008876Y013024D01*
X008952Y013484D02*
X008952Y013791D01*
X008952Y013944D02*
X008722Y014174D01*
X009183Y014174D01*
X008952Y014251D02*
X008952Y013944D01*
D12*
X009472Y013872D02*
X009472Y013122D01*
X009511Y013120D01*
X009550Y013114D01*
X009588Y013105D01*
X009625Y013092D01*
X009661Y013075D01*
X009694Y013055D01*
X009726Y013031D01*
X009755Y013005D01*
X009781Y012976D01*
X009805Y012944D01*
X009825Y012911D01*
X009842Y012875D01*
X009855Y012838D01*
X009864Y012800D01*
X009870Y012761D01*
X009872Y012722D01*
X009870Y012683D01*
X009864Y012644D01*
X009855Y012606D01*
X009842Y012569D01*
X009825Y012533D01*
X009805Y012500D01*
X009781Y012468D01*
X009755Y012439D01*
X009726Y012413D01*
X009694Y012389D01*
X009661Y012369D01*
X009625Y012352D01*
X009588Y012339D01*
X009550Y012330D01*
X009511Y012324D01*
X009472Y012322D01*
X009472Y011572D01*
X011472Y011572D01*
X011472Y013872D01*
X009472Y013872D01*
X011472Y013872D02*
X011472Y013122D01*
X011511Y013120D01*
X011550Y013114D01*
X011588Y013105D01*
X011625Y013092D01*
X011661Y013075D01*
X011694Y013055D01*
X011726Y013031D01*
X011755Y013005D01*
X011781Y012976D01*
X011805Y012944D01*
X011825Y012911D01*
X011842Y012875D01*
X011855Y012838D01*
X011864Y012800D01*
X011870Y012761D01*
X011872Y012722D01*
X011870Y012683D01*
X011864Y012644D01*
X011855Y012606D01*
X011842Y012569D01*
X011825Y012533D01*
X011805Y012500D01*
X011781Y012468D01*
X011755Y012439D01*
X011726Y012413D01*
X011694Y012389D01*
X011661Y012369D01*
X011625Y012352D01*
X011588Y012339D01*
X011550Y012330D01*
X011511Y012324D01*
X011472Y012322D01*
X011472Y011572D01*
X013472Y011572D01*
X013472Y012322D01*
X013511Y012324D01*
X013550Y012330D01*
X013588Y012339D01*
X013625Y012352D01*
X013661Y012369D01*
X013694Y012389D01*
X013726Y012413D01*
X013755Y012439D01*
X013781Y012468D01*
X013805Y012500D01*
X013825Y012533D01*
X013842Y012569D01*
X013855Y012606D01*
X013864Y012644D01*
X013870Y012683D01*
X013872Y012722D01*
X013870Y012761D01*
X013864Y012800D01*
X013855Y012838D01*
X013842Y012875D01*
X013825Y012911D01*
X013805Y012944D01*
X013781Y012976D01*
X013755Y013005D01*
X013726Y013031D01*
X013694Y013055D01*
X013661Y013075D01*
X013625Y013092D01*
X013588Y013105D01*
X013550Y013114D01*
X013511Y013120D01*
X013472Y013122D01*
X013472Y013872D01*
X015472Y013872D01*
X015472Y013122D01*
X015511Y013120D01*
X015550Y013114D01*
X015588Y013105D01*
X015625Y013092D01*
X015661Y013075D01*
X015694Y013055D01*
X015726Y013031D01*
X015755Y013005D01*
X015781Y012976D01*
X015805Y012944D01*
X015825Y012911D01*
X015842Y012875D01*
X015855Y012838D01*
X015864Y012800D01*
X015870Y012761D01*
X015872Y012722D01*
X015870Y012683D01*
X015864Y012644D01*
X015855Y012606D01*
X015842Y012569D01*
X015825Y012533D01*
X015805Y012500D01*
X015781Y012468D01*
X015755Y012439D01*
X015726Y012413D01*
X015694Y012389D01*
X015661Y012369D01*
X015625Y012352D01*
X015588Y012339D01*
X015550Y012330D01*
X015511Y012324D01*
X015472Y012322D01*
X015472Y011572D01*
X017472Y011572D01*
X017472Y013872D01*
X015472Y013872D01*
X015472Y011572D01*
X013472Y011572D01*
X013472Y013872D01*
X011472Y013872D01*
X013872Y019222D02*
X014572Y019222D01*
X014589Y019224D01*
X014606Y019228D01*
X014622Y019235D01*
X014636Y019245D01*
X014649Y019258D01*
X014659Y019272D01*
X014666Y019288D01*
X014670Y019305D01*
X014672Y019322D01*
X014672Y019472D01*
X014622Y019522D01*
X014622Y021422D01*
X014672Y021472D01*
X014672Y021622D01*
X014772Y021622D02*
X014772Y021472D01*
X014822Y021422D01*
X014822Y019522D01*
X014772Y019472D01*
X014772Y019322D01*
X014774Y019305D01*
X014778Y019288D01*
X014785Y019272D01*
X014795Y019258D01*
X014808Y019245D01*
X014822Y019235D01*
X014838Y019228D01*
X014855Y019224D01*
X014872Y019222D01*
X015572Y019222D01*
X015589Y019224D01*
X015606Y019228D01*
X015622Y019235D01*
X015636Y019245D01*
X015649Y019258D01*
X015659Y019272D01*
X015666Y019288D01*
X015670Y019305D01*
X015672Y019322D01*
X015672Y019472D01*
X015622Y019522D01*
X015622Y021422D01*
X015672Y021472D01*
X015672Y021622D01*
X015772Y021622D02*
X015772Y021472D01*
X015822Y021422D01*
X015822Y019522D01*
X015772Y019472D01*
X015772Y019322D01*
X015774Y019305D01*
X015778Y019288D01*
X015785Y019272D01*
X015795Y019258D01*
X015808Y019245D01*
X015822Y019235D01*
X015838Y019228D01*
X015855Y019224D01*
X015872Y019222D01*
X016572Y019222D01*
X016589Y019224D01*
X016606Y019228D01*
X016622Y019235D01*
X016636Y019245D01*
X016649Y019258D01*
X016659Y019272D01*
X016666Y019288D01*
X016670Y019305D01*
X016672Y019322D01*
X016672Y019472D01*
X016622Y019522D01*
X016622Y021422D01*
X016672Y021472D01*
X016672Y021622D01*
X016772Y021622D02*
X016772Y021472D01*
X016822Y021422D01*
X016822Y019522D01*
X016772Y019472D01*
X016772Y019322D01*
X016774Y019305D01*
X016778Y019288D01*
X016785Y019272D01*
X016795Y019258D01*
X016808Y019245D01*
X016822Y019235D01*
X016838Y019228D01*
X016855Y019224D01*
X016872Y019222D01*
X017572Y019222D01*
X017589Y019224D01*
X017606Y019228D01*
X017622Y019235D01*
X017636Y019245D01*
X017649Y019258D01*
X017659Y019272D01*
X017666Y019288D01*
X017670Y019305D01*
X017672Y019322D01*
X017672Y019472D01*
X017622Y019522D01*
X017622Y021422D01*
X017672Y021472D01*
X017672Y021622D01*
X017670Y021639D01*
X017666Y021656D01*
X017659Y021672D01*
X017649Y021686D01*
X017636Y021699D01*
X017622Y021709D01*
X017606Y021716D01*
X017589Y021720D01*
X017572Y021722D01*
X016872Y021722D01*
X016855Y021720D01*
X016838Y021716D01*
X016822Y021709D01*
X016808Y021699D01*
X016795Y021686D01*
X016785Y021672D01*
X016778Y021656D01*
X016774Y021639D01*
X016772Y021622D01*
X016672Y021622D02*
X016670Y021639D01*
X016666Y021656D01*
X016659Y021672D01*
X016649Y021686D01*
X016636Y021699D01*
X016622Y021709D01*
X016606Y021716D01*
X016589Y021720D01*
X016572Y021722D01*
X015872Y021722D01*
X015855Y021720D01*
X015838Y021716D01*
X015822Y021709D01*
X015808Y021699D01*
X015795Y021686D01*
X015785Y021672D01*
X015778Y021656D01*
X015774Y021639D01*
X015772Y021622D01*
X015672Y021622D02*
X015670Y021639D01*
X015666Y021656D01*
X015659Y021672D01*
X015649Y021686D01*
X015636Y021699D01*
X015622Y021709D01*
X015606Y021716D01*
X015589Y021720D01*
X015572Y021722D01*
X014872Y021722D01*
X014855Y021720D01*
X014838Y021716D01*
X014822Y021709D01*
X014808Y021699D01*
X014795Y021686D01*
X014785Y021672D01*
X014778Y021656D01*
X014774Y021639D01*
X014772Y021622D01*
X014672Y021622D02*
X014670Y021639D01*
X014666Y021656D01*
X014659Y021672D01*
X014649Y021686D01*
X014636Y021699D01*
X014622Y021709D01*
X014606Y021716D01*
X014589Y021720D01*
X014572Y021722D01*
X013872Y021722D01*
X013855Y021720D01*
X013838Y021716D01*
X013822Y021709D01*
X013808Y021699D01*
X013795Y021686D01*
X013785Y021672D01*
X013778Y021656D01*
X013774Y021639D01*
X013772Y021622D01*
X013772Y021472D01*
X013822Y021422D01*
X013822Y019522D01*
X013772Y019472D01*
X013772Y019322D01*
X013774Y019305D01*
X013778Y019288D01*
X013785Y019272D01*
X013795Y019258D01*
X013808Y019245D01*
X013822Y019235D01*
X013838Y019228D01*
X013855Y019224D01*
X013872Y019222D01*
X019522Y019322D02*
X019522Y019472D01*
X019572Y019522D01*
X019572Y021422D01*
X019522Y021472D01*
X019522Y021622D01*
X019524Y021639D01*
X019528Y021656D01*
X019535Y021672D01*
X019545Y021686D01*
X019558Y021699D01*
X019572Y021709D01*
X019588Y021716D01*
X019605Y021720D01*
X019622Y021722D01*
X020322Y021722D01*
X020339Y021720D01*
X020356Y021716D01*
X020372Y021709D01*
X020386Y021699D01*
X020399Y021686D01*
X020409Y021672D01*
X020416Y021656D01*
X020420Y021639D01*
X020422Y021622D01*
X020422Y021472D01*
X020372Y021422D01*
X020372Y019522D01*
X020422Y019472D01*
X020422Y019322D01*
X020522Y019322D02*
X020522Y019472D01*
X020572Y019522D01*
X020572Y021422D01*
X020522Y021472D01*
X020522Y021622D01*
X020524Y021639D01*
X020528Y021656D01*
X020535Y021672D01*
X020545Y021686D01*
X020558Y021699D01*
X020572Y021709D01*
X020588Y021716D01*
X020605Y021720D01*
X020622Y021722D01*
X021322Y021722D01*
X021339Y021720D01*
X021356Y021716D01*
X021372Y021709D01*
X021386Y021699D01*
X021399Y021686D01*
X021409Y021672D01*
X021416Y021656D01*
X021420Y021639D01*
X021422Y021622D01*
X021422Y021472D01*
X021372Y021422D01*
X021372Y019522D01*
X021422Y019472D01*
X021422Y019322D01*
X021522Y019322D02*
X021522Y019472D01*
X021572Y019522D01*
X021572Y021422D01*
X021522Y021472D01*
X021522Y021622D01*
X021524Y021639D01*
X021528Y021656D01*
X021535Y021672D01*
X021545Y021686D01*
X021558Y021699D01*
X021572Y021709D01*
X021588Y021716D01*
X021605Y021720D01*
X021622Y021722D01*
X022322Y021722D01*
X022339Y021720D01*
X022356Y021716D01*
X022372Y021709D01*
X022386Y021699D01*
X022399Y021686D01*
X022409Y021672D01*
X022416Y021656D01*
X022420Y021639D01*
X022422Y021622D01*
X022422Y021472D01*
X022372Y021422D01*
X022372Y019522D01*
X022422Y019472D01*
X022422Y019322D01*
X022420Y019305D01*
X022416Y019288D01*
X022409Y019272D01*
X022399Y019258D01*
X022386Y019245D01*
X022372Y019235D01*
X022356Y019228D01*
X022339Y019224D01*
X022322Y019222D01*
X021622Y019222D01*
X021605Y019224D01*
X021588Y019228D01*
X021572Y019235D01*
X021558Y019245D01*
X021545Y019258D01*
X021535Y019272D01*
X021528Y019288D01*
X021524Y019305D01*
X021522Y019322D01*
X021422Y019322D02*
X021420Y019305D01*
X021416Y019288D01*
X021409Y019272D01*
X021399Y019258D01*
X021386Y019245D01*
X021372Y019235D01*
X021356Y019228D01*
X021339Y019224D01*
X021322Y019222D01*
X020622Y019222D01*
X020605Y019224D01*
X020588Y019228D01*
X020572Y019235D01*
X020558Y019245D01*
X020545Y019258D01*
X020535Y019272D01*
X020528Y019288D01*
X020524Y019305D01*
X020522Y019322D01*
X020422Y019322D02*
X020420Y019305D01*
X020416Y019288D01*
X020409Y019272D01*
X020399Y019258D01*
X020386Y019245D01*
X020372Y019235D01*
X020356Y019228D01*
X020339Y019224D01*
X020322Y019222D01*
X019622Y019222D01*
X019605Y019224D01*
X019588Y019228D01*
X019572Y019235D01*
X019558Y019245D01*
X019545Y019258D01*
X019535Y019272D01*
X019528Y019288D01*
X019524Y019305D01*
X019522Y019322D01*
X020472Y016222D02*
X020472Y015472D01*
X020502Y015470D01*
X020532Y015465D01*
X020561Y015456D01*
X020588Y015443D01*
X020614Y015428D01*
X020638Y015409D01*
X020659Y015388D01*
X020678Y015364D01*
X020693Y015338D01*
X020706Y015311D01*
X020715Y015282D01*
X020720Y015252D01*
X020722Y015222D01*
X020720Y015192D01*
X020715Y015162D01*
X020706Y015133D01*
X020693Y015106D01*
X020678Y015080D01*
X020659Y015056D01*
X020638Y015035D01*
X020614Y015016D01*
X020588Y015001D01*
X020561Y014988D01*
X020532Y014979D01*
X020502Y014974D01*
X020472Y014972D01*
X020472Y014222D01*
X029472Y014222D01*
X029472Y016222D01*
X020472Y016222D01*
X023972Y019122D02*
X023972Y021822D01*
X023974Y021839D01*
X023978Y021856D01*
X023985Y021872D01*
X023995Y021886D01*
X024008Y021899D01*
X024022Y021909D01*
X024038Y021916D01*
X024055Y021920D01*
X024072Y021922D01*
X024872Y021922D01*
X024889Y021920D01*
X024906Y021916D01*
X024922Y021909D01*
X024936Y021899D01*
X024949Y021886D01*
X024959Y021872D01*
X024966Y021856D01*
X024970Y021839D01*
X024972Y021822D01*
X024972Y019122D01*
X024970Y019105D01*
X024966Y019088D01*
X024959Y019072D01*
X024949Y019058D01*
X024936Y019045D01*
X024922Y019035D01*
X024906Y019028D01*
X024889Y019024D01*
X024872Y019022D01*
X024072Y019022D01*
X024055Y019024D01*
X024038Y019028D01*
X024022Y019035D01*
X024008Y019045D01*
X023995Y019058D01*
X023985Y019072D01*
X023978Y019088D01*
X023974Y019105D01*
X023972Y019122D01*
X024472Y019872D02*
X024472Y020352D01*
X024472Y020602D02*
X024472Y021072D01*
X025522Y021472D02*
X025522Y021622D01*
X025524Y021639D01*
X025528Y021656D01*
X025535Y021672D01*
X025545Y021686D01*
X025558Y021699D01*
X025572Y021709D01*
X025588Y021716D01*
X025605Y021720D01*
X025622Y021722D01*
X026322Y021722D01*
X026339Y021720D01*
X026356Y021716D01*
X026372Y021709D01*
X026386Y021699D01*
X026399Y021686D01*
X026409Y021672D01*
X026416Y021656D01*
X026420Y021639D01*
X026422Y021622D01*
X026422Y021472D01*
X026372Y021422D01*
X026372Y019522D01*
X026422Y019472D01*
X026422Y019322D01*
X026522Y019322D02*
X026522Y019472D01*
X026572Y019522D01*
X026572Y021422D01*
X026522Y021472D01*
X026522Y021622D01*
X026524Y021639D01*
X026528Y021656D01*
X026535Y021672D01*
X026545Y021686D01*
X026558Y021699D01*
X026572Y021709D01*
X026588Y021716D01*
X026605Y021720D01*
X026622Y021722D01*
X027322Y021722D01*
X027339Y021720D01*
X027356Y021716D01*
X027372Y021709D01*
X027386Y021699D01*
X027399Y021686D01*
X027409Y021672D01*
X027416Y021656D01*
X027420Y021639D01*
X027422Y021622D01*
X027422Y021472D01*
X027372Y021422D01*
X027372Y019522D01*
X027422Y019472D01*
X027422Y019322D01*
X027522Y019322D02*
X027522Y019472D01*
X027572Y019522D01*
X027572Y021422D01*
X027522Y021472D01*
X027522Y021622D01*
X027524Y021639D01*
X027528Y021656D01*
X027535Y021672D01*
X027545Y021686D01*
X027558Y021699D01*
X027572Y021709D01*
X027588Y021716D01*
X027605Y021720D01*
X027622Y021722D01*
X028322Y021722D01*
X028339Y021720D01*
X028356Y021716D01*
X028372Y021709D01*
X028386Y021699D01*
X028399Y021686D01*
X028409Y021672D01*
X028416Y021656D01*
X028420Y021639D01*
X028422Y021622D01*
X028422Y021472D01*
X028372Y021422D01*
X028372Y019522D01*
X028422Y019472D01*
X028422Y019322D01*
X028522Y019322D02*
X028522Y019472D01*
X028572Y019522D01*
X028572Y021422D01*
X028522Y021472D01*
X028522Y021622D01*
X028524Y021639D01*
X028528Y021656D01*
X028535Y021672D01*
X028545Y021686D01*
X028558Y021699D01*
X028572Y021709D01*
X028588Y021716D01*
X028605Y021720D01*
X028622Y021722D01*
X029322Y021722D01*
X029339Y021720D01*
X029356Y021716D01*
X029372Y021709D01*
X029386Y021699D01*
X029399Y021686D01*
X029409Y021672D01*
X029416Y021656D01*
X029420Y021639D01*
X029422Y021622D01*
X029422Y021472D01*
X029372Y021422D01*
X029372Y019522D01*
X029422Y019472D01*
X029422Y019322D01*
X029522Y019322D02*
X029522Y019472D01*
X029572Y019522D01*
X029572Y021422D01*
X029522Y021472D01*
X029522Y021622D01*
X029524Y021639D01*
X029528Y021656D01*
X029535Y021672D01*
X029545Y021686D01*
X029558Y021699D01*
X029572Y021709D01*
X029588Y021716D01*
X029605Y021720D01*
X029622Y021722D01*
X030322Y021722D01*
X030339Y021720D01*
X030356Y021716D01*
X030372Y021709D01*
X030386Y021699D01*
X030399Y021686D01*
X030409Y021672D01*
X030416Y021656D01*
X030420Y021639D01*
X030422Y021622D01*
X030422Y021472D01*
X030372Y021422D01*
X030372Y019522D01*
X030422Y019472D01*
X030422Y019322D01*
X030420Y019305D01*
X030416Y019288D01*
X030409Y019272D01*
X030399Y019258D01*
X030386Y019245D01*
X030372Y019235D01*
X030356Y019228D01*
X030339Y019224D01*
X030322Y019222D01*
X029622Y019222D01*
X029605Y019224D01*
X029588Y019228D01*
X029572Y019235D01*
X029558Y019245D01*
X029545Y019258D01*
X029535Y019272D01*
X029528Y019288D01*
X029524Y019305D01*
X029522Y019322D01*
X029422Y019322D02*
X029420Y019305D01*
X029416Y019288D01*
X029409Y019272D01*
X029399Y019258D01*
X029386Y019245D01*
X029372Y019235D01*
X029356Y019228D01*
X029339Y019224D01*
X029322Y019222D01*
X028622Y019222D01*
X028605Y019224D01*
X028588Y019228D01*
X028572Y019235D01*
X028558Y019245D01*
X028545Y019258D01*
X028535Y019272D01*
X028528Y019288D01*
X028524Y019305D01*
X028522Y019322D01*
X028422Y019322D02*
X028420Y019305D01*
X028416Y019288D01*
X028409Y019272D01*
X028399Y019258D01*
X028386Y019245D01*
X028372Y019235D01*
X028356Y019228D01*
X028339Y019224D01*
X028322Y019222D01*
X027622Y019222D01*
X027605Y019224D01*
X027588Y019228D01*
X027572Y019235D01*
X027558Y019245D01*
X027545Y019258D01*
X027535Y019272D01*
X027528Y019288D01*
X027524Y019305D01*
X027522Y019322D01*
X027422Y019322D02*
X027420Y019305D01*
X027416Y019288D01*
X027409Y019272D01*
X027399Y019258D01*
X027386Y019245D01*
X027372Y019235D01*
X027356Y019228D01*
X027339Y019224D01*
X027322Y019222D01*
X026622Y019222D01*
X026605Y019224D01*
X026588Y019228D01*
X026572Y019235D01*
X026558Y019245D01*
X026545Y019258D01*
X026535Y019272D01*
X026528Y019288D01*
X026524Y019305D01*
X026522Y019322D01*
X026422Y019322D02*
X026420Y019305D01*
X026416Y019288D01*
X026409Y019272D01*
X026399Y019258D01*
X026386Y019245D01*
X026372Y019235D01*
X026356Y019228D01*
X026339Y019224D01*
X026322Y019222D01*
X025622Y019222D01*
X025605Y019224D01*
X025588Y019228D01*
X025572Y019235D01*
X025558Y019245D01*
X025545Y019258D01*
X025535Y019272D01*
X025528Y019288D01*
X025524Y019305D01*
X025522Y019322D01*
X025522Y019472D01*
X025572Y019522D01*
X025572Y021422D01*
X025522Y021472D01*
X021872Y026022D02*
X021072Y026022D01*
X021055Y026024D01*
X021038Y026028D01*
X021022Y026035D01*
X021008Y026045D01*
X020995Y026058D01*
X020985Y026072D01*
X020978Y026088D01*
X020974Y026105D01*
X020972Y026122D01*
X020972Y028822D01*
X020974Y028839D01*
X020978Y028856D01*
X020985Y028872D01*
X020995Y028886D01*
X021008Y028899D01*
X021022Y028909D01*
X021038Y028916D01*
X021055Y028920D01*
X021072Y028922D01*
X021872Y028922D01*
X021889Y028920D01*
X021906Y028916D01*
X021922Y028909D01*
X021936Y028899D01*
X021949Y028886D01*
X021959Y028872D01*
X021966Y028856D01*
X021970Y028839D01*
X021972Y028822D01*
X021972Y026122D01*
X021970Y026105D01*
X021966Y026088D01*
X021959Y026072D01*
X021949Y026058D01*
X021936Y026045D01*
X021922Y026035D01*
X021906Y026028D01*
X021889Y026024D01*
X021872Y026022D01*
X021472Y026872D02*
X021472Y027352D01*
X021472Y027602D02*
X021472Y028072D01*
X019472Y027722D02*
X019472Y028572D01*
X011472Y028572D01*
X011472Y026372D01*
X019472Y026372D01*
X019472Y027222D01*
X019442Y027224D01*
X019412Y027229D01*
X019383Y027238D01*
X019356Y027251D01*
X019330Y027266D01*
X019306Y027285D01*
X019285Y027306D01*
X019266Y027330D01*
X019251Y027356D01*
X019238Y027383D01*
X019229Y027412D01*
X019224Y027442D01*
X019222Y027472D01*
X019224Y027502D01*
X019229Y027532D01*
X019238Y027561D01*
X019251Y027588D01*
X019266Y027614D01*
X019285Y027638D01*
X019306Y027659D01*
X019330Y027678D01*
X019356Y027693D01*
X019383Y027706D01*
X019412Y027715D01*
X019442Y027720D01*
X019472Y027722D01*
X019072Y031222D02*
X019872Y031222D01*
X019972Y031322D01*
X020072Y031222D01*
X020872Y031222D01*
X020972Y031322D01*
X021072Y031222D01*
X021872Y031222D01*
X021972Y031322D01*
X022072Y031222D01*
X022972Y031222D01*
X022972Y032222D01*
X022072Y032222D01*
X021972Y032122D01*
X021872Y032222D01*
X021072Y032222D01*
X020972Y032122D01*
X020872Y032222D01*
X020072Y032222D01*
X019972Y032122D01*
X019872Y032222D01*
X019072Y032222D01*
X018972Y032122D01*
X018872Y032222D01*
X018072Y032222D01*
X017972Y032122D01*
X017872Y032222D01*
X017072Y032222D01*
X016972Y032122D01*
X016872Y032222D01*
X016072Y032222D01*
X015972Y032122D01*
X015872Y032222D01*
X015072Y032222D01*
X014972Y032122D01*
X014872Y032222D01*
X014072Y032222D01*
X013972Y032122D01*
X013872Y032222D01*
X013072Y032222D01*
X012972Y032122D01*
X012872Y032222D01*
X012072Y032222D01*
X011972Y032122D01*
X011872Y032222D01*
X011072Y032222D01*
X010972Y032122D01*
X010872Y032222D01*
X010072Y032222D01*
X009972Y032122D01*
X009872Y032222D01*
X009072Y032222D01*
X008972Y032122D01*
X008872Y032222D01*
X008072Y032222D01*
X007972Y032122D01*
X007872Y032222D01*
X006972Y032222D01*
X006972Y031222D01*
X007872Y031222D01*
X007972Y031322D01*
X008072Y031222D01*
X008872Y031222D01*
X008972Y031322D01*
X009072Y031222D01*
X009872Y031222D01*
X009972Y031322D01*
X010072Y031222D01*
X010872Y031222D01*
X010972Y031322D01*
X011072Y031222D01*
X011872Y031222D01*
X011972Y031322D01*
X012072Y031222D01*
X012872Y031222D01*
X012972Y031322D01*
X013072Y031222D01*
X013872Y031222D01*
X013972Y031322D01*
X014072Y031222D01*
X014872Y031222D01*
X014972Y031322D01*
X015072Y031222D01*
X015872Y031222D01*
X015972Y031322D01*
X016072Y031222D01*
X016872Y031222D01*
X016972Y031322D01*
X017072Y031222D01*
X017872Y031222D01*
X017972Y031322D01*
X018072Y031222D01*
X018872Y031222D01*
X018972Y031322D01*
X019072Y031222D01*
X023472Y028472D02*
X023472Y026472D01*
X027472Y026472D01*
X027472Y027222D01*
X027442Y027224D01*
X027412Y027229D01*
X027383Y027238D01*
X027356Y027251D01*
X027330Y027266D01*
X027306Y027285D01*
X027285Y027306D01*
X027266Y027330D01*
X027251Y027356D01*
X027238Y027383D01*
X027229Y027412D01*
X027224Y027442D01*
X027222Y027472D01*
X027224Y027502D01*
X027229Y027532D01*
X027238Y027561D01*
X027251Y027588D01*
X027266Y027614D01*
X027285Y027638D01*
X027306Y027659D01*
X027330Y027678D01*
X027356Y027693D01*
X027383Y027706D01*
X027412Y027715D01*
X027442Y027720D01*
X027472Y027722D01*
X027472Y028472D01*
X023472Y028472D01*
X024422Y030622D02*
X027422Y030622D01*
X027422Y030672D01*
X027422Y031772D01*
X027422Y031822D01*
X024422Y031822D01*
X024405Y031820D01*
X024388Y031816D01*
X024372Y031809D01*
X024358Y031799D01*
X024345Y031786D01*
X024335Y031772D01*
X024328Y031756D01*
X024324Y031739D01*
X024322Y031722D01*
X024322Y030722D01*
X024324Y030705D01*
X024328Y030688D01*
X024335Y030672D01*
X024345Y030658D01*
X024358Y030645D01*
X024372Y030635D01*
X024388Y030628D01*
X024405Y030624D01*
X024422Y030622D01*
X025672Y031222D02*
X025872Y031222D01*
X025872Y031522D01*
X026022Y031522D02*
X026022Y030922D01*
X026172Y030922D01*
X026172Y031522D01*
X026022Y031522D01*
X026322Y031522D02*
X026322Y031222D01*
X026522Y031222D01*
X026322Y031222D02*
X026322Y030922D01*
X025872Y030922D02*
X025872Y031222D01*
X027422Y031772D02*
X027572Y031772D01*
X027572Y030672D01*
X027422Y030672D01*
X031122Y032822D02*
X031622Y032822D01*
X031122Y032822D02*
X031122Y026222D01*
X036322Y026222D01*
X036322Y032822D01*
X035772Y032822D01*
X034622Y032822D02*
X032822Y032822D01*
X032872Y031822D02*
X032322Y031822D01*
X034572Y031822D02*
X035122Y031822D01*
X031102Y030692D02*
X030927Y030562D01*
X030759Y030425D01*
X030597Y030279D01*
X030442Y030126D01*
X030295Y029965D01*
X030156Y029798D01*
X030025Y029624D01*
X029902Y029444D01*
X029788Y029258D01*
X029683Y029067D01*
X029588Y028872D01*
X029501Y028672D01*
X029425Y028468D01*
X029358Y028261D01*
X029302Y028050D01*
X029255Y027838D01*
X029219Y027623D01*
X029193Y027407D01*
X029177Y027190D01*
X029172Y026972D01*
X036316Y030891D02*
X036497Y030765D01*
X036672Y030631D01*
X036840Y030488D01*
X037002Y030338D01*
X037156Y030180D01*
X037303Y030016D01*
X037442Y029844D01*
X037573Y029666D01*
X037695Y029483D01*
X037809Y029293D01*
X037913Y029099D01*
X038008Y028900D01*
X038094Y028697D01*
X038170Y028489D01*
X038237Y028279D01*
X038293Y028065D01*
X038339Y027850D01*
X038375Y027632D01*
X038401Y027413D01*
X038417Y027193D01*
X038422Y026972D01*
X031115Y030883D02*
X030935Y030756D01*
X030761Y030622D01*
X030593Y030479D01*
X030433Y030329D01*
X030279Y030172D01*
X030133Y030007D01*
X029995Y029836D01*
X029865Y029658D01*
X029744Y029475D01*
X029631Y029286D01*
X029527Y029092D01*
X029433Y028894D01*
X029348Y028691D01*
X029272Y028484D01*
X029206Y028274D01*
X029150Y028062D01*
X029104Y027847D01*
X029068Y027630D01*
X029043Y027411D01*
X029027Y027192D01*
X029022Y026972D01*
X029027Y026745D01*
X029044Y026518D01*
X029071Y026293D01*
X029110Y026069D01*
X029159Y025847D01*
X029218Y025628D01*
X029288Y025412D01*
X029369Y025200D01*
X029460Y024991D01*
X029560Y024788D01*
X029671Y024589D01*
X029791Y024396D01*
X029920Y024209D01*
X030058Y024029D01*
X030204Y023855D01*
X030359Y023689D01*
X030521Y023530D01*
X030691Y023380D01*
X030868Y023237D01*
X031052Y023104D01*
X031242Y022980D01*
X031438Y022864D01*
X031639Y022759D01*
X031845Y022663D01*
X032055Y022577D01*
X032270Y022502D01*
X032487Y022437D01*
X032708Y022383D01*
X032931Y022339D01*
X033155Y022306D01*
X033382Y022284D01*
X033608Y022273D01*
X033836Y022273D01*
X034062Y022284D01*
X034289Y022306D01*
X034513Y022339D01*
X034736Y022383D01*
X034957Y022437D01*
X035174Y022502D01*
X035389Y022577D01*
X035599Y022663D01*
X035805Y022759D01*
X036006Y022864D01*
X036202Y022980D01*
X036392Y023104D01*
X036576Y023237D01*
X036753Y023380D01*
X036923Y023530D01*
X037085Y023689D01*
X037240Y023855D01*
X037386Y024029D01*
X037524Y024209D01*
X037653Y024396D01*
X037773Y024589D01*
X037884Y024788D01*
X037984Y024991D01*
X038075Y025200D01*
X038156Y025412D01*
X038226Y025628D01*
X038285Y025847D01*
X038334Y026069D01*
X038373Y026293D01*
X038400Y026518D01*
X038417Y026745D01*
X038422Y026972D01*
X038272Y026972D02*
X038267Y027192D01*
X038251Y027411D01*
X038224Y027630D01*
X038187Y027846D01*
X038140Y028061D01*
X038082Y028273D01*
X038014Y028482D01*
X037936Y028688D01*
X037848Y028890D01*
X037751Y029087D01*
X037644Y029279D01*
X037528Y029466D01*
X037403Y029647D01*
X037269Y029821D01*
X037128Y029989D01*
X036978Y030150D01*
X036820Y030304D01*
X036656Y030450D01*
X036484Y030588D01*
X036306Y030717D01*
X038272Y026972D02*
X038267Y026752D01*
X038251Y026533D01*
X038224Y026315D01*
X038187Y026098D01*
X038140Y025883D01*
X038082Y025671D01*
X038014Y025462D01*
X037936Y025256D01*
X037848Y025055D01*
X037751Y024858D01*
X037644Y024665D01*
X037528Y024479D01*
X037403Y024298D01*
X037270Y024123D01*
X037128Y023955D01*
X036978Y023794D01*
X036821Y023640D01*
X036656Y023494D01*
X036485Y023357D01*
X036307Y023227D01*
X036123Y023107D01*
X035933Y022995D01*
X035739Y022893D01*
X035539Y022801D01*
X035335Y022718D01*
X035128Y022645D01*
X034917Y022582D01*
X034704Y022529D01*
X034488Y022487D01*
X034270Y022455D01*
X034052Y022434D01*
X033832Y022423D01*
X033612Y022423D01*
X033392Y022434D01*
X033174Y022455D01*
X032956Y022487D01*
X032740Y022529D01*
X032527Y022582D01*
X032316Y022645D01*
X032109Y022718D01*
X031905Y022801D01*
X031705Y022893D01*
X031511Y022995D01*
X031321Y023107D01*
X031137Y023227D01*
X030959Y023357D01*
X030788Y023494D01*
X030623Y023640D01*
X030466Y023794D01*
X030316Y023955D01*
X030174Y024123D01*
X030041Y024298D01*
X029916Y024479D01*
X029800Y024665D01*
X029693Y024858D01*
X029596Y025055D01*
X029508Y025256D01*
X029430Y025462D01*
X029362Y025671D01*
X029304Y025883D01*
X029257Y026098D01*
X029220Y026315D01*
X029193Y026533D01*
X029177Y026752D01*
X029172Y026972D01*
X031472Y016472D02*
X031222Y016222D01*
X031222Y015722D01*
X031472Y015472D01*
X031972Y015472D01*
X032222Y015722D01*
X032472Y015472D01*
X032972Y015472D01*
X033222Y015722D01*
X033472Y015472D01*
X033972Y015472D01*
X034222Y015722D01*
X034472Y015472D01*
X034972Y015472D01*
X035222Y015722D01*
X035472Y015472D01*
X035972Y015472D01*
X036222Y015722D01*
X036222Y016222D01*
X035972Y016472D01*
X035472Y016472D01*
X035222Y016222D01*
X034972Y016472D01*
X034472Y016472D01*
X034222Y016222D01*
X033972Y016472D01*
X033472Y016472D01*
X033222Y016222D01*
X032972Y016472D01*
X032472Y016472D01*
X032222Y016222D01*
X031972Y016472D01*
X031472Y016472D01*
X035372Y011722D02*
X036072Y011722D01*
X036089Y011720D01*
X036106Y011716D01*
X036122Y011709D01*
X036136Y011699D01*
X036149Y011686D01*
X036159Y011672D01*
X036166Y011656D01*
X036170Y011639D01*
X036172Y011622D01*
X036172Y011472D01*
X036122Y011422D01*
X036122Y009522D01*
X036172Y009472D01*
X036172Y009322D01*
X036170Y009305D01*
X036166Y009288D01*
X036159Y009272D01*
X036149Y009258D01*
X036136Y009245D01*
X036122Y009235D01*
X036106Y009228D01*
X036089Y009224D01*
X036072Y009222D01*
X035372Y009222D01*
X035355Y009224D01*
X035338Y009228D01*
X035322Y009235D01*
X035308Y009245D01*
X035295Y009258D01*
X035285Y009272D01*
X035278Y009288D01*
X035274Y009305D01*
X035272Y009322D01*
X035272Y009472D01*
X035322Y009522D01*
X035322Y011422D01*
X035272Y011472D01*
X035272Y011622D01*
X035274Y011639D01*
X035278Y011656D01*
X035285Y011672D01*
X035295Y011686D01*
X035308Y011699D01*
X035322Y011709D01*
X035338Y011716D01*
X035355Y011720D01*
X035372Y011722D01*
X034972Y011272D02*
X033972Y011272D01*
X033972Y009672D01*
X034972Y009672D01*
X034972Y011272D01*
X034472Y010722D02*
X034472Y010472D01*
X034222Y010472D01*
X034472Y010472D02*
X034222Y010072D01*
X034722Y010072D01*
X034472Y010472D01*
X034722Y010472D01*
X034472Y010472D02*
X034472Y009872D01*
X027072Y006272D02*
X026772Y006272D01*
X026922Y006422D02*
X026922Y006122D01*
X024122Y006722D02*
X024124Y006802D01*
X024130Y006881D01*
X024140Y006960D01*
X024154Y007039D01*
X024171Y007117D01*
X024193Y007194D01*
X024218Y007269D01*
X024248Y007343D01*
X024280Y007416D01*
X024317Y007487D01*
X024357Y007556D01*
X024400Y007623D01*
X024447Y007688D01*
X024496Y007750D01*
X024549Y007810D01*
X024605Y007867D01*
X024663Y007922D01*
X024724Y007973D01*
X024788Y008021D01*
X024854Y008066D01*
X024922Y008108D01*
X024992Y008146D01*
X025064Y008180D01*
X025137Y008211D01*
X025212Y008239D01*
X025289Y008262D01*
X025366Y008282D01*
X025444Y008298D01*
X025523Y008310D01*
X025602Y008318D01*
X025682Y008322D01*
X025762Y008322D01*
X025842Y008318D01*
X025921Y008310D01*
X026000Y008298D01*
X026078Y008282D01*
X026155Y008262D01*
X026232Y008239D01*
X026307Y008211D01*
X026380Y008180D01*
X026452Y008146D01*
X026522Y008108D01*
X026590Y008066D01*
X026656Y008021D01*
X026720Y007973D01*
X026781Y007922D01*
X026839Y007867D01*
X026895Y007810D01*
X026948Y007750D01*
X026997Y007688D01*
X027044Y007623D01*
X027087Y007556D01*
X027127Y007487D01*
X027164Y007416D01*
X027196Y007343D01*
X027226Y007269D01*
X027251Y007194D01*
X027273Y007117D01*
X027290Y007039D01*
X027304Y006960D01*
X027314Y006881D01*
X027320Y006802D01*
X027322Y006722D01*
X027320Y006642D01*
X027314Y006563D01*
X027304Y006484D01*
X027290Y006405D01*
X027273Y006327D01*
X027251Y006250D01*
X027226Y006175D01*
X027196Y006101D01*
X027164Y006028D01*
X027127Y005957D01*
X027087Y005888D01*
X027044Y005821D01*
X026997Y005756D01*
X026948Y005694D01*
X026895Y005634D01*
X026839Y005577D01*
X026781Y005522D01*
X026720Y005471D01*
X026656Y005423D01*
X026590Y005378D01*
X026522Y005336D01*
X026452Y005298D01*
X026380Y005264D01*
X026307Y005233D01*
X026232Y005205D01*
X026155Y005182D01*
X026078Y005162D01*
X026000Y005146D01*
X025921Y005134D01*
X025842Y005126D01*
X025762Y005122D01*
X025682Y005122D01*
X025602Y005126D01*
X025523Y005134D01*
X025444Y005146D01*
X025366Y005162D01*
X025289Y005182D01*
X025212Y005205D01*
X025137Y005233D01*
X025064Y005264D01*
X024992Y005298D01*
X024922Y005336D01*
X024854Y005378D01*
X024788Y005423D01*
X024724Y005471D01*
X024663Y005522D01*
X024605Y005577D01*
X024549Y005634D01*
X024496Y005694D01*
X024447Y005756D01*
X024400Y005821D01*
X024357Y005888D01*
X024317Y005957D01*
X024280Y006028D01*
X024248Y006101D01*
X024218Y006175D01*
X024193Y006250D01*
X024171Y006327D01*
X024154Y006405D01*
X024140Y006484D01*
X024130Y006563D01*
X024124Y006642D01*
X024122Y006722D01*
X019622Y006722D02*
X019624Y006802D01*
X019630Y006881D01*
X019640Y006960D01*
X019654Y007039D01*
X019671Y007117D01*
X019693Y007194D01*
X019718Y007269D01*
X019748Y007343D01*
X019780Y007416D01*
X019817Y007487D01*
X019857Y007556D01*
X019900Y007623D01*
X019947Y007688D01*
X019996Y007750D01*
X020049Y007810D01*
X020105Y007867D01*
X020163Y007922D01*
X020224Y007973D01*
X020288Y008021D01*
X020354Y008066D01*
X020422Y008108D01*
X020492Y008146D01*
X020564Y008180D01*
X020637Y008211D01*
X020712Y008239D01*
X020789Y008262D01*
X020866Y008282D01*
X020944Y008298D01*
X021023Y008310D01*
X021102Y008318D01*
X021182Y008322D01*
X021262Y008322D01*
X021342Y008318D01*
X021421Y008310D01*
X021500Y008298D01*
X021578Y008282D01*
X021655Y008262D01*
X021732Y008239D01*
X021807Y008211D01*
X021880Y008180D01*
X021952Y008146D01*
X022022Y008108D01*
X022090Y008066D01*
X022156Y008021D01*
X022220Y007973D01*
X022281Y007922D01*
X022339Y007867D01*
X022395Y007810D01*
X022448Y007750D01*
X022497Y007688D01*
X022544Y007623D01*
X022587Y007556D01*
X022627Y007487D01*
X022664Y007416D01*
X022696Y007343D01*
X022726Y007269D01*
X022751Y007194D01*
X022773Y007117D01*
X022790Y007039D01*
X022804Y006960D01*
X022814Y006881D01*
X022820Y006802D01*
X022822Y006722D01*
X022820Y006642D01*
X022814Y006563D01*
X022804Y006484D01*
X022790Y006405D01*
X022773Y006327D01*
X022751Y006250D01*
X022726Y006175D01*
X022696Y006101D01*
X022664Y006028D01*
X022627Y005957D01*
X022587Y005888D01*
X022544Y005821D01*
X022497Y005756D01*
X022448Y005694D01*
X022395Y005634D01*
X022339Y005577D01*
X022281Y005522D01*
X022220Y005471D01*
X022156Y005423D01*
X022090Y005378D01*
X022022Y005336D01*
X021952Y005298D01*
X021880Y005264D01*
X021807Y005233D01*
X021732Y005205D01*
X021655Y005182D01*
X021578Y005162D01*
X021500Y005146D01*
X021421Y005134D01*
X021342Y005126D01*
X021262Y005122D01*
X021182Y005122D01*
X021102Y005126D01*
X021023Y005134D01*
X020944Y005146D01*
X020866Y005162D01*
X020789Y005182D01*
X020712Y005205D01*
X020637Y005233D01*
X020564Y005264D01*
X020492Y005298D01*
X020422Y005336D01*
X020354Y005378D01*
X020288Y005423D01*
X020224Y005471D01*
X020163Y005522D01*
X020105Y005577D01*
X020049Y005634D01*
X019996Y005694D01*
X019947Y005756D01*
X019900Y005821D01*
X019857Y005888D01*
X019817Y005957D01*
X019780Y006028D01*
X019748Y006101D01*
X019718Y006175D01*
X019693Y006250D01*
X019671Y006327D01*
X019654Y006405D01*
X019640Y006484D01*
X019630Y006563D01*
X019624Y006642D01*
X019622Y006722D01*
X020022Y007022D02*
X020022Y007322D01*
X019872Y007172D02*
X020172Y007172D01*
X017922Y007122D02*
X017922Y006972D01*
X017872Y006922D01*
X017872Y005022D01*
X017922Y004972D01*
X017922Y004822D01*
X017920Y004805D01*
X017916Y004788D01*
X017909Y004772D01*
X017899Y004758D01*
X017886Y004745D01*
X017872Y004735D01*
X017856Y004728D01*
X017839Y004724D01*
X017822Y004722D01*
X017122Y004722D01*
X017105Y004724D01*
X017088Y004728D01*
X017072Y004735D01*
X017058Y004745D01*
X017045Y004758D01*
X017035Y004772D01*
X017028Y004788D01*
X017024Y004805D01*
X017022Y004822D01*
X017022Y004972D01*
X017072Y005022D01*
X017072Y006922D01*
X017022Y006972D01*
X017022Y007122D01*
X017024Y007139D01*
X017028Y007156D01*
X017035Y007172D01*
X017045Y007186D01*
X017058Y007199D01*
X017072Y007209D01*
X017088Y007216D01*
X017105Y007220D01*
X017122Y007222D01*
X017822Y007222D01*
X017839Y007220D01*
X017856Y007216D01*
X017872Y007209D01*
X017886Y007199D01*
X017899Y007186D01*
X017909Y007172D01*
X017916Y007156D01*
X017920Y007139D01*
X017922Y007122D01*
X016922Y007122D02*
X016922Y006972D01*
X016872Y006922D01*
X016872Y005022D01*
X016922Y004972D01*
X016922Y004822D01*
X016920Y004805D01*
X016916Y004788D01*
X016909Y004772D01*
X016899Y004758D01*
X016886Y004745D01*
X016872Y004735D01*
X016856Y004728D01*
X016839Y004724D01*
X016822Y004722D01*
X016122Y004722D01*
X016105Y004724D01*
X016088Y004728D01*
X016072Y004735D01*
X016058Y004745D01*
X016045Y004758D01*
X016035Y004772D01*
X016028Y004788D01*
X016024Y004805D01*
X016022Y004822D01*
X016022Y004972D01*
X016072Y005022D01*
X016072Y006922D01*
X016022Y006972D01*
X016022Y007122D01*
X016024Y007139D01*
X016028Y007156D01*
X016035Y007172D01*
X016045Y007186D01*
X016058Y007199D01*
X016072Y007209D01*
X016088Y007216D01*
X016105Y007220D01*
X016122Y007222D01*
X016822Y007222D01*
X016839Y007220D01*
X016856Y007216D01*
X016872Y007209D01*
X016886Y007199D01*
X016899Y007186D01*
X016909Y007172D01*
X016916Y007156D01*
X016920Y007139D01*
X016922Y007122D01*
X015922Y007122D02*
X015922Y006972D01*
X015872Y006922D01*
X015872Y005022D01*
X015922Y004972D01*
X015922Y004822D01*
X015920Y004805D01*
X015916Y004788D01*
X015909Y004772D01*
X015899Y004758D01*
X015886Y004745D01*
X015872Y004735D01*
X015856Y004728D01*
X015839Y004724D01*
X015822Y004722D01*
X015122Y004722D01*
X015105Y004724D01*
X015088Y004728D01*
X015072Y004735D01*
X015058Y004745D01*
X015045Y004758D01*
X015035Y004772D01*
X015028Y004788D01*
X015024Y004805D01*
X015022Y004822D01*
X015022Y004972D01*
X015072Y005022D01*
X015072Y006922D01*
X015022Y006972D01*
X015022Y007122D01*
X015024Y007139D01*
X015028Y007156D01*
X015035Y007172D01*
X015045Y007186D01*
X015058Y007199D01*
X015072Y007209D01*
X015088Y007216D01*
X015105Y007220D01*
X015122Y007222D01*
X015822Y007222D01*
X015839Y007220D01*
X015856Y007216D01*
X015872Y007209D01*
X015886Y007199D01*
X015899Y007186D01*
X015909Y007172D01*
X015916Y007156D01*
X015920Y007139D01*
X015922Y007122D01*
X014922Y007122D02*
X014922Y006972D01*
X014872Y006922D01*
X014872Y005022D01*
X014922Y004972D01*
X014922Y004822D01*
X014920Y004805D01*
X014916Y004788D01*
X014909Y004772D01*
X014899Y004758D01*
X014886Y004745D01*
X014872Y004735D01*
X014856Y004728D01*
X014839Y004724D01*
X014822Y004722D01*
X014122Y004722D01*
X014105Y004724D01*
X014088Y004728D01*
X014072Y004735D01*
X014058Y004745D01*
X014045Y004758D01*
X014035Y004772D01*
X014028Y004788D01*
X014024Y004805D01*
X014022Y004822D01*
X014022Y004972D01*
X014072Y005022D01*
X014072Y006922D01*
X014022Y006972D01*
X014022Y007122D01*
X014024Y007139D01*
X014028Y007156D01*
X014035Y007172D01*
X014045Y007186D01*
X014058Y007199D01*
X014072Y007209D01*
X014088Y007216D01*
X014105Y007220D01*
X014122Y007222D01*
X014822Y007222D01*
X014839Y007220D01*
X014856Y007216D01*
X014872Y007209D01*
X014886Y007199D01*
X014899Y007186D01*
X014909Y007172D01*
X014916Y007156D01*
X014920Y007139D01*
X014922Y007122D01*
X013922Y007122D02*
X013922Y006972D01*
X013872Y006922D01*
X013872Y005022D01*
X013922Y004972D01*
X013922Y004822D01*
X013920Y004805D01*
X013916Y004788D01*
X013909Y004772D01*
X013899Y004758D01*
X013886Y004745D01*
X013872Y004735D01*
X013856Y004728D01*
X013839Y004724D01*
X013822Y004722D01*
X013122Y004722D01*
X013105Y004724D01*
X013088Y004728D01*
X013072Y004735D01*
X013058Y004745D01*
X013045Y004758D01*
X013035Y004772D01*
X013028Y004788D01*
X013024Y004805D01*
X013022Y004822D01*
X013022Y004972D01*
X013072Y005022D01*
X013072Y006922D01*
X013022Y006972D01*
X013022Y007122D01*
X013024Y007139D01*
X013028Y007156D01*
X013035Y007172D01*
X013045Y007186D01*
X013058Y007199D01*
X013072Y007209D01*
X013088Y007216D01*
X013105Y007220D01*
X013122Y007222D01*
X013822Y007222D01*
X013839Y007220D01*
X013856Y007216D01*
X013872Y007209D01*
X013886Y007199D01*
X013899Y007186D01*
X013909Y007172D01*
X013916Y007156D01*
X013920Y007139D01*
X013922Y007122D01*
X012922Y007122D02*
X012922Y006972D01*
X012872Y006922D01*
X012872Y005022D01*
X012922Y004972D01*
X012922Y004822D01*
X012920Y004805D01*
X012916Y004788D01*
X012909Y004772D01*
X012899Y004758D01*
X012886Y004745D01*
X012872Y004735D01*
X012856Y004728D01*
X012839Y004724D01*
X012822Y004722D01*
X012122Y004722D01*
X012105Y004724D01*
X012088Y004728D01*
X012072Y004735D01*
X012058Y004745D01*
X012045Y004758D01*
X012035Y004772D01*
X012028Y004788D01*
X012024Y004805D01*
X012022Y004822D01*
X012022Y004972D01*
X012072Y005022D01*
X012072Y006922D01*
X012022Y006972D01*
X012022Y007122D01*
X012024Y007139D01*
X012028Y007156D01*
X012035Y007172D01*
X012045Y007186D01*
X012058Y007199D01*
X012072Y007209D01*
X012088Y007216D01*
X012105Y007220D01*
X012122Y007222D01*
X012822Y007222D01*
X012839Y007220D01*
X012856Y007216D01*
X012872Y007209D01*
X012886Y007199D01*
X012899Y007186D01*
X012909Y007172D01*
X012916Y007156D01*
X012920Y007139D01*
X012922Y007122D01*
X011722Y006772D02*
X010722Y006772D01*
X010722Y005172D01*
X011722Y005172D01*
X011722Y006772D01*
X011472Y006372D02*
X011222Y005972D01*
X011472Y005972D01*
X011222Y005972D02*
X010972Y005972D01*
X011222Y005972D02*
X010972Y006372D01*
X011472Y006372D01*
X011222Y006572D02*
X011222Y005972D01*
X011222Y005722D01*
X010472Y005172D02*
X009472Y005172D01*
X009472Y006772D01*
X010472Y006772D01*
X010472Y005172D01*
X009972Y005722D02*
X009972Y005972D01*
X010222Y005972D01*
X009972Y005972D02*
X009722Y006372D01*
X010222Y006372D01*
X009972Y005972D01*
X009722Y005972D01*
X009972Y005972D02*
X009972Y006572D01*
X019375Y009814D02*
X019375Y010314D01*
X019625Y010564D01*
X020125Y010564D01*
X020375Y010314D01*
X020625Y010564D01*
X021125Y010564D01*
X021375Y010314D01*
X021625Y010564D01*
X022125Y010564D01*
X022375Y010314D01*
X022625Y010564D01*
X023125Y010564D01*
X023375Y010314D01*
X023625Y010564D01*
X024125Y010564D01*
X024375Y010314D01*
X024375Y009814D01*
X024125Y009564D01*
X023625Y009564D01*
X023375Y009814D01*
X023125Y009564D01*
X022625Y009564D01*
X022375Y009814D01*
X022125Y009564D01*
X021625Y009564D01*
X021375Y009814D01*
X021125Y009564D01*
X020625Y009564D01*
X020375Y009814D01*
X020125Y009564D01*
X019625Y009564D01*
X019375Y009814D01*
X009322Y024722D02*
X008622Y024722D01*
X008605Y024724D01*
X008588Y024728D01*
X008572Y024735D01*
X008558Y024745D01*
X008545Y024758D01*
X008535Y024772D01*
X008528Y024788D01*
X008524Y024805D01*
X008522Y024822D01*
X008522Y024972D01*
X008572Y025022D01*
X008572Y026922D01*
X008522Y026972D01*
X008522Y027122D01*
X008524Y027139D01*
X008528Y027156D01*
X008535Y027172D01*
X008545Y027186D01*
X008558Y027199D01*
X008572Y027209D01*
X008588Y027216D01*
X008605Y027220D01*
X008622Y027222D01*
X009322Y027222D01*
X009339Y027220D01*
X009356Y027216D01*
X009372Y027209D01*
X009386Y027199D01*
X009399Y027186D01*
X009409Y027172D01*
X009416Y027156D01*
X009420Y027139D01*
X009422Y027122D01*
X009422Y026972D01*
X009372Y026922D01*
X009372Y025022D01*
X009422Y024972D01*
X009422Y024822D01*
X009420Y024805D01*
X009416Y024788D01*
X009409Y024772D01*
X009399Y024758D01*
X009386Y024745D01*
X009372Y024735D01*
X009356Y024728D01*
X009339Y024724D01*
X009322Y024722D01*
X008422Y024822D02*
X008422Y024972D01*
X008372Y025022D01*
X008372Y026922D01*
X008422Y026972D01*
X008422Y027122D01*
X008420Y027139D01*
X008416Y027156D01*
X008409Y027172D01*
X008399Y027186D01*
X008386Y027199D01*
X008372Y027209D01*
X008356Y027216D01*
X008339Y027220D01*
X008322Y027222D01*
X007622Y027222D01*
X007605Y027220D01*
X007588Y027216D01*
X007572Y027209D01*
X007558Y027199D01*
X007545Y027186D01*
X007535Y027172D01*
X007528Y027156D01*
X007524Y027139D01*
X007522Y027122D01*
X007522Y026972D01*
X007572Y026922D01*
X007572Y025022D01*
X007522Y024972D01*
X007522Y024822D01*
X007524Y024805D01*
X007528Y024788D01*
X007535Y024772D01*
X007545Y024758D01*
X007558Y024745D01*
X007572Y024735D01*
X007588Y024728D01*
X007605Y024724D01*
X007622Y024722D01*
X008322Y024722D01*
X008339Y024724D01*
X008356Y024728D01*
X008372Y024735D01*
X008386Y024745D01*
X008399Y024758D01*
X008409Y024772D01*
X008416Y024788D01*
X008420Y024805D01*
X008422Y024822D01*
X007422Y024822D02*
X007422Y024972D01*
X007372Y025022D01*
X007372Y026922D01*
X007422Y026972D01*
X007422Y027122D01*
X007420Y027139D01*
X007416Y027156D01*
X007409Y027172D01*
X007399Y027186D01*
X007386Y027199D01*
X007372Y027209D01*
X007356Y027216D01*
X007339Y027220D01*
X007322Y027222D01*
X006622Y027222D01*
X006605Y027220D01*
X006588Y027216D01*
X006572Y027209D01*
X006558Y027199D01*
X006545Y027186D01*
X006535Y027172D01*
X006528Y027156D01*
X006524Y027139D01*
X006522Y027122D01*
X006522Y026972D01*
X006572Y026922D01*
X006572Y025022D01*
X006522Y024972D01*
X006522Y024822D01*
X006524Y024805D01*
X006528Y024788D01*
X006535Y024772D01*
X006545Y024758D01*
X006558Y024745D01*
X006572Y024735D01*
X006588Y024728D01*
X006605Y024724D01*
X006622Y024722D01*
X007322Y024722D01*
X007339Y024724D01*
X007356Y024728D01*
X007372Y024735D01*
X007386Y024745D01*
X007399Y024758D01*
X007409Y024772D01*
X007416Y024788D01*
X007420Y024805D01*
X007422Y024822D01*
X006422Y024822D02*
X006422Y024972D01*
X006372Y025022D01*
X006372Y026922D01*
X006422Y026972D01*
X006422Y027122D01*
X006420Y027139D01*
X006416Y027156D01*
X006409Y027172D01*
X006399Y027186D01*
X006386Y027199D01*
X006372Y027209D01*
X006356Y027216D01*
X006339Y027220D01*
X006322Y027222D01*
X005622Y027222D01*
X005605Y027220D01*
X005588Y027216D01*
X005572Y027209D01*
X005558Y027199D01*
X005545Y027186D01*
X005535Y027172D01*
X005528Y027156D01*
X005524Y027139D01*
X005522Y027122D01*
X005522Y026972D01*
X005572Y026922D01*
X005572Y025022D01*
X005522Y024972D01*
X005522Y024822D01*
X005524Y024805D01*
X005528Y024788D01*
X005535Y024772D01*
X005545Y024758D01*
X005558Y024745D01*
X005572Y024735D01*
X005588Y024728D01*
X005605Y024724D01*
X005622Y024722D01*
X006322Y024722D01*
X006339Y024724D01*
X006356Y024728D01*
X006372Y024735D01*
X006386Y024745D01*
X006399Y024758D01*
X006409Y024772D01*
X006416Y024788D01*
X006420Y024805D01*
X006422Y024822D01*
X005422Y024822D02*
X005422Y024972D01*
X005372Y025022D01*
X005372Y026922D01*
X005422Y026972D01*
X005422Y027122D01*
X005420Y027139D01*
X005416Y027156D01*
X005409Y027172D01*
X005399Y027186D01*
X005386Y027199D01*
X005372Y027209D01*
X005356Y027216D01*
X005339Y027220D01*
X005322Y027222D01*
X004622Y027222D01*
X004605Y027220D01*
X004588Y027216D01*
X004572Y027209D01*
X004558Y027199D01*
X004545Y027186D01*
X004535Y027172D01*
X004528Y027156D01*
X004524Y027139D01*
X004522Y027122D01*
X004522Y026972D01*
X004572Y026922D01*
X004572Y025022D01*
X004522Y024972D01*
X004522Y024822D01*
X004524Y024805D01*
X004528Y024788D01*
X004535Y024772D01*
X004545Y024758D01*
X004558Y024745D01*
X004572Y024735D01*
X004588Y024728D01*
X004605Y024724D01*
X004622Y024722D01*
X005322Y024722D01*
X005339Y024724D01*
X005356Y024728D01*
X005372Y024735D01*
X005386Y024745D01*
X005399Y024758D01*
X005409Y024772D01*
X005416Y024788D01*
X005420Y024805D01*
X005422Y024822D01*
X003522Y028572D02*
X003522Y028872D01*
X003672Y028722D02*
X003372Y028722D01*
X001122Y028722D02*
X001124Y028795D01*
X001130Y028868D01*
X001140Y028940D01*
X001154Y029012D01*
X001171Y029083D01*
X001193Y029153D01*
X001218Y029222D01*
X001247Y029289D01*
X001279Y029354D01*
X001315Y029418D01*
X001355Y029480D01*
X001397Y029539D01*
X001443Y029596D01*
X001492Y029650D01*
X001544Y029702D01*
X001598Y029751D01*
X001655Y029797D01*
X001714Y029839D01*
X001776Y029879D01*
X001840Y029915D01*
X001905Y029947D01*
X001972Y029976D01*
X002041Y030001D01*
X002111Y030023D01*
X002182Y030040D01*
X002254Y030054D01*
X002326Y030064D01*
X002399Y030070D01*
X002472Y030072D01*
X002545Y030070D01*
X002618Y030064D01*
X002690Y030054D01*
X002762Y030040D01*
X002833Y030023D01*
X002903Y030001D01*
X002972Y029976D01*
X003039Y029947D01*
X003104Y029915D01*
X003168Y029879D01*
X003230Y029839D01*
X003289Y029797D01*
X003346Y029751D01*
X003400Y029702D01*
X003452Y029650D01*
X003501Y029596D01*
X003547Y029539D01*
X003589Y029480D01*
X003629Y029418D01*
X003665Y029354D01*
X003697Y029289D01*
X003726Y029222D01*
X003751Y029153D01*
X003773Y029083D01*
X003790Y029012D01*
X003804Y028940D01*
X003814Y028868D01*
X003820Y028795D01*
X003822Y028722D01*
X003820Y028649D01*
X003814Y028576D01*
X003804Y028504D01*
X003790Y028432D01*
X003773Y028361D01*
X003751Y028291D01*
X003726Y028222D01*
X003697Y028155D01*
X003665Y028090D01*
X003629Y028026D01*
X003589Y027964D01*
X003547Y027905D01*
X003501Y027848D01*
X003452Y027794D01*
X003400Y027742D01*
X003346Y027693D01*
X003289Y027647D01*
X003230Y027605D01*
X003168Y027565D01*
X003104Y027529D01*
X003039Y027497D01*
X002972Y027468D01*
X002903Y027443D01*
X002833Y027421D01*
X002762Y027404D01*
X002690Y027390D01*
X002618Y027380D01*
X002545Y027374D01*
X002472Y027372D01*
X002399Y027374D01*
X002326Y027380D01*
X002254Y027390D01*
X002182Y027404D01*
X002111Y027421D01*
X002041Y027443D01*
X001972Y027468D01*
X001905Y027497D01*
X001840Y027529D01*
X001776Y027565D01*
X001714Y027605D01*
X001655Y027647D01*
X001598Y027693D01*
X001544Y027742D01*
X001492Y027794D01*
X001443Y027848D01*
X001397Y027905D01*
X001355Y027964D01*
X001315Y028026D01*
X001279Y028090D01*
X001247Y028155D01*
X001218Y028222D01*
X001193Y028291D01*
X001171Y028361D01*
X001154Y028432D01*
X001140Y028504D01*
X001130Y028576D01*
X001124Y028649D01*
X001122Y028722D01*
D13*
X002101Y026847D02*
X002026Y026772D01*
X002026Y026472D01*
X002101Y026397D01*
X002251Y026397D01*
X002326Y026472D01*
X002486Y026472D02*
X002561Y026397D01*
X002711Y026397D01*
X002787Y026472D01*
X002787Y026547D01*
X002711Y026622D01*
X002636Y026622D01*
X002711Y026622D02*
X002787Y026697D01*
X002787Y026772D01*
X002711Y026847D01*
X002561Y026847D01*
X002486Y026772D01*
X002326Y026772D02*
X002251Y026847D01*
X002101Y026847D01*
X004646Y028697D02*
X004646Y028922D01*
X004721Y028997D01*
X004872Y028997D01*
X004947Y028922D01*
X004947Y028697D01*
X005097Y028697D02*
X004646Y028697D01*
X004947Y028847D02*
X005097Y028997D01*
X005097Y029157D02*
X005097Y029457D01*
X005097Y029307D02*
X004646Y029307D01*
X004796Y029157D01*
X004646Y029617D02*
X004646Y029918D01*
X004721Y029918D01*
X005022Y029617D01*
X005097Y029617D01*
X005846Y029787D02*
X005921Y029636D01*
X006072Y029486D01*
X006072Y029711D01*
X006147Y029787D01*
X006222Y029787D01*
X006297Y029711D01*
X006297Y029561D01*
X006222Y029486D01*
X006072Y029486D01*
X006297Y029326D02*
X006297Y029026D01*
X006297Y029176D02*
X005846Y029176D01*
X005996Y029026D01*
X005921Y028866D02*
X006072Y028866D01*
X006147Y028791D01*
X006147Y028566D01*
X006147Y028716D02*
X006297Y028866D01*
X006297Y028566D02*
X005846Y028566D01*
X005846Y028791D01*
X005921Y028866D01*
X006846Y028791D02*
X006921Y028866D01*
X007072Y028866D01*
X007147Y028791D01*
X007147Y028566D01*
X007147Y028716D02*
X007297Y028866D01*
X007297Y029026D02*
X007297Y029326D01*
X007297Y029176D02*
X006846Y029176D01*
X006996Y029026D01*
X006846Y028791D02*
X006846Y028566D01*
X007297Y028566D01*
X007846Y028566D02*
X007846Y028791D01*
X007921Y028866D01*
X008072Y028866D01*
X008147Y028791D01*
X008147Y028566D01*
X008147Y028716D02*
X008297Y028866D01*
X008297Y029026D02*
X008297Y029326D01*
X008297Y029176D02*
X007846Y029176D01*
X007996Y029026D01*
X007921Y029486D02*
X007846Y029561D01*
X007846Y029711D01*
X007921Y029787D01*
X007996Y029787D01*
X008072Y029711D01*
X008147Y029787D01*
X008222Y029787D01*
X008297Y029711D01*
X008297Y029561D01*
X008222Y029486D01*
X008072Y029636D02*
X008072Y029711D01*
X008646Y029843D02*
X008872Y029617D01*
X008872Y029918D01*
X009097Y029843D02*
X008646Y029843D01*
X008646Y029307D02*
X009097Y029307D01*
X009097Y029157D02*
X009097Y029457D01*
X008796Y029157D02*
X008646Y029307D01*
X008721Y028997D02*
X008872Y028997D01*
X008947Y028922D01*
X008947Y028697D01*
X009097Y028697D02*
X008646Y028697D01*
X008646Y028922D01*
X008721Y028997D01*
X008947Y028847D02*
X009097Y028997D01*
X008297Y028566D02*
X007846Y028566D01*
X007222Y029486D02*
X007297Y029561D01*
X007297Y029711D01*
X007222Y029787D01*
X007072Y029787D01*
X006996Y029711D01*
X006996Y029636D01*
X007072Y029486D01*
X006846Y029486D01*
X006846Y029787D01*
X007297Y032347D02*
X007597Y032347D01*
X007447Y032347D02*
X007447Y032797D01*
X007297Y032647D01*
X008497Y032647D02*
X008797Y032647D01*
X008957Y032722D02*
X008957Y033022D01*
X009032Y033097D01*
X009182Y033097D01*
X009257Y033022D01*
X009417Y033097D02*
X009643Y033097D01*
X009718Y033022D01*
X009718Y032722D01*
X009643Y032647D01*
X009417Y032647D01*
X009417Y033097D01*
X009257Y032722D02*
X009182Y032647D01*
X009032Y032647D01*
X008957Y032722D01*
X008497Y032647D02*
X008497Y033097D01*
X009878Y032572D02*
X010178Y032572D01*
X010338Y032722D02*
X010413Y032647D01*
X010563Y032647D01*
X010638Y032722D01*
X010799Y032647D02*
X010799Y033097D01*
X011099Y032647D01*
X011099Y033097D01*
X010638Y033022D02*
X010563Y033097D01*
X010413Y033097D01*
X010338Y033022D01*
X010338Y032722D01*
X019656Y028361D02*
X019656Y028211D01*
X019731Y028136D01*
X019731Y027976D02*
X019656Y027901D01*
X019656Y027751D01*
X019731Y027676D01*
X020032Y027676D01*
X020107Y027751D01*
X020107Y027901D01*
X020032Y027976D01*
X020107Y028136D02*
X019806Y028437D01*
X019731Y028437D01*
X019656Y028361D01*
X020107Y028437D02*
X020107Y028136D01*
X020107Y027519D02*
X020107Y027369D01*
X020107Y027444D02*
X019656Y027444D01*
X019656Y027369D02*
X019656Y027519D01*
X020346Y026832D02*
X020346Y026682D01*
X020421Y026607D01*
X020421Y026447D02*
X020346Y026372D01*
X020346Y026222D01*
X020421Y026147D01*
X020722Y026147D01*
X020797Y026222D01*
X020797Y026372D01*
X020722Y026447D01*
X020797Y026607D02*
X020496Y026907D01*
X020421Y026907D01*
X020346Y026832D01*
X020797Y026907D02*
X020797Y026607D01*
X020921Y023787D02*
X020996Y023787D01*
X021072Y023711D01*
X021147Y023787D01*
X021222Y023787D01*
X021297Y023711D01*
X021297Y023561D01*
X021222Y023486D01*
X021297Y023326D02*
X021147Y023176D01*
X021147Y023251D02*
X021147Y023026D01*
X021297Y023026D02*
X020846Y023026D01*
X020846Y023251D01*
X020921Y023326D01*
X021072Y023326D01*
X021147Y023251D01*
X020921Y023486D02*
X020846Y023561D01*
X020846Y023711D01*
X020921Y023787D01*
X021072Y023711D02*
X021072Y023636D01*
X020347Y023636D02*
X019896Y023636D01*
X020046Y023486D01*
X019971Y023326D02*
X020122Y023326D01*
X020197Y023251D01*
X020197Y023026D01*
X020347Y023026D02*
X019896Y023026D01*
X019896Y023251D01*
X019971Y023326D01*
X020197Y023176D02*
X020347Y023326D01*
X020347Y023486D02*
X020347Y023787D01*
X021846Y023711D02*
X022072Y023486D01*
X022072Y023787D01*
X022297Y023711D02*
X021846Y023711D01*
X021921Y023326D02*
X022072Y023326D01*
X022147Y023251D01*
X022147Y023026D01*
X022297Y023026D02*
X021846Y023026D01*
X021846Y023251D01*
X021921Y023326D01*
X022147Y023176D02*
X022297Y023326D01*
X025596Y023272D02*
X025596Y023047D01*
X026047Y023047D01*
X025897Y023047D02*
X025897Y023272D01*
X025822Y023347D01*
X025671Y023347D01*
X025596Y023272D01*
X025596Y023507D02*
X025822Y023507D01*
X025746Y023657D01*
X025746Y023732D01*
X025822Y023807D01*
X025972Y023807D01*
X026047Y023732D01*
X026047Y023582D01*
X025972Y023507D01*
X026047Y023347D02*
X025897Y023197D01*
X025596Y023507D02*
X025596Y023807D01*
X026546Y023807D02*
X026621Y023657D01*
X026772Y023507D01*
X026772Y023732D01*
X026847Y023807D01*
X026922Y023807D01*
X026997Y023732D01*
X026997Y023582D01*
X026922Y023507D01*
X026772Y023507D01*
X026772Y023347D02*
X026847Y023272D01*
X026847Y023047D01*
X026997Y023047D02*
X026546Y023047D01*
X026546Y023272D01*
X026621Y023347D01*
X026772Y023347D01*
X026847Y023197D02*
X026997Y023347D01*
X027596Y023272D02*
X027596Y023047D01*
X028047Y023047D01*
X027897Y023047D02*
X027897Y023272D01*
X027822Y023347D01*
X027671Y023347D01*
X027596Y023272D01*
X027596Y023507D02*
X027596Y023807D01*
X027671Y023807D01*
X027972Y023507D01*
X028047Y023507D01*
X028047Y023347D02*
X027897Y023197D01*
X028596Y023222D02*
X028596Y022997D01*
X029047Y022997D01*
X028897Y022997D02*
X028897Y023222D01*
X028822Y023297D01*
X028671Y023297D01*
X028596Y023222D01*
X028671Y023457D02*
X028746Y023457D01*
X028822Y023532D01*
X028822Y023682D01*
X028897Y023757D01*
X028972Y023757D01*
X029047Y023682D01*
X029047Y023532D01*
X028972Y023457D01*
X028897Y023457D01*
X028822Y023532D01*
X028822Y023682D02*
X028746Y023757D01*
X028671Y023757D01*
X028596Y023682D01*
X028596Y023532D01*
X028671Y023457D01*
X028897Y023147D02*
X029047Y023297D01*
X029846Y023251D02*
X029846Y023026D01*
X030297Y023026D01*
X030147Y023026D02*
X030147Y023251D01*
X030072Y023326D01*
X029921Y023326D01*
X029846Y023251D01*
X029921Y023486D02*
X029846Y023561D01*
X029846Y023711D01*
X029921Y023787D01*
X029996Y023787D01*
X030297Y023486D01*
X030297Y023787D01*
X030297Y023326D02*
X030147Y023176D01*
X023797Y019907D02*
X023797Y019607D01*
X023797Y019757D02*
X023346Y019757D01*
X023496Y019607D01*
X023421Y019447D02*
X023346Y019372D01*
X023346Y019222D01*
X023421Y019147D01*
X023722Y019147D01*
X023797Y019222D01*
X023797Y019372D01*
X023722Y019447D01*
X020202Y015314D02*
X020277Y015239D01*
X020277Y015089D01*
X020202Y015014D01*
X020202Y014854D02*
X020277Y014779D01*
X020277Y014629D01*
X020202Y014554D01*
X019901Y014554D01*
X019826Y014629D01*
X019826Y014779D01*
X019901Y014854D01*
X019901Y015014D02*
X019826Y015089D01*
X019826Y015239D01*
X019901Y015314D01*
X019976Y015314D01*
X020052Y015239D01*
X020127Y015314D01*
X020202Y015314D01*
X020052Y015239D02*
X020052Y015164D01*
X020277Y014397D02*
X020277Y014247D01*
X020277Y014322D02*
X019826Y014322D01*
X019826Y014247D02*
X019826Y014397D01*
X023690Y011039D02*
X023840Y011190D01*
X023840Y010739D01*
X023690Y010739D02*
X023990Y010739D01*
X024709Y010240D02*
X024709Y009789D01*
X024709Y009939D02*
X025009Y010240D01*
X025169Y010240D02*
X025169Y009789D01*
X025469Y009789D01*
X025319Y010014D02*
X025169Y010014D01*
X025169Y010240D02*
X025469Y010240D01*
X025629Y010240D02*
X025629Y010165D01*
X025780Y010014D01*
X025780Y009789D01*
X025780Y010014D02*
X025930Y010165D01*
X025930Y010240D01*
X026090Y010240D02*
X026315Y010240D01*
X026390Y010165D01*
X026390Y010089D01*
X026315Y010014D01*
X026090Y010014D01*
X026090Y009789D02*
X026315Y009789D01*
X026390Y009864D01*
X026390Y009939D01*
X026315Y010014D01*
X026090Y009789D02*
X026090Y010240D01*
X025009Y009789D02*
X024784Y010014D01*
X023307Y008297D02*
X023007Y008297D01*
X023007Y008072D01*
X023157Y008147D01*
X023232Y008147D01*
X023307Y008072D01*
X023307Y007922D01*
X023232Y007847D01*
X023082Y007847D01*
X023007Y007922D01*
X022847Y007922D02*
X022772Y007847D01*
X022622Y007847D01*
X022547Y007922D01*
X022547Y008222D01*
X022622Y008297D01*
X022772Y008297D01*
X022847Y008222D01*
X023601Y005597D02*
X023526Y005522D01*
X023526Y005222D01*
X023601Y005147D01*
X023751Y005147D01*
X023826Y005222D01*
X023986Y005372D02*
X024287Y005372D01*
X024211Y005147D02*
X024211Y005597D01*
X023986Y005372D01*
X023826Y005522D02*
X023751Y005597D01*
X023601Y005597D01*
X019990Y009014D02*
X019915Y008939D01*
X019765Y008939D01*
X019690Y009014D01*
X019690Y009164D02*
X019840Y009239D01*
X019915Y009239D01*
X019990Y009164D01*
X019990Y009014D01*
X019690Y009164D02*
X019690Y009390D01*
X019990Y009390D01*
X017797Y003187D02*
X017797Y002886D01*
X017797Y003036D02*
X017346Y003036D01*
X017496Y002886D01*
X017797Y002726D02*
X017797Y002426D01*
X017797Y002576D02*
X017346Y002576D01*
X017496Y002426D01*
X017421Y002266D02*
X017572Y002266D01*
X017647Y002191D01*
X017647Y001966D01*
X017797Y001966D02*
X017346Y001966D01*
X017346Y002191D01*
X017421Y002266D01*
X017647Y002116D02*
X017797Y002266D01*
X016797Y002376D02*
X016647Y002226D01*
X016647Y002301D02*
X016647Y002076D01*
X016797Y002076D02*
X016346Y002076D01*
X016346Y002301D01*
X016421Y002376D01*
X016572Y002376D01*
X016647Y002301D01*
X016722Y002536D02*
X016797Y002611D01*
X016797Y002761D01*
X016722Y002837D01*
X016421Y002837D01*
X016346Y002761D01*
X016346Y002611D01*
X016421Y002536D01*
X016496Y002536D01*
X016572Y002611D01*
X016572Y002837D01*
X015647Y002857D02*
X015647Y002557D01*
X015647Y002707D02*
X015196Y002707D01*
X015346Y002557D01*
X015271Y002397D02*
X015422Y002397D01*
X015497Y002322D01*
X015497Y002097D01*
X015647Y002097D02*
X015196Y002097D01*
X015196Y002322D01*
X015271Y002397D01*
X015497Y002247D02*
X015647Y002397D01*
X015647Y003017D02*
X015346Y003318D01*
X015271Y003318D01*
X015196Y003243D01*
X015196Y003092D01*
X015271Y003017D01*
X015647Y003017D02*
X015647Y003318D01*
X014647Y003243D02*
X014647Y003092D01*
X014572Y003017D01*
X014271Y003318D01*
X014572Y003318D01*
X014647Y003243D01*
X014572Y003017D02*
X014271Y003017D01*
X014196Y003092D01*
X014196Y003243D01*
X014271Y003318D01*
X013797Y003161D02*
X013797Y003011D01*
X013722Y002936D01*
X013421Y003237D01*
X013722Y003237D01*
X013797Y003161D01*
X013722Y002936D02*
X013421Y002936D01*
X013346Y003011D01*
X013346Y003161D01*
X013421Y003237D01*
X013421Y002776D02*
X013346Y002701D01*
X013346Y002551D01*
X013421Y002476D01*
X013421Y002316D02*
X013572Y002316D01*
X013647Y002241D01*
X013647Y002016D01*
X013797Y002016D02*
X013346Y002016D01*
X013346Y002241D01*
X013421Y002316D01*
X013647Y002166D02*
X013797Y002316D01*
X013797Y002476D02*
X013496Y002776D01*
X013421Y002776D01*
X013797Y002776D02*
X013797Y002476D01*
X014196Y002322D02*
X014271Y002397D01*
X014422Y002397D01*
X014497Y002322D01*
X014497Y002097D01*
X014647Y002097D02*
X014196Y002097D01*
X014196Y002322D01*
X014346Y002557D02*
X014196Y002707D01*
X014647Y002707D01*
X014647Y002557D02*
X014647Y002857D01*
X014647Y002397D02*
X014497Y002247D01*
X012747Y002316D02*
X012597Y002166D01*
X012597Y002241D02*
X012597Y002016D01*
X012747Y002016D02*
X012296Y002016D01*
X012296Y002241D01*
X012371Y002316D01*
X012522Y002316D01*
X012597Y002241D01*
X012747Y002476D02*
X012446Y002776D01*
X012371Y002776D01*
X012296Y002701D01*
X012296Y002551D01*
X012371Y002476D01*
X012747Y002476D02*
X012747Y002776D01*
X012747Y002936D02*
X012446Y003237D01*
X012371Y003237D01*
X012296Y003161D01*
X012296Y003011D01*
X012371Y002936D01*
X012747Y002936D02*
X012747Y003237D01*
X011247Y003207D02*
X010796Y003207D01*
X010946Y003057D01*
X010871Y002897D02*
X010796Y002822D01*
X010796Y002597D01*
X011247Y002597D01*
X011247Y002822D01*
X011172Y002897D01*
X010871Y002897D01*
X011247Y003057D02*
X011247Y003357D01*
X009997Y003357D02*
X009997Y003057D01*
X009696Y003357D01*
X009621Y003357D01*
X009546Y003282D01*
X009546Y003132D01*
X009621Y003057D01*
X009621Y002897D02*
X009546Y002822D01*
X009546Y002597D01*
X009997Y002597D01*
X009997Y002822D01*
X009922Y002897D01*
X009621Y002897D01*
X008561Y016897D02*
X008411Y016897D01*
X008336Y016972D01*
X008176Y016972D02*
X008101Y016897D01*
X007951Y016897D01*
X007876Y016972D01*
X007876Y017272D01*
X007951Y017347D01*
X008101Y017347D01*
X008176Y017272D01*
X008176Y016972D01*
X008176Y016897D02*
X008026Y017047D01*
X008336Y017272D02*
X008411Y017347D01*
X008561Y017347D01*
X008637Y017272D01*
X008637Y017197D01*
X008561Y017122D01*
X008637Y017047D01*
X008637Y016972D01*
X008561Y016897D01*
X008561Y017122D02*
X008486Y017122D01*
X007768Y019160D02*
X007795Y019216D01*
X007826Y019270D01*
X007860Y019322D01*
X007897Y019372D01*
X009547Y019372D01*
X009274Y018772D02*
X009169Y018772D01*
X009672Y019169D02*
X009645Y019223D01*
X009615Y019274D01*
X009582Y019324D01*
X009547Y019372D01*
X009672Y018275D02*
X009643Y018218D01*
X009610Y018162D01*
X009575Y018109D01*
X009535Y018058D01*
X009493Y018010D01*
X009448Y017964D01*
X009401Y017921D01*
X009351Y017881D01*
X009298Y017844D01*
X009243Y017811D01*
X009187Y017780D01*
X009128Y017754D01*
X009068Y017731D01*
X009007Y017711D01*
X008945Y017696D01*
X008882Y017684D01*
X008818Y017676D01*
X008754Y017672D01*
X008690Y017672D01*
X008626Y017676D01*
X008562Y017684D01*
X008499Y017696D01*
X008437Y017711D01*
X008376Y017731D01*
X008316Y017754D01*
X008257Y017780D01*
X008201Y017811D01*
X008146Y017844D01*
X008093Y017881D01*
X008043Y017921D01*
X007996Y017964D01*
X007951Y018010D01*
X007909Y018058D01*
X007869Y018109D01*
X007834Y018162D01*
X007801Y018218D01*
X007772Y018275D01*
X008169Y018772D02*
X008274Y018772D01*
X008301Y020547D02*
X008151Y020547D01*
X008076Y020622D01*
X008076Y020922D01*
X008151Y020997D01*
X008301Y020997D01*
X008376Y020922D01*
X008376Y020622D01*
X008301Y020547D01*
X008376Y020547D02*
X008226Y020697D01*
X008536Y020772D02*
X008837Y020772D01*
X008761Y020547D02*
X008761Y020997D01*
X008536Y020772D01*
X008524Y022272D02*
X008419Y022272D01*
X008922Y022669D02*
X008895Y022723D01*
X008865Y022774D01*
X008832Y022824D01*
X008797Y022872D01*
X007147Y022872D01*
X007419Y022272D02*
X007524Y022272D01*
X007018Y022660D02*
X007045Y022716D01*
X007076Y022770D01*
X007110Y022822D01*
X007147Y022872D01*
X007022Y021775D02*
X007051Y021718D01*
X007084Y021662D01*
X007119Y021609D01*
X007159Y021558D01*
X007201Y021510D01*
X007246Y021464D01*
X007293Y021421D01*
X007343Y021381D01*
X007396Y021344D01*
X007451Y021311D01*
X007507Y021280D01*
X007566Y021254D01*
X007626Y021231D01*
X007687Y021211D01*
X007749Y021196D01*
X007812Y021184D01*
X007876Y021176D01*
X007940Y021172D01*
X008004Y021172D01*
X008068Y021176D01*
X008132Y021184D01*
X008195Y021196D01*
X008257Y021211D01*
X008318Y021231D01*
X008378Y021254D01*
X008437Y021280D01*
X008493Y021311D01*
X008548Y021344D01*
X008601Y021381D01*
X008651Y021421D01*
X008698Y021464D01*
X008743Y021510D01*
X008785Y021558D01*
X008825Y021609D01*
X008860Y021662D01*
X008893Y021718D01*
X008922Y021775D01*
X011147Y019372D02*
X012797Y019372D01*
X012524Y018772D02*
X012419Y018772D01*
X012922Y019169D02*
X012895Y019223D01*
X012865Y019274D01*
X012832Y019324D01*
X012797Y019372D01*
X012922Y018275D02*
X012893Y018218D01*
X012860Y018162D01*
X012825Y018109D01*
X012785Y018058D01*
X012743Y018010D01*
X012698Y017964D01*
X012651Y017921D01*
X012601Y017881D01*
X012548Y017844D01*
X012493Y017811D01*
X012437Y017780D01*
X012378Y017754D01*
X012318Y017731D01*
X012257Y017711D01*
X012195Y017696D01*
X012132Y017684D01*
X012068Y017676D01*
X012004Y017672D01*
X011940Y017672D01*
X011876Y017676D01*
X011812Y017684D01*
X011749Y017696D01*
X011687Y017711D01*
X011626Y017731D01*
X011566Y017754D01*
X011507Y017780D01*
X011451Y017811D01*
X011396Y017844D01*
X011343Y017881D01*
X011293Y017921D01*
X011246Y017964D01*
X011201Y018010D01*
X011159Y018058D01*
X011119Y018109D01*
X011084Y018162D01*
X011051Y018218D01*
X011022Y018275D01*
X011419Y018772D02*
X011524Y018772D01*
X011018Y019160D02*
X011045Y019216D01*
X011076Y019270D01*
X011110Y019322D01*
X011147Y019372D01*
X011151Y017347D02*
X011301Y017347D01*
X011376Y017272D01*
X011376Y016972D01*
X011301Y016897D01*
X011151Y016897D01*
X011076Y016972D01*
X011076Y017272D01*
X011151Y017347D01*
X011226Y017047D02*
X011376Y016897D01*
X011536Y016897D02*
X011837Y017197D01*
X011837Y017272D01*
X011761Y017347D01*
X011611Y017347D01*
X011536Y017272D01*
X011536Y016897D02*
X011837Y016897D01*
X005837Y020547D02*
X005536Y020547D01*
X005686Y020547D02*
X005686Y020997D01*
X005536Y020847D01*
X005376Y020922D02*
X005376Y020622D01*
X005301Y020547D01*
X005151Y020547D01*
X005076Y020622D01*
X005076Y020922D01*
X005151Y020997D01*
X005301Y020997D01*
X005376Y020922D01*
X005226Y020697D02*
X005376Y020547D01*
X005922Y022669D02*
X005895Y022723D01*
X005865Y022774D01*
X005832Y022824D01*
X005797Y022872D01*
X004147Y022872D01*
X004419Y022272D02*
X004524Y022272D01*
X004018Y022660D02*
X004045Y022716D01*
X004076Y022770D01*
X004110Y022822D01*
X004147Y022872D01*
X004022Y021775D02*
X004051Y021718D01*
X004084Y021662D01*
X004119Y021609D01*
X004159Y021558D01*
X004201Y021510D01*
X004246Y021464D01*
X004293Y021421D01*
X004343Y021381D01*
X004396Y021344D01*
X004451Y021311D01*
X004507Y021280D01*
X004566Y021254D01*
X004626Y021231D01*
X004687Y021211D01*
X004749Y021196D01*
X004812Y021184D01*
X004876Y021176D01*
X004940Y021172D01*
X005004Y021172D01*
X005068Y021176D01*
X005132Y021184D01*
X005195Y021196D01*
X005257Y021211D01*
X005318Y021231D01*
X005378Y021254D01*
X005437Y021280D01*
X005493Y021311D01*
X005548Y021344D01*
X005601Y021381D01*
X005651Y021421D01*
X005698Y021464D01*
X005743Y021510D01*
X005785Y021558D01*
X005825Y021609D01*
X005860Y021662D01*
X005893Y021718D01*
X005922Y021775D01*
X005524Y022272D02*
X005419Y022272D01*
X013896Y023047D02*
X013896Y023272D01*
X013971Y023347D01*
X014122Y023347D01*
X014197Y023272D01*
X014197Y023047D01*
X014347Y023047D02*
X013896Y023047D01*
X014197Y023197D02*
X014347Y023347D01*
X014347Y023507D02*
X014046Y023807D01*
X013971Y023807D01*
X013896Y023732D01*
X013896Y023582D01*
X013971Y023507D01*
X014347Y023507D02*
X014347Y023807D01*
X014272Y023967D02*
X014347Y024042D01*
X014347Y024193D01*
X014272Y024268D01*
X014197Y024268D01*
X014122Y024193D01*
X014122Y024118D01*
X014122Y024193D02*
X014046Y024268D01*
X013971Y024268D01*
X013896Y024193D01*
X013896Y024042D01*
X013971Y023967D01*
X014896Y024118D02*
X015046Y023967D01*
X015046Y023807D02*
X014971Y023807D01*
X014896Y023732D01*
X014896Y023582D01*
X014971Y023507D01*
X014971Y023347D02*
X015122Y023347D01*
X015197Y023272D01*
X015197Y023047D01*
X015347Y023047D02*
X014896Y023047D01*
X014896Y023272D01*
X014971Y023347D01*
X015197Y023197D02*
X015347Y023347D01*
X015347Y023507D02*
X015046Y023807D01*
X015347Y023807D02*
X015347Y023507D01*
X015347Y023967D02*
X015347Y024268D01*
X015347Y024118D02*
X014896Y024118D01*
X015896Y024193D02*
X015896Y024042D01*
X015971Y023967D01*
X016046Y023967D01*
X016122Y024042D01*
X016122Y024268D01*
X016272Y024268D02*
X015971Y024268D01*
X015896Y024193D01*
X016272Y024268D02*
X016347Y024193D01*
X016347Y024042D01*
X016272Y023967D01*
X016347Y023807D02*
X016347Y023507D01*
X016347Y023657D02*
X015896Y023657D01*
X016046Y023507D01*
X015971Y023347D02*
X016122Y023347D01*
X016197Y023272D01*
X016197Y023047D01*
X016347Y023047D02*
X015896Y023047D01*
X015896Y023272D01*
X015971Y023347D01*
X016197Y023197D02*
X016347Y023347D01*
X016896Y023272D02*
X016896Y023047D01*
X017347Y023047D01*
X017197Y023047D02*
X017197Y023272D01*
X017122Y023347D01*
X016971Y023347D01*
X016896Y023272D01*
X017046Y023507D02*
X016896Y023657D01*
X017347Y023657D01*
X017347Y023507D02*
X017347Y023807D01*
X017272Y023967D02*
X017197Y023967D01*
X017122Y024042D01*
X017122Y024193D01*
X017197Y024268D01*
X017272Y024268D01*
X017347Y024193D01*
X017347Y024042D01*
X017272Y023967D01*
X017122Y024042D02*
X017046Y023967D01*
X016971Y023967D01*
X016896Y024042D01*
X016896Y024193D01*
X016971Y024268D01*
X017046Y024268D01*
X017122Y024193D01*
X017347Y023347D02*
X017197Y023197D01*
X022047Y032347D02*
X022347Y032347D01*
X022197Y032347D02*
X022197Y032797D01*
X022047Y032647D01*
X022507Y032572D02*
X022732Y032572D01*
X022807Y032497D01*
X022807Y032422D01*
X022732Y032347D01*
X022582Y032347D01*
X022507Y032422D01*
X022507Y032572D01*
X022657Y032722D01*
X022807Y032797D01*
X032597Y029447D02*
X032597Y028997D01*
X032897Y028997D01*
X033057Y028997D02*
X033207Y028997D01*
X033132Y028997D02*
X033132Y029297D01*
X033057Y029297D01*
X033132Y029447D02*
X033132Y029522D01*
X033364Y029297D02*
X033514Y029297D01*
X033439Y029372D02*
X033439Y029072D01*
X033514Y028997D01*
X033671Y028997D02*
X033746Y028997D01*
X033746Y029072D01*
X033671Y029072D01*
X033671Y028997D01*
X033901Y029072D02*
X033976Y028997D01*
X034126Y028997D01*
X034201Y029072D01*
X034201Y029147D01*
X034126Y029222D01*
X034051Y029222D01*
X034126Y029222D02*
X034201Y029297D01*
X034201Y029372D01*
X034126Y029447D01*
X033976Y029447D01*
X033901Y029372D01*
X034361Y029447D02*
X034361Y029147D01*
X034511Y028997D01*
X034662Y029147D01*
X034662Y029447D01*
X034153Y017397D02*
X034003Y017397D01*
X033928Y017322D01*
X033928Y017022D01*
X034003Y016947D01*
X034153Y016947D01*
X034228Y017022D01*
X034228Y017172D01*
X034078Y017172D01*
X034228Y017322D02*
X034153Y017397D01*
X033768Y017322D02*
X033768Y017022D01*
X033693Y016947D01*
X033542Y016947D01*
X033467Y017022D01*
X033467Y017322D01*
X033542Y017397D01*
X033693Y017397D01*
X033768Y017322D01*
X033307Y017322D02*
X033307Y017172D01*
X033232Y017097D01*
X033007Y017097D01*
X033157Y017097D02*
X033307Y016947D01*
X033007Y016947D02*
X033007Y017397D01*
X033232Y017397D01*
X033307Y017322D01*
X032847Y017322D02*
X032847Y017172D01*
X032772Y017097D01*
X032547Y017097D01*
X032547Y016947D02*
X032547Y017397D01*
X032772Y017397D01*
X032847Y017322D01*
X031647Y015297D02*
X031647Y014847D01*
X031497Y014847D02*
X031797Y014847D01*
X031497Y015147D02*
X031647Y015297D01*
X035497Y016722D02*
X035572Y016647D01*
X035722Y016647D01*
X035797Y016722D01*
X035797Y016872D01*
X035722Y016947D01*
X035647Y016947D01*
X035497Y016872D01*
X035497Y017097D01*
X035797Y017097D01*
X036572Y011537D02*
X036572Y011236D01*
X036346Y011461D01*
X036797Y011461D01*
X036797Y011076D02*
X036797Y010776D01*
X036496Y011076D01*
X036421Y011076D01*
X036346Y011001D01*
X036346Y010851D01*
X036421Y010776D01*
X036421Y010616D02*
X036572Y010616D01*
X036647Y010541D01*
X036647Y010316D01*
X036647Y010466D02*
X036797Y010616D01*
X036797Y010316D02*
X036346Y010316D01*
X036346Y010541D01*
X036421Y010616D01*
X033772Y010681D02*
X033772Y010531D01*
X033697Y010456D01*
X033697Y010295D02*
X033397Y010295D01*
X033322Y010220D01*
X033322Y009995D01*
X033772Y009995D01*
X033772Y010220D01*
X033697Y010295D01*
X033397Y010456D02*
X033322Y010531D01*
X033322Y010681D01*
X033397Y010756D01*
X033472Y010756D01*
X033547Y010681D01*
X033622Y010756D01*
X033697Y010756D01*
X033772Y010681D01*
X033547Y010681D02*
X033547Y010606D01*
X033847Y008887D02*
X033847Y008586D01*
X033847Y008736D02*
X033396Y008736D01*
X033546Y008586D01*
X033471Y008426D02*
X033396Y008351D01*
X033396Y008201D01*
X033471Y008126D01*
X033772Y008126D01*
X033847Y008201D01*
X033847Y008351D01*
X033772Y008426D01*
X033847Y007969D02*
X033847Y007819D01*
X033847Y007894D02*
X033396Y007894D01*
X033396Y007819D02*
X033396Y007969D01*
X033272Y006722D02*
X033272Y001822D01*
X032922Y001822D01*
X032922Y001222D01*
X033272Y001222D01*
X033272Y000472D01*
X029172Y000472D01*
X029172Y001222D01*
X029522Y001222D01*
X029522Y001822D01*
X029172Y001822D01*
X029172Y006722D01*
X033272Y006722D01*
X030512Y001822D02*
X030514Y001875D01*
X030520Y001928D01*
X030530Y001980D01*
X030544Y002031D01*
X030561Y002081D01*
X030582Y002130D01*
X030607Y002177D01*
X030635Y002222D01*
X030667Y002265D01*
X030702Y002305D01*
X030739Y002342D01*
X030779Y002377D01*
X030822Y002409D01*
X030867Y002437D01*
X030914Y002462D01*
X030963Y002483D01*
X031013Y002500D01*
X031064Y002514D01*
X031116Y002524D01*
X031169Y002530D01*
X031222Y002532D01*
X031275Y002530D01*
X031328Y002524D01*
X031380Y002514D01*
X031431Y002500D01*
X031481Y002483D01*
X031530Y002462D01*
X031577Y002437D01*
X031622Y002409D01*
X031665Y002377D01*
X031705Y002342D01*
X031742Y002305D01*
X031777Y002265D01*
X031809Y002222D01*
X031837Y002177D01*
X031862Y002130D01*
X031883Y002081D01*
X031900Y002031D01*
X031914Y001980D01*
X031924Y001928D01*
X031930Y001875D01*
X031932Y001822D01*
X031930Y001769D01*
X031924Y001716D01*
X031914Y001664D01*
X031900Y001613D01*
X031883Y001563D01*
X031862Y001514D01*
X031837Y001467D01*
X031809Y001422D01*
X031777Y001379D01*
X031742Y001339D01*
X031705Y001302D01*
X031665Y001267D01*
X031622Y001235D01*
X031577Y001207D01*
X031530Y001182D01*
X031481Y001161D01*
X031431Y001144D01*
X031380Y001130D01*
X031328Y001120D01*
X031275Y001114D01*
X031222Y001112D01*
X031169Y001114D01*
X031116Y001120D01*
X031064Y001130D01*
X031013Y001144D01*
X030963Y001161D01*
X030914Y001182D01*
X030867Y001207D01*
X030822Y001235D01*
X030779Y001267D01*
X030739Y001302D01*
X030702Y001339D01*
X030667Y001379D01*
X030635Y001422D01*
X030607Y001467D01*
X030582Y001514D01*
X030561Y001563D01*
X030544Y001613D01*
X030530Y001664D01*
X030520Y001716D01*
X030514Y001769D01*
X030512Y001822D01*
D14*
X024722Y020352D02*
X024472Y020352D01*
X024222Y020352D01*
X024222Y020602D02*
X024472Y020602D01*
X024722Y020602D01*
X021722Y027352D02*
X021472Y027352D01*
X021222Y027352D01*
X021222Y027602D02*
X021472Y027602D01*
X021722Y027602D01*
D15*
X021972Y021892D03*
X020972Y021892D03*
X019972Y021892D03*
X017222Y021892D03*
X016222Y021892D03*
X015222Y021892D03*
X014222Y021892D03*
X014222Y019052D03*
X015222Y019052D03*
X016222Y019052D03*
X017222Y019052D03*
X019972Y019052D03*
X020972Y019052D03*
X021972Y019052D03*
X025972Y019052D03*
X026972Y019052D03*
X027972Y019052D03*
X028972Y019052D03*
X029972Y019052D03*
X029972Y021892D03*
X028972Y021892D03*
X027972Y021892D03*
X026972Y021892D03*
X025972Y021892D03*
X035722Y011892D03*
X035722Y009052D03*
X017472Y007392D03*
X016472Y007392D03*
X015472Y007392D03*
X014472Y007392D03*
X013472Y007392D03*
X012472Y007392D03*
X012472Y004552D03*
X013472Y004552D03*
X014472Y004552D03*
X015472Y004552D03*
X016472Y004552D03*
X017472Y004552D03*
X008972Y024552D03*
X007972Y024552D03*
X006972Y024552D03*
X005972Y024552D03*
X004972Y024552D03*
X004972Y027392D03*
X005972Y027392D03*
X006972Y027392D03*
X007972Y027392D03*
X008972Y027392D03*
D16*
X027707Y031022D03*
X027707Y031422D03*
D17*
X027772Y031422D02*
X027922Y031422D01*
X027942Y031442D01*
X027922Y031022D02*
X027942Y031002D01*
X027922Y031022D02*
X027822Y031022D01*
D18*
X033472Y030572D02*
X033972Y030572D01*
X033722Y030822D02*
X033722Y030322D01*
X034322Y024222D02*
X034822Y024222D01*
D19*
X033022Y006472D02*
X029422Y006472D01*
X029422Y003222D01*
X033022Y003222D01*
X033022Y006472D01*
D20*
X032222Y007947D03*
X031222Y007947D03*
X030222Y007947D03*
D21*
X030222Y007272D03*
X031222Y007272D03*
X032222Y007272D03*
D22*
X034472Y011022D03*
X011222Y005422D03*
X009972Y005422D03*
D23*
X009972Y004797D03*
X011222Y004797D03*
X011222Y007147D03*
X009972Y007147D03*
X034472Y009297D03*
X034472Y011647D03*
M02*
