G75*
G70*
%OFA0B0*%
%FSLAX24Y24*%
%IPPOS*%
%LPD*%
%AMOC8*
5,1,8,0,0,1.08239X$1,22.5*
%
%ADD10C,0.0640*%
%ADD11OC8,0.0640*%
%ADD12C,0.0640*%
%ADD13OC8,0.1000*%
%ADD14OC8,0.1500*%
%ADD15C,0.0760*%
%ADD16C,0.0720*%
%ADD17C,0.0760*%
%ADD18C,0.1000*%
%ADD19C,0.0860*%
%ADD20C,0.0240*%
%ADD21C,0.0636*%
%ADD22C,0.0160*%
%ADD23C,0.0320*%
%ADD24C,0.1660*%
D10*
X009972Y010582D02*
X009972Y011222D01*
X010972Y011222D02*
X010972Y010582D01*
X011972Y010582D02*
X011972Y011222D01*
X012972Y011222D02*
X012972Y010582D01*
X013972Y010582D02*
X013972Y011222D01*
X014972Y011222D02*
X014972Y010582D01*
X015972Y010582D02*
X015972Y011222D01*
X016972Y011222D02*
X016972Y010582D01*
X016972Y014222D02*
X016972Y014862D01*
X015972Y014862D02*
X015972Y014222D01*
X014972Y014222D02*
X014972Y014862D01*
X013972Y014862D02*
X013972Y014222D01*
X012972Y014222D02*
X012972Y014862D01*
X011972Y014862D02*
X011972Y014222D01*
X010972Y014222D02*
X010972Y014862D01*
X009972Y014862D02*
X009972Y014222D01*
X009722Y018402D02*
X009722Y019042D01*
X008722Y019042D02*
X008722Y018402D01*
X007722Y018402D02*
X007722Y019042D01*
X007972Y021902D02*
X007972Y022542D01*
X006972Y022542D02*
X006972Y021902D01*
X005972Y021902D02*
X005972Y022542D01*
X004972Y022542D02*
X004972Y021902D01*
X003972Y021902D02*
X003972Y022542D01*
X008972Y022542D02*
X008972Y021902D01*
X010972Y019042D02*
X010972Y018402D01*
X011972Y018402D02*
X011972Y019042D01*
X012972Y019042D02*
X012972Y018402D01*
X020972Y017042D02*
X020972Y016402D01*
X021972Y016402D02*
X021972Y017042D01*
X022972Y017042D02*
X022972Y016402D01*
X023972Y016402D02*
X023972Y017042D01*
X024972Y017042D02*
X024972Y016402D01*
X025972Y016402D02*
X025972Y017042D01*
X026972Y017042D02*
X026972Y016402D01*
X027972Y016402D02*
X027972Y017042D01*
X028972Y017042D02*
X028972Y016402D01*
X028972Y014042D02*
X028972Y013402D01*
X027972Y013402D02*
X027972Y014042D01*
X026972Y014042D02*
X026972Y013402D01*
X025972Y013402D02*
X025972Y014042D01*
X024972Y014042D02*
X024972Y013402D01*
X023972Y013402D02*
X023972Y014042D01*
X022972Y014042D02*
X022972Y013402D01*
X021972Y013402D02*
X021972Y014042D01*
X020972Y014042D02*
X020972Y013402D01*
X018972Y025652D02*
X018972Y026292D01*
X017972Y026292D02*
X017972Y025652D01*
X016972Y025652D02*
X016972Y026292D01*
X015972Y026292D02*
X015972Y025652D01*
X014972Y025652D02*
X014972Y026292D01*
X013972Y026292D02*
X013972Y025652D01*
X012972Y025652D02*
X012972Y026292D01*
X011972Y026292D02*
X011972Y025652D01*
X011972Y028652D02*
X011972Y029292D01*
X012972Y029292D02*
X012972Y028652D01*
X013972Y028652D02*
X013972Y029292D01*
X014972Y029292D02*
X014972Y028652D01*
X015972Y028652D02*
X015972Y029292D01*
X016972Y029292D02*
X016972Y028652D01*
X017972Y028652D02*
X017972Y029292D01*
X018972Y029292D02*
X018972Y028652D01*
X019472Y031402D02*
X019472Y032042D01*
X018472Y032042D02*
X018472Y031402D01*
X017472Y031402D02*
X017472Y032042D01*
X016472Y032042D02*
X016472Y031402D01*
X015472Y031402D02*
X015472Y032042D01*
X014472Y032042D02*
X014472Y031402D01*
X013472Y031402D02*
X013472Y032042D01*
X012472Y032042D02*
X012472Y031402D01*
X011472Y031402D02*
X011472Y032042D01*
X010472Y032042D02*
X010472Y031402D01*
X009472Y031402D02*
X009472Y032042D01*
X008472Y032042D02*
X008472Y031402D01*
X007472Y031402D02*
X007472Y032042D01*
X020472Y032042D02*
X020472Y031402D01*
X021472Y031402D02*
X021472Y032042D01*
X022472Y032042D02*
X022472Y031402D01*
X023972Y029292D02*
X023972Y028652D01*
X024972Y028652D02*
X024972Y029292D01*
X025972Y029292D02*
X025972Y028652D01*
X026972Y028652D02*
X026972Y029292D01*
X026972Y026292D02*
X026972Y025652D01*
X025972Y025652D02*
X025972Y026292D01*
X024972Y026292D02*
X024972Y025652D01*
X023972Y025652D02*
X023972Y026292D01*
D11*
X021472Y026472D03*
X021472Y028472D03*
X021972Y022472D03*
X020972Y022472D03*
X019972Y022472D03*
X017222Y022472D03*
X016222Y022472D03*
X015222Y022472D03*
X014222Y022472D03*
X014222Y018472D03*
X015222Y018472D03*
X016222Y018472D03*
X017222Y018472D03*
X019972Y018472D03*
X020972Y018472D03*
X021972Y018472D03*
X024472Y019472D03*
X025972Y018472D03*
X026972Y018472D03*
X027972Y018472D03*
X028972Y018472D03*
X029972Y018472D03*
X029972Y022472D03*
X028972Y022472D03*
X027972Y022472D03*
X026972Y022472D03*
X025972Y022472D03*
X024472Y021472D03*
X035722Y012472D03*
X037472Y009722D03*
X038472Y009722D03*
X038472Y007972D03*
X037472Y007972D03*
X035722Y008472D03*
X025022Y006722D03*
X021922Y006722D03*
X017472Y007972D03*
X016472Y007972D03*
X015472Y007972D03*
X014472Y007972D03*
X013472Y007972D03*
X012472Y007972D03*
X012472Y003972D03*
X013472Y003972D03*
X014472Y003972D03*
X015472Y003972D03*
X016472Y003972D03*
X017472Y003972D03*
X008972Y023972D03*
X007972Y023972D03*
X006972Y023972D03*
X005972Y023972D03*
X004972Y023972D03*
X004972Y027972D03*
X005972Y027972D03*
X006972Y027972D03*
X007972Y027972D03*
X008972Y027972D03*
X001972Y028722D03*
D12*
X002972Y028722D03*
X028222Y030722D03*
X028222Y031722D03*
X026422Y006722D03*
X020522Y006722D03*
D13*
X033722Y023722D03*
D14*
X033722Y031722D03*
D15*
X032222Y009102D02*
X032222Y008342D01*
X031222Y008342D02*
X031222Y009102D01*
X030222Y009102D02*
X030222Y008342D01*
D16*
X023875Y009704D02*
X023875Y010424D01*
X022875Y010424D02*
X022875Y009704D01*
X021875Y009704D02*
X021875Y010424D01*
X020875Y010424D02*
X020875Y009704D01*
X019875Y009704D02*
X019875Y010424D01*
X031722Y015612D02*
X031722Y016332D01*
X032722Y016332D02*
X032722Y015612D01*
X033722Y015612D02*
X033722Y016332D01*
X034722Y016332D02*
X034722Y015612D01*
X035722Y015612D02*
X035722Y016332D01*
X006332Y009722D02*
X005612Y009722D01*
X005612Y008722D02*
X006332Y008722D01*
X006332Y007722D02*
X005612Y007722D01*
X005612Y005972D02*
X006332Y005972D01*
X006332Y004972D02*
X005612Y004972D01*
X005612Y003972D02*
X006332Y003972D01*
D17*
X009972Y003972D03*
X011222Y003972D03*
X011222Y007972D03*
X009972Y007972D03*
X034472Y008472D03*
X034472Y012472D03*
D18*
X027902Y003222D02*
X027902Y002222D01*
X019042Y002222D02*
X019042Y003222D01*
D19*
X034471Y004652D02*
X034471Y005512D01*
X036833Y005512D02*
X036833Y004652D01*
X036082Y003192D02*
X035222Y003192D01*
D20*
X000462Y000462D02*
X000462Y033446D01*
X039352Y033446D01*
X039352Y000462D01*
X000462Y000462D01*
X000462Y000699D02*
X001318Y000699D01*
X001337Y000688D02*
X001640Y000607D01*
X001953Y000607D01*
X002256Y000688D01*
X002527Y000844D01*
X002749Y001066D01*
X002905Y001337D01*
X002986Y001640D01*
X002986Y001953D01*
X002905Y002256D01*
X002749Y002527D01*
X002527Y002749D01*
X002256Y002905D01*
X001953Y002986D01*
X001640Y002986D01*
X001337Y002905D01*
X001066Y002749D01*
X000844Y002527D01*
X000688Y002256D01*
X000607Y001953D01*
X000607Y001640D01*
X000688Y001337D01*
X000844Y001066D01*
X001066Y000844D01*
X001337Y000688D01*
X000973Y000937D02*
X000462Y000937D01*
X000462Y001176D02*
X000781Y001176D01*
X000667Y001414D02*
X000462Y001414D01*
X000462Y001653D02*
X000607Y001653D01*
X000607Y001892D02*
X000462Y001892D01*
X000462Y002130D02*
X000654Y002130D01*
X000753Y002369D02*
X000462Y002369D01*
X000462Y002607D02*
X000924Y002607D01*
X001234Y002846D02*
X000462Y002846D01*
X000462Y003084D02*
X010874Y003084D01*
X010781Y003177D02*
X011531Y002427D01*
X011677Y002281D01*
X011868Y002202D01*
X018182Y002202D01*
X018182Y002051D01*
X018313Y001735D01*
X018555Y001493D01*
X018871Y001362D01*
X019213Y001362D01*
X019529Y001493D01*
X019771Y001735D01*
X019902Y002051D01*
X019902Y002202D01*
X024325Y002202D01*
X024516Y002281D01*
X024663Y002427D01*
X026863Y004627D01*
X026942Y004818D01*
X026942Y005025D01*
X026942Y006280D01*
X026998Y006337D01*
X027102Y006586D01*
X027102Y006857D01*
X026998Y007107D01*
X026807Y007298D01*
X026557Y007402D01*
X026286Y007402D01*
X026037Y007298D01*
X025845Y007107D01*
X025742Y006857D01*
X025742Y006586D01*
X025845Y006337D01*
X025902Y006280D01*
X025902Y005137D01*
X024006Y003242D01*
X019902Y003242D01*
X019902Y003393D01*
X019771Y003709D01*
X019529Y003951D01*
X019213Y004082D01*
X018871Y004082D01*
X018555Y003951D01*
X018313Y003709D01*
X018182Y003393D01*
X018182Y003242D01*
X012187Y003242D01*
X011857Y003572D01*
X011932Y003752D01*
X011932Y003748D01*
X012248Y003432D01*
X012471Y003432D01*
X012471Y003971D01*
X012472Y003971D01*
X012472Y003432D01*
X012695Y003432D01*
X012972Y003708D01*
X013248Y003432D01*
X013471Y003432D01*
X013471Y003971D01*
X013472Y003971D01*
X013472Y003432D01*
X013695Y003432D01*
X013873Y003609D01*
X014190Y003292D01*
X014753Y003292D01*
X014972Y003510D01*
X015190Y003292D01*
X015753Y003292D01*
X016071Y003609D01*
X016248Y003432D01*
X016471Y003432D01*
X016471Y003971D01*
X016472Y003971D01*
X016472Y003432D01*
X016695Y003432D01*
X016972Y003708D01*
X017248Y003432D01*
X017471Y003432D01*
X017471Y003971D01*
X017472Y003971D01*
X017472Y003432D01*
X017695Y003432D01*
X018012Y003748D01*
X018012Y003971D01*
X017472Y003971D01*
X017472Y003972D01*
X017471Y003972D01*
X017471Y003971D01*
X016932Y003971D01*
X016472Y003971D01*
X016472Y003972D01*
X016471Y003972D01*
X016471Y004512D01*
X016248Y004512D01*
X016071Y004334D01*
X015753Y004652D01*
X015190Y004652D01*
X014972Y004433D01*
X014753Y004652D01*
X014190Y004652D01*
X013873Y004334D01*
X013695Y004512D01*
X013472Y004512D01*
X013472Y003972D01*
X013471Y003972D01*
X013471Y003971D01*
X012932Y003971D01*
X012472Y003971D01*
X012472Y003972D01*
X012471Y003972D01*
X012471Y004512D01*
X012248Y004512D01*
X011932Y004195D01*
X011932Y004191D01*
X011849Y004391D01*
X011641Y004599D01*
X011369Y004712D01*
X011074Y004712D01*
X010803Y004599D01*
X010597Y004393D01*
X010391Y004599D01*
X010119Y004712D01*
X009824Y004712D01*
X009553Y004599D01*
X009344Y004391D01*
X009232Y004119D01*
X009232Y003824D01*
X009344Y003553D01*
X009553Y003344D01*
X009824Y003232D01*
X010119Y003232D01*
X010391Y003344D01*
X010597Y003550D01*
X010702Y003445D01*
X010702Y003368D01*
X010781Y003177D01*
X010721Y003323D02*
X010339Y003323D01*
X009605Y003323D02*
X006646Y003323D01*
X006740Y003361D02*
X006910Y003532D01*
X008059Y003532D01*
X008221Y003599D01*
X008345Y003722D01*
X008845Y004222D01*
X008912Y004384D01*
X008912Y004559D01*
X008912Y008289D01*
X009154Y008532D01*
X009485Y008532D01*
X009344Y008391D01*
X009232Y008119D01*
X009232Y007824D01*
X009344Y007553D01*
X009553Y007344D01*
X009824Y007232D01*
X010119Y007232D01*
X010391Y007344D01*
X010597Y007550D01*
X010803Y007344D01*
X011074Y007232D01*
X011369Y007232D01*
X011641Y007344D01*
X011849Y007553D01*
X011873Y007609D01*
X012190Y007292D01*
X012753Y007292D01*
X012972Y007510D01*
X013190Y007292D01*
X013753Y007292D01*
X013972Y007510D01*
X014190Y007292D01*
X014753Y007292D01*
X014972Y007510D01*
X015190Y007292D01*
X015753Y007292D01*
X015972Y007510D01*
X016190Y007292D01*
X016753Y007292D01*
X016972Y007510D01*
X017190Y007292D01*
X017753Y007292D01*
X018152Y007690D01*
X018152Y008253D01*
X017855Y008551D01*
X017971Y008599D01*
X018095Y008722D01*
X018845Y009472D01*
X018912Y009634D01*
X018912Y009809D01*
X018912Y011782D01*
X027559Y011782D01*
X027721Y011849D01*
X027845Y011972D01*
X027845Y011973D01*
X028339Y012467D01*
X028294Y012357D01*
X028294Y012087D01*
X028397Y011838D01*
X028513Y011722D01*
X028397Y011606D01*
X028294Y011357D01*
X028294Y011087D01*
X028397Y010838D01*
X028588Y010647D01*
X028837Y010544D01*
X028921Y010544D01*
X028539Y010162D01*
X028491Y010162D01*
X028356Y010297D01*
X028107Y010400D01*
X027837Y010400D01*
X027588Y010297D01*
X027397Y010106D01*
X027294Y009857D01*
X027294Y009587D01*
X027397Y009338D01*
X027513Y009222D01*
X027397Y009106D01*
X027294Y008857D01*
X027294Y008587D01*
X027397Y008338D01*
X027588Y008147D01*
X027837Y008044D01*
X028107Y008044D01*
X028356Y008147D01*
X028491Y008282D01*
X028559Y008282D01*
X028721Y008349D01*
X029482Y009110D01*
X029482Y008194D01*
X029594Y007923D01*
X029803Y007714D01*
X030074Y007602D01*
X030369Y007602D01*
X030641Y007714D01*
X030821Y007894D01*
X030831Y007884D01*
X030907Y007829D01*
X030991Y007786D01*
X031081Y007756D01*
X031174Y007742D01*
X031221Y007742D01*
X031221Y008721D01*
X031222Y008721D01*
X031222Y007742D01*
X031269Y007742D01*
X031362Y007756D01*
X031452Y007786D01*
X031536Y007829D01*
X031613Y007884D01*
X031623Y007894D01*
X031803Y007714D01*
X032074Y007602D01*
X032369Y007602D01*
X032641Y007714D01*
X032849Y007923D01*
X032962Y008194D01*
X032962Y009249D01*
X032849Y009521D01*
X032641Y009729D01*
X032369Y009842D01*
X032074Y009842D01*
X031803Y009729D01*
X031623Y009549D01*
X031613Y009559D01*
X031536Y009615D01*
X031452Y009658D01*
X031362Y009687D01*
X031269Y009702D01*
X031222Y009702D01*
X031222Y008722D01*
X031221Y008722D01*
X031221Y009702D01*
X031174Y009702D01*
X031081Y009687D01*
X030991Y009658D01*
X030907Y009615D01*
X030831Y009559D01*
X030821Y009549D01*
X030746Y009624D01*
X031904Y010782D01*
X035309Y010782D01*
X035471Y010849D01*
X035595Y010972D01*
X036095Y011472D01*
X036162Y011634D01*
X036162Y011809D01*
X036162Y011950D01*
X036402Y012190D01*
X036402Y012753D01*
X036003Y013152D01*
X035440Y013152D01*
X035123Y012834D01*
X035099Y012891D01*
X034891Y013099D01*
X034619Y013212D01*
X034324Y013212D01*
X034053Y013099D01*
X033844Y012891D01*
X033732Y012619D01*
X033732Y012324D01*
X033844Y012053D01*
X034053Y011844D01*
X034324Y011732D01*
X034619Y011732D01*
X034891Y011844D01*
X035099Y012053D01*
X035123Y012109D01*
X035282Y011950D01*
X035282Y011904D01*
X035039Y011662D01*
X032034Y011662D01*
X032095Y011722D01*
X032162Y011884D01*
X032162Y013039D01*
X032654Y013532D01*
X034134Y013532D01*
X034309Y013532D01*
X034471Y013599D01*
X035764Y014892D01*
X035865Y014892D01*
X036130Y015001D01*
X036332Y015204D01*
X036442Y015468D01*
X036442Y016475D01*
X036332Y016740D01*
X036130Y016942D01*
X035865Y017052D01*
X035578Y017052D01*
X035314Y016942D01*
X035222Y016850D01*
X035130Y016942D01*
X034865Y017052D01*
X034578Y017052D01*
X034314Y016942D01*
X034123Y016751D01*
X034100Y016774D01*
X034026Y016828D01*
X033944Y016869D01*
X033858Y016897D01*
X033767Y016912D01*
X033722Y016912D01*
X033722Y015972D01*
X033721Y015972D01*
X033721Y016912D01*
X033676Y016912D01*
X033586Y016897D01*
X033499Y016869D01*
X033418Y016828D01*
X033344Y016774D01*
X033321Y016751D01*
X033130Y016942D01*
X032865Y017052D01*
X032578Y017052D01*
X032314Y016942D01*
X032222Y016850D01*
X032130Y016942D01*
X031865Y017052D01*
X031578Y017052D01*
X031314Y016942D01*
X031219Y016847D01*
X030662Y017404D01*
X030662Y018134D01*
X030662Y018309D01*
X030652Y018333D01*
X030652Y018753D01*
X030253Y019152D01*
X029690Y019152D01*
X029472Y018933D01*
X029253Y019152D01*
X028690Y019152D01*
X028472Y018933D01*
X028253Y019152D01*
X027690Y019152D01*
X027472Y018933D01*
X027253Y019152D01*
X026690Y019152D01*
X026472Y018933D01*
X026253Y019152D01*
X025690Y019152D01*
X025292Y018753D01*
X025292Y018190D01*
X025690Y017792D01*
X026253Y017792D01*
X026472Y018010D01*
X026690Y017792D01*
X027253Y017792D01*
X027472Y018010D01*
X027690Y017792D01*
X028029Y017792D01*
X028100Y017722D01*
X027836Y017722D01*
X027587Y017618D01*
X027472Y017503D01*
X027357Y017618D01*
X027107Y017722D01*
X026836Y017722D01*
X026587Y017618D01*
X026472Y017503D01*
X026357Y017618D01*
X026107Y017722D01*
X025836Y017722D01*
X025587Y017618D01*
X025472Y017503D01*
X025357Y017618D01*
X025107Y017722D01*
X024836Y017722D01*
X024587Y017618D01*
X024472Y017503D01*
X024357Y017618D01*
X024107Y017722D01*
X023836Y017722D01*
X023587Y017618D01*
X023472Y017503D01*
X023357Y017618D01*
X023107Y017722D01*
X022836Y017722D01*
X022587Y017618D01*
X022472Y017503D01*
X022357Y017618D01*
X022107Y017722D01*
X021836Y017722D01*
X021587Y017618D01*
X021472Y017503D01*
X021357Y017618D01*
X021107Y017722D01*
X020836Y017722D01*
X020587Y017618D01*
X020395Y017427D01*
X020292Y017177D01*
X020292Y016266D01*
X020395Y016017D01*
X020500Y015912D01*
X019404Y015912D01*
X018662Y016654D01*
X018662Y023809D01*
X018595Y023971D01*
X018471Y024095D01*
X017721Y024845D01*
X017559Y024912D01*
X017384Y024912D01*
X011154Y024912D01*
X010345Y025721D01*
X010221Y025845D01*
X010059Y025912D01*
X007154Y025912D01*
X005774Y027292D01*
X006253Y027292D01*
X006472Y027510D01*
X006532Y027450D01*
X006532Y027384D01*
X006599Y027222D01*
X006722Y027099D01*
X007222Y026599D01*
X007384Y026532D01*
X007559Y026532D01*
X009809Y026532D01*
X009971Y026599D01*
X010095Y026722D01*
X010404Y027032D01*
X017789Y027032D01*
X017850Y026972D01*
X017836Y026972D01*
X017587Y026868D01*
X017472Y026753D01*
X017357Y026868D01*
X017107Y026972D01*
X016836Y026972D01*
X016587Y026868D01*
X016472Y026753D01*
X016357Y026868D01*
X016107Y026972D01*
X015836Y026972D01*
X015587Y026868D01*
X015472Y026753D01*
X015357Y026868D01*
X015107Y026972D01*
X014836Y026972D01*
X014587Y026868D01*
X014472Y026753D01*
X014357Y026868D01*
X014107Y026972D01*
X013836Y026972D01*
X013587Y026868D01*
X013472Y026753D01*
X013357Y026868D01*
X013107Y026972D01*
X012836Y026972D01*
X012587Y026868D01*
X012472Y026753D01*
X012357Y026868D01*
X012107Y026972D01*
X011836Y026972D01*
X011587Y026868D01*
X011395Y026677D01*
X011292Y026427D01*
X011292Y025516D01*
X011395Y025267D01*
X011587Y025075D01*
X011836Y024972D01*
X012107Y024972D01*
X012357Y025075D01*
X012472Y025190D01*
X012587Y025075D01*
X012836Y024972D01*
X013107Y024972D01*
X013357Y025075D01*
X013472Y025190D01*
X013587Y025075D01*
X013836Y024972D01*
X014107Y024972D01*
X014357Y025075D01*
X014472Y025190D01*
X014587Y025075D01*
X014836Y024972D01*
X015107Y024972D01*
X015357Y025075D01*
X015472Y025190D01*
X015587Y025075D01*
X015836Y024972D01*
X016107Y024972D01*
X016357Y025075D01*
X016472Y025190D01*
X016587Y025075D01*
X016836Y024972D01*
X017107Y024972D01*
X017357Y025075D01*
X017472Y025190D01*
X017587Y025075D01*
X017836Y024972D01*
X018107Y024972D01*
X018357Y025075D01*
X018472Y025190D01*
X018532Y025130D01*
X018532Y024634D01*
X018599Y024472D01*
X018722Y024349D01*
X019532Y023539D01*
X019532Y022993D01*
X019292Y022753D01*
X019292Y022190D01*
X019690Y021792D01*
X020253Y021792D01*
X020472Y022010D01*
X020690Y021792D01*
X021253Y021792D01*
X021472Y022010D01*
X021690Y021792D01*
X022170Y021792D01*
X020722Y020345D01*
X020599Y020221D01*
X020532Y020059D01*
X020532Y018993D01*
X020472Y018933D01*
X020253Y019152D01*
X019690Y019152D01*
X019292Y018753D01*
X019292Y018190D01*
X019690Y017792D01*
X020253Y017792D01*
X020472Y018010D01*
X020690Y017792D01*
X021253Y017792D01*
X021472Y018010D01*
X021690Y017792D01*
X022253Y017792D01*
X022652Y018190D01*
X022652Y018753D01*
X022412Y018993D01*
X022412Y020039D01*
X023932Y021560D01*
X023932Y021472D01*
X024471Y021472D01*
X024471Y021471D01*
X024472Y021471D01*
X024472Y020932D01*
X024695Y020932D01*
X025012Y021248D01*
X025012Y021471D01*
X024472Y021471D01*
X024472Y021472D01*
X024471Y021472D01*
X024471Y022012D01*
X024361Y022012D01*
X024412Y022134D01*
X024412Y024039D01*
X025221Y024849D01*
X025345Y024972D01*
X025409Y025127D01*
X025472Y025190D01*
X025587Y025075D01*
X025836Y024972D01*
X026107Y024972D01*
X026357Y025075D01*
X026472Y025190D01*
X026587Y025075D01*
X026836Y024972D01*
X027107Y024972D01*
X027357Y025075D01*
X027548Y025267D01*
X027652Y025516D01*
X027652Y026427D01*
X027548Y026677D01*
X027357Y026868D01*
X027107Y026972D01*
X026836Y026972D01*
X026587Y026868D01*
X026472Y026753D01*
X026357Y026868D01*
X026107Y026972D01*
X025836Y026972D01*
X025587Y026868D01*
X025472Y026753D01*
X025357Y026868D01*
X025107Y026972D01*
X024836Y026972D01*
X024587Y026868D01*
X024472Y026753D01*
X024357Y026868D01*
X024107Y026972D01*
X023836Y026972D01*
X023587Y026868D01*
X023395Y026677D01*
X023292Y026427D01*
X023292Y025516D01*
X023395Y025267D01*
X023223Y025095D01*
X023222Y025095D01*
X023099Y024971D01*
X023032Y024809D01*
X023032Y022654D01*
X022652Y022274D01*
X022652Y022753D01*
X022253Y023152D01*
X021690Y023152D01*
X021472Y022933D01*
X021253Y023152D01*
X020690Y023152D01*
X020472Y022933D01*
X020412Y022993D01*
X020412Y023634D01*
X020412Y023809D01*
X020345Y023971D01*
X019412Y024904D01*
X019412Y025130D01*
X019548Y025267D01*
X019652Y025516D01*
X019652Y026427D01*
X019548Y026677D01*
X019357Y026868D01*
X019107Y026972D01*
X019094Y026972D01*
X018345Y027721D01*
X018221Y027845D01*
X018059Y027912D01*
X010309Y027912D01*
X010134Y027912D01*
X009972Y027845D01*
X009539Y027412D01*
X009373Y027412D01*
X009652Y027690D01*
X009652Y028253D01*
X009412Y028493D01*
X009412Y028539D01*
X010904Y030032D01*
X022059Y030032D01*
X022221Y030099D01*
X022345Y030222D01*
X022345Y030223D01*
X022721Y030599D01*
X022845Y030722D01*
X022909Y030877D01*
X023048Y031017D01*
X023152Y031266D01*
X023152Y032177D01*
X023048Y032427D01*
X022857Y032618D01*
X022607Y032722D01*
X022336Y032722D01*
X022087Y032618D01*
X021972Y032503D01*
X021857Y032618D01*
X021607Y032722D01*
X021336Y032722D01*
X021087Y032618D01*
X020972Y032503D01*
X020857Y032618D01*
X020607Y032722D01*
X020336Y032722D01*
X020087Y032618D01*
X019972Y032503D01*
X019857Y032618D01*
X019607Y032722D01*
X019336Y032722D01*
X019087Y032618D01*
X018972Y032503D01*
X018857Y032618D01*
X018607Y032722D01*
X018336Y032722D01*
X018087Y032618D01*
X017972Y032503D01*
X017857Y032618D01*
X017607Y032722D01*
X017336Y032722D01*
X017087Y032618D01*
X016972Y032503D01*
X016857Y032618D01*
X016607Y032722D01*
X016336Y032722D01*
X016087Y032618D01*
X015972Y032503D01*
X015857Y032618D01*
X015607Y032722D01*
X015336Y032722D01*
X015087Y032618D01*
X014972Y032503D01*
X014857Y032618D01*
X014607Y032722D01*
X014336Y032722D01*
X014087Y032618D01*
X013972Y032503D01*
X013857Y032618D01*
X013607Y032722D01*
X013336Y032722D01*
X013087Y032618D01*
X012972Y032503D01*
X012857Y032618D01*
X012607Y032722D01*
X012336Y032722D01*
X012087Y032618D01*
X011972Y032503D01*
X011857Y032618D01*
X011607Y032722D01*
X011336Y032722D01*
X011087Y032618D01*
X010972Y032503D01*
X010857Y032618D01*
X010607Y032722D01*
X010336Y032722D01*
X010087Y032618D01*
X009972Y032503D01*
X009857Y032618D01*
X009607Y032722D01*
X009336Y032722D01*
X009087Y032618D01*
X008972Y032503D01*
X008857Y032618D01*
X008607Y032722D01*
X008336Y032722D01*
X008087Y032618D01*
X007895Y032427D01*
X007882Y032395D01*
X007824Y032454D01*
X007755Y032504D01*
X007679Y032542D01*
X007598Y032568D01*
X007514Y032582D01*
X007472Y032582D01*
X007472Y031722D01*
X007471Y031722D01*
X007471Y031721D01*
X007472Y031721D01*
X007472Y030862D01*
X007514Y030862D01*
X007598Y030875D01*
X007679Y030901D01*
X007755Y030940D01*
X007824Y030990D01*
X007882Y031048D01*
X007895Y031017D01*
X008032Y030880D01*
X008032Y030654D01*
X006599Y029221D01*
X006532Y029059D01*
X006532Y028884D01*
X006532Y028493D01*
X006472Y028433D01*
X006253Y028652D01*
X005690Y028652D01*
X005472Y028433D01*
X005253Y028652D01*
X004690Y028652D01*
X004292Y028253D01*
X004292Y027690D01*
X004532Y027450D01*
X004532Y027384D01*
X004599Y027222D01*
X006722Y025099D01*
X006884Y025032D01*
X007059Y025032D01*
X009789Y025032D01*
X010599Y024222D01*
X010722Y024099D01*
X010884Y024032D01*
X017289Y024032D01*
X017782Y023539D01*
X017782Y022873D01*
X017503Y023152D01*
X016940Y023152D01*
X016623Y022834D01*
X016445Y023012D01*
X016222Y023012D01*
X016222Y022472D01*
X016221Y022472D01*
X016221Y023012D01*
X015998Y023012D01*
X015821Y022834D01*
X015503Y023152D01*
X014940Y023152D01*
X014722Y022933D01*
X014503Y023152D01*
X013940Y023152D01*
X013542Y022753D01*
X013542Y022190D01*
X013940Y021792D01*
X014503Y021792D01*
X014722Y022010D01*
X014940Y021792D01*
X015503Y021792D01*
X015821Y022109D01*
X015998Y021932D01*
X016221Y021932D01*
X016221Y022471D01*
X016222Y022471D01*
X016222Y021932D01*
X016445Y021932D01*
X016623Y022109D01*
X016940Y021792D01*
X017503Y021792D01*
X017782Y022070D01*
X017782Y018873D01*
X017503Y019152D01*
X016940Y019152D01*
X016722Y018933D01*
X016503Y019152D01*
X015940Y019152D01*
X015722Y018933D01*
X015503Y019152D01*
X014940Y019152D01*
X014623Y018834D01*
X014445Y019012D01*
X014222Y019012D01*
X014222Y018472D01*
X014221Y018472D01*
X014221Y018471D01*
X014222Y018471D01*
X014222Y017932D01*
X014445Y017932D01*
X014623Y018109D01*
X014680Y018052D01*
X014039Y017412D01*
X012384Y017412D01*
X012222Y017345D01*
X012099Y017221D01*
X010599Y015721D01*
X010532Y015559D01*
X010532Y015384D01*
X010532Y015383D01*
X010472Y015323D01*
X010357Y015438D01*
X010107Y015542D01*
X009836Y015542D01*
X009587Y015438D01*
X009395Y015247D01*
X009292Y014997D01*
X009292Y014086D01*
X009395Y013837D01*
X009587Y013645D01*
X009836Y013542D01*
X010107Y013542D01*
X010357Y013645D01*
X010472Y013760D01*
X010587Y013645D01*
X010836Y013542D01*
X011107Y013542D01*
X011357Y013645D01*
X011472Y013760D01*
X011587Y013645D01*
X011836Y013542D01*
X012107Y013542D01*
X012357Y013645D01*
X012472Y013760D01*
X012587Y013645D01*
X012836Y013542D01*
X013107Y013542D01*
X013357Y013645D01*
X013472Y013760D01*
X013532Y013700D01*
X013532Y013634D01*
X013599Y013472D01*
X013722Y013349D01*
X014722Y012349D01*
X014884Y012282D01*
X015059Y012282D01*
X017532Y012282D01*
X017532Y011623D01*
X017357Y011798D01*
X017107Y011902D01*
X016836Y011902D01*
X016587Y011798D01*
X016472Y011683D01*
X016357Y011798D01*
X016107Y011902D01*
X015836Y011902D01*
X015587Y011798D01*
X015472Y011683D01*
X015357Y011798D01*
X015107Y011902D01*
X014836Y011902D01*
X014587Y011798D01*
X014472Y011683D01*
X014357Y011798D01*
X014107Y011902D01*
X013836Y011902D01*
X013587Y011798D01*
X013472Y011683D01*
X013357Y011798D01*
X013107Y011902D01*
X012836Y011902D01*
X012587Y011798D01*
X012472Y011683D01*
X012357Y011798D01*
X012107Y011902D01*
X011836Y011902D01*
X011587Y011798D01*
X011472Y011683D01*
X011357Y011798D01*
X011107Y011902D01*
X010836Y011902D01*
X010587Y011798D01*
X010472Y011683D01*
X010357Y011798D01*
X010107Y011902D01*
X009836Y011902D01*
X009587Y011798D01*
X009395Y011607D01*
X009292Y011357D01*
X009292Y010446D01*
X009395Y010197D01*
X009587Y010005D01*
X009813Y009912D01*
X008634Y009912D01*
X008472Y009845D01*
X008349Y009721D01*
X007912Y009284D01*
X007912Y009384D01*
X007912Y009559D01*
X007845Y009721D01*
X007595Y009971D01*
X007471Y010095D01*
X007309Y010162D01*
X006910Y010162D01*
X006740Y010332D01*
X006475Y010442D01*
X005468Y010442D01*
X005204Y010332D01*
X005001Y010130D01*
X004892Y009865D01*
X004892Y009578D01*
X005001Y009314D01*
X005094Y009222D01*
X005033Y009162D01*
X004662Y009162D01*
X004662Y016039D01*
X004904Y016282D01*
X009634Y016282D01*
X009809Y016282D01*
X009971Y016349D01*
X011221Y017599D01*
X011345Y017722D01*
X011409Y017877D01*
X011472Y017940D01*
X011587Y017825D01*
X011836Y017722D01*
X012107Y017722D01*
X012357Y017825D01*
X012548Y018017D01*
X012561Y018048D01*
X012620Y017990D01*
X012689Y017940D01*
X012764Y017901D01*
X012845Y017875D01*
X012929Y017862D01*
X012971Y017862D01*
X012971Y018721D01*
X012972Y018721D01*
X012972Y017862D01*
X013014Y017862D01*
X013098Y017875D01*
X013179Y017901D01*
X013255Y017940D01*
X013324Y017990D01*
X013384Y018050D01*
X013434Y018119D01*
X013472Y018194D01*
X013498Y018275D01*
X013512Y018359D01*
X013512Y018721D01*
X012972Y018721D01*
X012972Y018722D01*
X012971Y018722D01*
X012971Y019582D01*
X012929Y019582D01*
X012845Y019568D01*
X012764Y019542D01*
X012689Y019504D01*
X012620Y019454D01*
X012561Y019395D01*
X012548Y019427D01*
X012357Y019618D01*
X012107Y019722D01*
X011836Y019722D01*
X011587Y019618D01*
X011472Y019503D01*
X011357Y019618D01*
X011107Y019722D01*
X010836Y019722D01*
X010587Y019618D01*
X010395Y019427D01*
X010292Y019177D01*
X010292Y018266D01*
X010395Y018017D01*
X009539Y017162D01*
X007284Y017162D01*
X007844Y017722D01*
X007857Y017722D01*
X008107Y017825D01*
X008222Y017940D01*
X008337Y017825D01*
X008586Y017722D01*
X008857Y017722D01*
X009107Y017825D01*
X009298Y018017D01*
X009311Y018048D01*
X009370Y017990D01*
X009439Y017940D01*
X009514Y017901D01*
X009595Y017875D01*
X009679Y017862D01*
X009721Y017862D01*
X009721Y018721D01*
X009722Y018721D01*
X009722Y017862D01*
X009764Y017862D01*
X009848Y017875D01*
X009929Y017901D01*
X010005Y017940D01*
X010074Y017990D01*
X010134Y018050D01*
X010184Y018119D01*
X010222Y018194D01*
X010248Y018275D01*
X010262Y018359D01*
X010262Y018721D01*
X009722Y018721D01*
X009722Y018722D01*
X009721Y018722D01*
X009721Y019582D01*
X009679Y019582D01*
X009595Y019568D01*
X009514Y019542D01*
X009439Y019504D01*
X009370Y019454D01*
X009311Y019395D01*
X009298Y019427D01*
X009107Y019618D01*
X008857Y019722D01*
X008586Y019722D01*
X008337Y019618D01*
X008222Y019503D01*
X008107Y019618D01*
X007857Y019722D01*
X007586Y019722D01*
X007337Y019618D01*
X007145Y019427D01*
X007042Y019177D01*
X007042Y018266D01*
X007072Y018194D01*
X006539Y017662D01*
X004559Y017662D01*
X004384Y017662D01*
X004222Y017595D01*
X003349Y016721D01*
X003282Y016559D01*
X003282Y016384D01*
X003282Y008384D01*
X003349Y008222D01*
X003472Y008099D01*
X003473Y008099D01*
X004099Y007473D01*
X004099Y007472D01*
X004222Y007349D01*
X004384Y007282D01*
X005033Y007282D01*
X005204Y007111D01*
X005468Y007002D01*
X006475Y007002D01*
X006740Y007111D01*
X006942Y007314D01*
X007032Y007530D01*
X007032Y006412D01*
X006910Y006412D01*
X006740Y006582D01*
X006475Y006692D01*
X005468Y006692D01*
X005204Y006582D01*
X005001Y006380D01*
X004892Y006115D01*
X004892Y005828D01*
X005001Y005564D01*
X005094Y005472D01*
X005001Y005380D01*
X004892Y005115D01*
X004892Y004828D01*
X005001Y004564D01*
X005094Y004472D01*
X005001Y004380D01*
X004892Y004115D01*
X004892Y003828D01*
X005001Y003564D01*
X005204Y003361D01*
X005468Y003252D01*
X006475Y003252D01*
X006740Y003361D01*
X005297Y003323D02*
X000462Y003323D01*
X000462Y003561D02*
X005004Y003561D01*
X004904Y003800D02*
X000462Y003800D01*
X000462Y004038D02*
X004892Y004038D01*
X004959Y004277D02*
X000462Y004277D01*
X000462Y004516D02*
X005050Y004516D01*
X004923Y004754D02*
X000462Y004754D01*
X000462Y004993D02*
X004892Y004993D01*
X004940Y005231D02*
X000462Y005231D01*
X000462Y005470D02*
X005091Y005470D01*
X004942Y005708D02*
X000462Y005708D01*
X000462Y005947D02*
X004892Y005947D01*
X004921Y006185D02*
X000462Y006185D01*
X000462Y006424D02*
X005046Y006424D01*
X005398Y006662D02*
X000462Y006662D01*
X000462Y006901D02*
X007032Y006901D01*
X007032Y007139D02*
X006768Y007139D01*
X006969Y007378D02*
X007032Y007378D01*
X007032Y006662D02*
X006546Y006662D01*
X006898Y006424D02*
X007032Y006424D01*
X008912Y006424D02*
X019909Y006424D01*
X019945Y006337D02*
X020137Y006145D01*
X020386Y006042D01*
X020657Y006042D01*
X020907Y006145D01*
X021098Y006337D01*
X021202Y006586D01*
X021202Y006857D01*
X021098Y007107D01*
X020907Y007298D01*
X020657Y007402D01*
X020386Y007402D01*
X020137Y007298D01*
X019945Y007107D01*
X019842Y006857D01*
X019842Y006586D01*
X019945Y006337D01*
X020096Y006185D02*
X008912Y006185D01*
X008912Y005947D02*
X025902Y005947D01*
X025902Y006185D02*
X025249Y006185D01*
X025245Y006182D02*
X025562Y006498D01*
X025562Y006721D01*
X025022Y006721D01*
X025022Y006182D01*
X025245Y006182D01*
X025022Y006185D02*
X025021Y006185D01*
X025021Y006182D02*
X025021Y006721D01*
X025022Y006721D01*
X025022Y006722D01*
X025562Y006722D01*
X025562Y006945D01*
X025245Y007262D01*
X025022Y007262D01*
X025022Y006722D01*
X025021Y006722D01*
X025021Y006721D01*
X024482Y006721D01*
X024482Y006498D01*
X024798Y006182D01*
X025021Y006182D01*
X024794Y006185D02*
X022149Y006185D01*
X022145Y006182D02*
X022462Y006498D01*
X022462Y006721D01*
X021922Y006721D01*
X021922Y006182D01*
X022145Y006182D01*
X021922Y006185D02*
X021921Y006185D01*
X021921Y006182D02*
X021921Y006721D01*
X021922Y006721D01*
X021922Y006722D01*
X022462Y006722D01*
X022462Y006945D01*
X022145Y007262D01*
X021922Y007262D01*
X021922Y006722D01*
X021921Y006722D01*
X021921Y006721D01*
X021382Y006721D01*
X021382Y006498D01*
X021698Y006182D01*
X021921Y006182D01*
X021694Y006185D02*
X020947Y006185D01*
X021134Y006424D02*
X021456Y006424D01*
X021382Y006662D02*
X021202Y006662D01*
X021382Y006722D02*
X021382Y006945D01*
X021698Y007262D01*
X021921Y007262D01*
X021921Y006722D01*
X021382Y006722D01*
X021382Y006901D02*
X021184Y006901D01*
X021066Y007139D02*
X021576Y007139D01*
X021921Y007139D02*
X021922Y007139D01*
X021921Y006901D02*
X021922Y006901D01*
X021921Y006662D02*
X021922Y006662D01*
X021921Y006424D02*
X021922Y006424D01*
X022387Y006424D02*
X024556Y006424D01*
X024482Y006662D02*
X022462Y006662D01*
X022462Y006901D02*
X024482Y006901D01*
X024482Y006945D02*
X024482Y006722D01*
X025021Y006722D01*
X025021Y007262D01*
X024798Y007262D01*
X024482Y006945D01*
X024676Y007139D02*
X022268Y007139D01*
X020714Y007378D02*
X026229Y007378D01*
X026614Y007378D02*
X037104Y007378D01*
X037190Y007292D02*
X037753Y007292D01*
X038071Y007609D01*
X038248Y007432D01*
X038471Y007432D01*
X038471Y007971D01*
X038472Y007971D01*
X038472Y007432D01*
X038695Y007432D01*
X039012Y007748D01*
X039012Y007971D01*
X038472Y007971D01*
X038472Y007972D01*
X039012Y007972D01*
X039012Y008195D01*
X038695Y008512D01*
X038472Y008512D01*
X038472Y007972D01*
X038471Y007972D01*
X038471Y008512D01*
X038248Y008512D01*
X038071Y008334D01*
X037753Y008652D01*
X037190Y008652D01*
X036792Y008253D01*
X036792Y007690D01*
X037190Y007292D01*
X036865Y007617D02*
X032405Y007617D01*
X032039Y007617D02*
X030405Y007617D01*
X030039Y007617D02*
X018078Y007617D01*
X018152Y007855D02*
X029662Y007855D01*
X029523Y008094D02*
X028227Y008094D01*
X027716Y008094D02*
X018152Y008094D01*
X018073Y008332D02*
X027402Y008332D01*
X027300Y008571D02*
X017903Y008571D01*
X018182Y008809D02*
X027294Y008809D01*
X027373Y009048D02*
X024172Y009048D01*
X024283Y009094D02*
X024486Y009296D01*
X024595Y009561D01*
X024595Y010567D01*
X024486Y010832D01*
X024283Y011035D01*
X024019Y011144D01*
X023732Y011144D01*
X023467Y011035D01*
X023375Y010942D01*
X023283Y011035D01*
X023019Y011144D01*
X022732Y011144D01*
X022467Y011035D01*
X022375Y010942D01*
X022283Y011035D01*
X022019Y011144D01*
X021732Y011144D01*
X021467Y011035D01*
X021375Y010942D01*
X021283Y011035D01*
X021019Y011144D01*
X020732Y011144D01*
X020467Y011035D01*
X020375Y010942D01*
X020283Y011035D01*
X020019Y011144D01*
X019732Y011144D01*
X019467Y011035D01*
X019265Y010832D01*
X019155Y010567D01*
X019155Y009561D01*
X019265Y009296D01*
X019467Y009094D01*
X019732Y008984D01*
X020019Y008984D01*
X020283Y009094D01*
X020375Y009186D01*
X020467Y009094D01*
X020732Y008984D01*
X021019Y008984D01*
X021283Y009094D01*
X021375Y009186D01*
X021467Y009094D01*
X021732Y008984D01*
X022019Y008984D01*
X022283Y009094D01*
X022375Y009186D01*
X022467Y009094D01*
X022732Y008984D01*
X023019Y008984D01*
X023283Y009094D01*
X023375Y009186D01*
X023467Y009094D01*
X023732Y008984D01*
X024019Y008984D01*
X024283Y009094D01*
X024476Y009286D02*
X027448Y009286D01*
X027319Y009525D02*
X024580Y009525D01*
X024595Y009763D02*
X027294Y009763D01*
X027354Y010002D02*
X024595Y010002D01*
X024595Y010241D02*
X027532Y010241D01*
X028348Y010956D02*
X024362Y010956D01*
X024533Y010718D02*
X028517Y010718D01*
X028857Y010479D02*
X024595Y010479D01*
X023389Y010956D02*
X023362Y010956D01*
X022389Y010956D02*
X022362Y010956D01*
X021389Y010956D02*
X021362Y010956D01*
X020389Y010956D02*
X020362Y010956D01*
X019389Y010956D02*
X018912Y010956D01*
X018912Y010718D02*
X019217Y010718D01*
X019155Y010479D02*
X018912Y010479D01*
X018912Y010241D02*
X019155Y010241D01*
X019155Y010002D02*
X018912Y010002D01*
X018912Y009763D02*
X019155Y009763D01*
X019170Y009525D02*
X018866Y009525D01*
X018659Y009286D02*
X019275Y009286D01*
X019579Y009048D02*
X018420Y009048D01*
X020172Y009048D02*
X020579Y009048D01*
X021172Y009048D02*
X021579Y009048D01*
X022172Y009048D02*
X022579Y009048D01*
X023172Y009048D02*
X023579Y009048D01*
X025021Y007139D02*
X025022Y007139D01*
X025021Y006901D02*
X025022Y006901D01*
X025021Y006662D02*
X025022Y006662D01*
X025021Y006424D02*
X025022Y006424D01*
X025487Y006424D02*
X025809Y006424D01*
X025742Y006662D02*
X025562Y006662D01*
X025562Y006901D02*
X025760Y006901D01*
X025878Y007139D02*
X025368Y007139D01*
X026966Y007139D02*
X039352Y007139D01*
X039352Y006901D02*
X027084Y006901D01*
X027102Y006662D02*
X039352Y006662D01*
X039352Y006424D02*
X027034Y006424D01*
X026942Y006185D02*
X034033Y006185D01*
X034023Y006181D02*
X033801Y005959D01*
X033681Y005669D01*
X033681Y004495D01*
X033801Y004204D01*
X034023Y003982D01*
X034313Y003862D01*
X034628Y003862D01*
X034918Y003982D01*
X035140Y004204D01*
X035261Y004495D01*
X035261Y005669D01*
X035140Y005959D01*
X034918Y006181D01*
X034628Y006302D01*
X034313Y006302D01*
X034023Y006181D01*
X033796Y005947D02*
X026942Y005947D01*
X026942Y005708D02*
X033697Y005708D01*
X033681Y005470D02*
X026942Y005470D01*
X026942Y005231D02*
X033681Y005231D01*
X033681Y004993D02*
X026942Y004993D01*
X026915Y004754D02*
X033681Y004754D01*
X033681Y004516D02*
X026751Y004516D01*
X026512Y004277D02*
X033771Y004277D01*
X033967Y004038D02*
X028177Y004038D01*
X028073Y004082D02*
X028389Y003951D01*
X028631Y003709D01*
X028762Y003393D01*
X028762Y002051D01*
X028631Y001735D01*
X028389Y001493D01*
X028073Y001362D01*
X027731Y001362D01*
X027415Y001493D01*
X027173Y001735D01*
X027042Y002051D01*
X027042Y003393D01*
X027173Y003709D01*
X027415Y003951D01*
X027731Y004082D01*
X028073Y004082D01*
X027626Y004038D02*
X026274Y004038D01*
X026035Y003800D02*
X027264Y003800D01*
X027112Y003561D02*
X025797Y003561D01*
X025558Y003323D02*
X027042Y003323D01*
X027042Y003084D02*
X025320Y003084D01*
X025081Y002846D02*
X027042Y002846D01*
X027042Y002607D02*
X024843Y002607D01*
X024604Y002369D02*
X027042Y002369D01*
X027042Y002130D02*
X019902Y002130D01*
X019836Y001892D02*
X027108Y001892D01*
X027254Y001653D02*
X019689Y001653D01*
X019340Y001414D02*
X027603Y001414D01*
X028200Y001414D02*
X030427Y001414D01*
X030467Y001318D02*
X030718Y001067D01*
X031045Y000932D01*
X031399Y000932D01*
X031726Y001067D01*
X031976Y001318D01*
X032112Y001645D01*
X032112Y001999D01*
X031976Y002326D01*
X031726Y002576D01*
X031399Y002712D01*
X031045Y002712D01*
X030718Y002576D01*
X030467Y002326D01*
X030332Y001999D01*
X030332Y001645D01*
X030467Y001318D01*
X030609Y001176D02*
X002812Y001176D01*
X002926Y001414D02*
X018743Y001414D01*
X018394Y001653D02*
X002986Y001653D01*
X002986Y001892D02*
X018248Y001892D01*
X018182Y002130D02*
X002939Y002130D01*
X002840Y002369D02*
X011589Y002369D01*
X011351Y002607D02*
X002669Y002607D01*
X002359Y002846D02*
X011112Y002846D01*
X011867Y003561D02*
X012118Y003561D01*
X012106Y003323D02*
X014159Y003323D01*
X013920Y003561D02*
X013825Y003561D01*
X013472Y003561D02*
X013471Y003561D01*
X013471Y003800D02*
X013472Y003800D01*
X013471Y003972D02*
X012932Y003972D01*
X012472Y003972D01*
X012472Y004512D01*
X012695Y004512D01*
X012972Y004235D01*
X013248Y004512D01*
X013471Y004512D01*
X013471Y003972D01*
X013471Y004038D02*
X013472Y004038D01*
X013471Y004277D02*
X013472Y004277D01*
X013013Y004277D02*
X012930Y004277D01*
X012472Y004277D02*
X012471Y004277D01*
X012471Y004038D02*
X012472Y004038D01*
X012471Y003800D02*
X012472Y003800D01*
X012471Y003561D02*
X012472Y003561D01*
X012825Y003561D02*
X013118Y003561D01*
X012013Y004277D02*
X011896Y004277D01*
X011724Y004516D02*
X014054Y004516D01*
X014890Y004516D02*
X015054Y004516D01*
X015890Y004516D02*
X025280Y004516D01*
X025519Y004754D02*
X008912Y004754D01*
X008912Y004516D02*
X009469Y004516D01*
X009297Y004277D02*
X008867Y004277D01*
X008661Y004038D02*
X009232Y004038D01*
X009242Y003800D02*
X008422Y003800D01*
X008131Y003561D02*
X009341Y003561D01*
X010474Y004516D02*
X010719Y004516D01*
X008912Y004993D02*
X025757Y004993D01*
X025902Y005231D02*
X008912Y005231D01*
X008912Y005470D02*
X025902Y005470D01*
X025902Y005708D02*
X008912Y005708D01*
X008912Y006662D02*
X019842Y006662D01*
X019860Y006901D02*
X008912Y006901D01*
X008912Y007139D02*
X019978Y007139D01*
X020329Y007378D02*
X017840Y007378D01*
X017104Y007378D02*
X016840Y007378D01*
X016104Y007378D02*
X015840Y007378D01*
X015104Y007378D02*
X014840Y007378D01*
X014104Y007378D02*
X013840Y007378D01*
X013104Y007378D02*
X012840Y007378D01*
X012104Y007378D02*
X011675Y007378D01*
X010769Y007378D02*
X010425Y007378D01*
X009519Y007378D02*
X008912Y007378D01*
X008912Y007617D02*
X009318Y007617D01*
X009232Y007855D02*
X008912Y007855D01*
X008912Y008094D02*
X009232Y008094D01*
X009320Y008332D02*
X008954Y008332D01*
X007914Y009286D02*
X007912Y009286D01*
X007912Y009525D02*
X008153Y009525D01*
X008391Y009763D02*
X007802Y009763D01*
X007564Y010002D02*
X009594Y010002D01*
X009377Y010241D02*
X006831Y010241D01*
X005112Y010241D02*
X004662Y010241D01*
X004662Y010479D02*
X009292Y010479D01*
X009292Y010718D02*
X004662Y010718D01*
X004662Y010956D02*
X009292Y010956D01*
X009292Y011195D02*
X004662Y011195D01*
X004662Y011433D02*
X009323Y011433D01*
X009460Y011672D02*
X004662Y011672D01*
X004662Y011910D02*
X017532Y011910D01*
X017532Y011672D02*
X017483Y011672D01*
X017532Y012149D02*
X004662Y012149D01*
X004662Y012387D02*
X014684Y012387D01*
X014445Y012626D02*
X004662Y012626D01*
X004662Y012865D02*
X014207Y012865D01*
X013968Y013103D02*
X004662Y013103D01*
X004662Y013342D02*
X013730Y013342D01*
X013554Y013580D02*
X013200Y013580D01*
X012744Y013580D02*
X012200Y013580D01*
X011744Y013580D02*
X011200Y013580D01*
X010744Y013580D02*
X010200Y013580D01*
X009744Y013580D02*
X004662Y013580D01*
X004662Y013819D02*
X009413Y013819D01*
X009304Y014057D02*
X004662Y014057D01*
X004662Y014296D02*
X009292Y014296D01*
X009292Y014534D02*
X004662Y014534D01*
X004662Y014773D02*
X009292Y014773D01*
X009298Y015011D02*
X004662Y015011D01*
X004662Y015250D02*
X009398Y015250D01*
X009708Y015489D02*
X004662Y015489D01*
X004662Y015727D02*
X010605Y015727D01*
X010532Y015489D02*
X010235Y015489D01*
X010843Y015966D02*
X004662Y015966D01*
X004826Y016204D02*
X011082Y016204D01*
X011320Y016443D02*
X010065Y016443D01*
X010303Y016681D02*
X011559Y016681D01*
X011798Y016920D02*
X010542Y016920D01*
X010781Y017158D02*
X012036Y017158D01*
X012348Y017397D02*
X011019Y017397D01*
X011258Y017635D02*
X014263Y017635D01*
X014221Y017932D02*
X013998Y017932D01*
X013682Y018248D01*
X013682Y018471D01*
X014221Y018471D01*
X014221Y017932D01*
X014221Y018112D02*
X014222Y018112D01*
X014221Y018351D02*
X014222Y018351D01*
X014221Y018472D02*
X013682Y018472D01*
X013682Y018695D01*
X013998Y019012D01*
X014221Y019012D01*
X014221Y018472D01*
X014221Y018590D02*
X014222Y018590D01*
X014221Y018828D02*
X014222Y018828D01*
X013814Y018828D02*
X013512Y018828D01*
X013512Y018722D02*
X013512Y019084D01*
X013498Y019168D01*
X013472Y019249D01*
X013434Y019325D01*
X013384Y019394D01*
X013324Y019454D01*
X013255Y019504D01*
X013179Y019542D01*
X013098Y019568D01*
X013014Y019582D01*
X012972Y019582D01*
X012972Y018722D01*
X013512Y018722D01*
X013512Y018590D02*
X013682Y018590D01*
X013682Y018351D02*
X013510Y018351D01*
X013429Y018112D02*
X013817Y018112D01*
X014502Y017874D02*
X013091Y017874D01*
X012972Y017874D02*
X012971Y017874D01*
X012852Y017874D02*
X012406Y017874D01*
X012971Y018112D02*
X012972Y018112D01*
X012971Y018351D02*
X012972Y018351D01*
X012971Y018590D02*
X012972Y018590D01*
X012971Y018828D02*
X012972Y018828D01*
X012971Y019067D02*
X012972Y019067D01*
X012971Y019305D02*
X012972Y019305D01*
X012971Y019544D02*
X012972Y019544D01*
X013174Y019544D02*
X017782Y019544D01*
X017782Y019782D02*
X006466Y019782D01*
X006502Y019648D02*
X006421Y019951D01*
X006264Y020222D01*
X006042Y020444D01*
X005771Y020601D01*
X005468Y020682D01*
X005155Y020682D01*
X004852Y020601D01*
X004581Y020444D01*
X004360Y020222D01*
X004203Y019951D01*
X004122Y019648D01*
X004122Y019335D01*
X004203Y019032D01*
X004360Y018761D01*
X004581Y018540D01*
X004852Y018383D01*
X005155Y018302D01*
X005468Y018302D01*
X005771Y018383D01*
X006042Y018540D01*
X006264Y018761D01*
X006421Y019032D01*
X006502Y019335D01*
X006502Y019648D01*
X006502Y019544D02*
X007262Y019544D01*
X007095Y019305D02*
X006494Y019305D01*
X006430Y019067D02*
X007042Y019067D01*
X007042Y018828D02*
X006303Y018828D01*
X006092Y018590D02*
X007042Y018590D01*
X007042Y018351D02*
X005652Y018351D01*
X004971Y018351D02*
X000462Y018351D01*
X000462Y018112D02*
X006990Y018112D01*
X006752Y017874D02*
X000462Y017874D01*
X000462Y017635D02*
X004321Y017635D01*
X004025Y017397D02*
X000462Y017397D01*
X000462Y017158D02*
X003786Y017158D01*
X003548Y016920D02*
X000462Y016920D01*
X000462Y016681D02*
X003332Y016681D01*
X003282Y016443D02*
X000462Y016443D01*
X000462Y016204D02*
X003282Y016204D01*
X003282Y015966D02*
X000462Y015966D01*
X000462Y015727D02*
X003282Y015727D01*
X003282Y015489D02*
X000462Y015489D01*
X000462Y015250D02*
X003282Y015250D01*
X003282Y015011D02*
X000462Y015011D01*
X000462Y014773D02*
X003282Y014773D01*
X003282Y014534D02*
X000462Y014534D01*
X000462Y014296D02*
X003282Y014296D01*
X003282Y014057D02*
X000462Y014057D01*
X000462Y013819D02*
X003282Y013819D01*
X003282Y013580D02*
X000462Y013580D01*
X000462Y013342D02*
X003282Y013342D01*
X003282Y013103D02*
X002322Y013103D01*
X002256Y013142D02*
X001953Y013223D01*
X001640Y013223D01*
X001337Y013142D01*
X001066Y012985D01*
X000844Y012763D01*
X000688Y012492D01*
X000607Y012189D01*
X000607Y011876D01*
X000688Y011573D01*
X000844Y011302D01*
X001066Y011081D01*
X001337Y010924D01*
X001640Y010843D01*
X001953Y010843D01*
X002256Y010924D01*
X002527Y011081D01*
X002749Y011302D01*
X002905Y011573D01*
X002986Y011876D01*
X002986Y012189D01*
X002905Y012492D01*
X002749Y012763D01*
X002527Y012985D01*
X002256Y013142D01*
X002647Y012865D02*
X003282Y012865D01*
X003282Y012626D02*
X002828Y012626D01*
X002933Y012387D02*
X003282Y012387D01*
X003282Y012149D02*
X002986Y012149D01*
X002986Y011910D02*
X003282Y011910D01*
X003282Y011672D02*
X002932Y011672D01*
X002824Y011433D02*
X003282Y011433D01*
X003282Y011195D02*
X002641Y011195D01*
X002312Y010956D02*
X003282Y010956D01*
X003282Y010718D02*
X000462Y010718D01*
X000462Y010956D02*
X001281Y010956D01*
X000952Y011195D02*
X000462Y011195D01*
X000462Y011433D02*
X000769Y011433D01*
X000661Y011672D02*
X000462Y011672D01*
X000462Y011910D02*
X000607Y011910D01*
X000607Y012149D02*
X000462Y012149D01*
X000462Y012387D02*
X000660Y012387D01*
X000765Y012626D02*
X000462Y012626D01*
X000462Y012865D02*
X000946Y012865D01*
X001271Y013103D02*
X000462Y013103D01*
X000462Y010479D02*
X003282Y010479D01*
X003282Y010241D02*
X000462Y010241D01*
X000462Y010002D02*
X003282Y010002D01*
X003282Y009763D02*
X000462Y009763D01*
X000462Y009525D02*
X003282Y009525D01*
X003282Y009286D02*
X000462Y009286D01*
X000462Y009048D02*
X003282Y009048D01*
X003282Y008809D02*
X000462Y008809D01*
X000462Y008571D02*
X003282Y008571D01*
X003303Y008332D02*
X000462Y008332D01*
X000462Y008094D02*
X003478Y008094D01*
X003716Y007855D02*
X000462Y007855D01*
X000462Y007617D02*
X003955Y007617D01*
X004193Y007378D02*
X000462Y007378D01*
X000462Y007139D02*
X005176Y007139D01*
X005029Y009286D02*
X004662Y009286D01*
X004662Y009525D02*
X004914Y009525D01*
X004892Y009763D02*
X004662Y009763D01*
X004662Y010002D02*
X004949Y010002D01*
X007519Y017397D02*
X009775Y017397D01*
X010013Y017635D02*
X007758Y017635D01*
X008156Y017874D02*
X008288Y017874D01*
X009156Y017874D02*
X009602Y017874D01*
X009721Y017874D02*
X009722Y017874D01*
X009841Y017874D02*
X010252Y017874D01*
X010179Y018112D02*
X010355Y018112D01*
X010292Y018351D02*
X010260Y018351D01*
X010262Y018590D02*
X010292Y018590D01*
X010262Y018722D02*
X009722Y018722D01*
X009722Y019582D01*
X009764Y019582D01*
X009848Y019568D01*
X009929Y019542D01*
X010005Y019504D01*
X010074Y019454D01*
X010134Y019394D01*
X010184Y019325D01*
X010222Y019249D01*
X010248Y019168D01*
X010262Y019084D01*
X010262Y018722D01*
X010262Y018828D02*
X010292Y018828D01*
X010292Y019067D02*
X010262Y019067D01*
X010194Y019305D02*
X010345Y019305D01*
X010512Y019544D02*
X009924Y019544D01*
X009722Y019544D02*
X009721Y019544D01*
X009519Y019544D02*
X009181Y019544D01*
X009721Y019305D02*
X009722Y019305D01*
X009721Y019067D02*
X009722Y019067D01*
X009721Y018828D02*
X009722Y018828D01*
X009721Y018590D02*
X009722Y018590D01*
X009721Y018351D02*
X009722Y018351D01*
X009721Y018112D02*
X009722Y018112D01*
X011407Y017874D02*
X011538Y017874D01*
X011512Y019544D02*
X011431Y019544D01*
X012431Y019544D02*
X012769Y019544D01*
X013444Y019305D02*
X017782Y019305D01*
X017782Y019067D02*
X017588Y019067D01*
X016855Y019067D02*
X016588Y019067D01*
X015855Y019067D02*
X015588Y019067D01*
X014855Y019067D02*
X013512Y019067D01*
X013803Y021929D02*
X009652Y021929D01*
X009652Y021766D02*
X009548Y021517D01*
X009357Y021325D01*
X009107Y021222D01*
X008836Y021222D01*
X008587Y021325D01*
X008472Y021440D01*
X008357Y021325D01*
X008107Y021222D01*
X007836Y021222D01*
X007587Y021325D01*
X007395Y021517D01*
X007382Y021548D01*
X007324Y021490D01*
X007255Y021440D01*
X007179Y021401D01*
X007098Y021375D01*
X007014Y021362D01*
X006972Y021362D01*
X006972Y022221D01*
X006971Y022221D01*
X006971Y021362D01*
X006929Y021362D01*
X006845Y021375D01*
X006764Y021401D01*
X006689Y021440D01*
X006620Y021490D01*
X006561Y021548D01*
X006548Y021517D01*
X006357Y021325D01*
X006107Y021222D01*
X005836Y021222D01*
X005587Y021325D01*
X005472Y021440D01*
X005357Y021325D01*
X005107Y021222D01*
X004836Y021222D01*
X004587Y021325D01*
X004395Y021517D01*
X004382Y021548D01*
X004324Y021490D01*
X004255Y021440D01*
X004179Y021401D01*
X004098Y021375D01*
X004014Y021362D01*
X003972Y021362D01*
X003972Y022221D01*
X003971Y022221D01*
X003971Y021362D01*
X003929Y021362D01*
X003845Y021375D01*
X003764Y021401D01*
X003689Y021440D01*
X003620Y021490D01*
X003560Y021550D01*
X003510Y021619D01*
X003471Y021694D01*
X003445Y021775D01*
X003432Y021859D01*
X003432Y022221D01*
X003971Y022221D01*
X003971Y022222D01*
X003432Y022222D01*
X003432Y022584D01*
X003445Y022668D01*
X003471Y022749D01*
X003510Y022825D01*
X003560Y022894D01*
X003620Y022954D01*
X003689Y023004D01*
X003764Y023042D01*
X003845Y023068D01*
X003929Y023082D01*
X003971Y023082D01*
X003971Y022222D01*
X003972Y022222D01*
X003972Y023082D01*
X004014Y023082D01*
X004098Y023068D01*
X004179Y023042D01*
X004255Y023004D01*
X004324Y022954D01*
X004382Y022895D01*
X004395Y022927D01*
X004587Y023118D01*
X004836Y023222D01*
X005107Y023222D01*
X005357Y023118D01*
X005472Y023003D01*
X005587Y023118D01*
X005836Y023222D01*
X006107Y023222D01*
X006357Y023118D01*
X006548Y022927D01*
X006561Y022895D01*
X006620Y022954D01*
X006689Y023004D01*
X006764Y023042D01*
X006845Y023068D01*
X006929Y023082D01*
X006971Y023082D01*
X006971Y022222D01*
X006972Y022222D01*
X006972Y023082D01*
X007014Y023082D01*
X007098Y023068D01*
X007179Y023042D01*
X007255Y023004D01*
X007324Y022954D01*
X007382Y022895D01*
X007395Y022927D01*
X007587Y023118D01*
X007836Y023222D01*
X008107Y023222D01*
X008357Y023118D01*
X008472Y023003D01*
X008587Y023118D01*
X008836Y023222D01*
X009107Y023222D01*
X009357Y023118D01*
X009548Y022927D01*
X009652Y022677D01*
X009652Y021766D01*
X009620Y021691D02*
X017782Y021691D01*
X017782Y021929D02*
X017641Y021929D01*
X017782Y021452D02*
X009484Y021452D01*
X009652Y022168D02*
X013564Y022168D01*
X013542Y022406D02*
X009652Y022406D01*
X009652Y022645D02*
X013542Y022645D01*
X013672Y022883D02*
X009566Y022883D01*
X009348Y023122D02*
X013910Y023122D01*
X014533Y023122D02*
X014910Y023122D01*
X015533Y023122D02*
X016910Y023122D01*
X016672Y022883D02*
X016574Y022883D01*
X016222Y022883D02*
X016221Y022883D01*
X016221Y022645D02*
X016222Y022645D01*
X016221Y022406D02*
X016222Y022406D01*
X016221Y022168D02*
X016222Y022168D01*
X015641Y021929D02*
X016803Y021929D01*
X017782Y021214D02*
X000462Y021214D01*
X000462Y021452D02*
X003672Y021452D01*
X003971Y021452D02*
X003972Y021452D01*
X003971Y021691D02*
X003972Y021691D01*
X003971Y021929D02*
X003972Y021929D01*
X003971Y022168D02*
X003972Y022168D01*
X003971Y022406D02*
X003972Y022406D01*
X003971Y022645D02*
X003972Y022645D01*
X003971Y022883D02*
X003972Y022883D01*
X003552Y022883D02*
X000462Y022883D01*
X000462Y022645D02*
X003441Y022645D01*
X003432Y022406D02*
X000462Y022406D01*
X000462Y022168D02*
X003432Y022168D01*
X003432Y021929D02*
X000462Y021929D01*
X000462Y021691D02*
X003473Y021691D01*
X004271Y021452D02*
X004460Y021452D01*
X004675Y020498D02*
X000462Y020498D01*
X000462Y020736D02*
X017782Y020736D01*
X017782Y020498D02*
X005949Y020498D01*
X006227Y020259D02*
X017782Y020259D01*
X017782Y020021D02*
X006380Y020021D01*
X004531Y018590D02*
X000462Y018590D01*
X000462Y018828D02*
X004321Y018828D01*
X004194Y019067D02*
X000462Y019067D01*
X000462Y019305D02*
X004130Y019305D01*
X004122Y019544D02*
X000462Y019544D01*
X000462Y019782D02*
X004158Y019782D01*
X004243Y020021D02*
X000462Y020021D01*
X000462Y020259D02*
X004397Y020259D01*
X006484Y021452D02*
X006672Y021452D01*
X006971Y021452D02*
X006972Y021452D01*
X006971Y021691D02*
X006972Y021691D01*
X006971Y021929D02*
X006972Y021929D01*
X006971Y022168D02*
X006972Y022168D01*
X006971Y022406D02*
X006972Y022406D01*
X006971Y022645D02*
X006972Y022645D01*
X006971Y022883D02*
X006972Y022883D01*
X006690Y023292D02*
X007253Y023292D01*
X007472Y023510D01*
X007690Y023292D01*
X008253Y023292D01*
X008472Y023510D01*
X008690Y023292D01*
X009253Y023292D01*
X009652Y023690D01*
X009652Y024253D01*
X009253Y024652D01*
X008690Y024652D01*
X008472Y024433D01*
X008253Y024652D01*
X007690Y024652D01*
X007472Y024433D01*
X007253Y024652D01*
X006690Y024652D01*
X006472Y024433D01*
X006253Y024652D01*
X005690Y024652D01*
X005472Y024433D01*
X005253Y024652D01*
X004690Y024652D01*
X004292Y024253D01*
X004292Y023690D01*
X004690Y023292D01*
X005253Y023292D01*
X005472Y023510D01*
X005690Y023292D01*
X006253Y023292D01*
X006472Y023510D01*
X006690Y023292D01*
X006621Y023360D02*
X006322Y023360D01*
X006348Y023122D02*
X007595Y023122D01*
X007621Y023360D02*
X007322Y023360D01*
X008322Y023360D02*
X008621Y023360D01*
X008595Y023122D02*
X008348Y023122D01*
X009322Y023360D02*
X017782Y023360D01*
X017782Y023122D02*
X017533Y023122D01*
X017772Y022883D02*
X017782Y022883D01*
X017722Y023599D02*
X009561Y023599D01*
X009652Y023838D02*
X017484Y023838D01*
X018013Y024553D02*
X018565Y024553D01*
X018532Y024792D02*
X017774Y024792D01*
X017695Y025030D02*
X017248Y025030D01*
X016695Y025030D02*
X016248Y025030D01*
X015695Y025030D02*
X015248Y025030D01*
X014695Y025030D02*
X014248Y025030D01*
X013695Y025030D02*
X013248Y025030D01*
X012695Y025030D02*
X012248Y025030D01*
X011695Y025030D02*
X011035Y025030D01*
X010797Y025269D02*
X011394Y025269D01*
X011296Y025507D02*
X010558Y025507D01*
X010320Y025746D02*
X011292Y025746D01*
X011292Y025984D02*
X007081Y025984D01*
X006843Y026223D02*
X011292Y026223D01*
X011306Y026461D02*
X006604Y026461D01*
X006366Y026700D02*
X007121Y026700D01*
X006883Y026939D02*
X006127Y026939D01*
X005889Y027177D02*
X006644Y027177D01*
X006532Y027416D02*
X006377Y027416D01*
X005360Y026461D02*
X000462Y026461D01*
X000462Y026223D02*
X005598Y026223D01*
X005837Y025984D02*
X000462Y025984D01*
X000462Y025746D02*
X006075Y025746D01*
X006314Y025507D02*
X000462Y025507D01*
X000462Y025269D02*
X006552Y025269D01*
X006592Y024553D02*
X006352Y024553D01*
X005592Y024553D02*
X005352Y024553D01*
X004592Y024553D02*
X000462Y024553D01*
X000462Y024315D02*
X004353Y024315D01*
X004292Y024076D02*
X000462Y024076D01*
X000462Y023838D02*
X004292Y023838D01*
X004383Y023599D02*
X000462Y023599D01*
X000462Y023360D02*
X004621Y023360D01*
X004595Y023122D02*
X000462Y023122D01*
X000462Y024792D02*
X010029Y024792D01*
X009791Y025030D02*
X000462Y025030D01*
X000462Y026700D02*
X005121Y026700D01*
X004883Y026939D02*
X000462Y026939D01*
X000462Y027177D02*
X004644Y027177D01*
X004532Y027416D02*
X000462Y027416D01*
X000462Y027654D02*
X004328Y027654D01*
X004292Y027893D02*
X000462Y027893D01*
X000462Y028131D02*
X002620Y028131D01*
X002587Y028145D02*
X002836Y028042D01*
X003107Y028042D01*
X003357Y028145D01*
X003548Y028337D01*
X003652Y028586D01*
X003652Y028857D01*
X003548Y029107D01*
X003357Y029298D01*
X003107Y029402D01*
X002836Y029402D01*
X002587Y029298D01*
X002395Y029107D01*
X002382Y029075D01*
X002195Y029262D01*
X001972Y029262D01*
X001972Y028722D01*
X001971Y028722D01*
X001971Y028721D01*
X001972Y028721D01*
X001972Y028182D01*
X002195Y028182D01*
X002382Y028368D01*
X002395Y028337D01*
X002587Y028145D01*
X001971Y028182D02*
X001971Y028721D01*
X001432Y028721D01*
X001432Y028498D01*
X001748Y028182D01*
X001971Y028182D01*
X001971Y028370D02*
X001972Y028370D01*
X001971Y028608D02*
X001972Y028608D01*
X001971Y028722D02*
X001432Y028722D01*
X001432Y028945D01*
X001748Y029262D01*
X001971Y029262D01*
X001971Y028722D01*
X001971Y028847D02*
X001972Y028847D01*
X001971Y029085D02*
X001972Y029085D01*
X002372Y029085D02*
X002386Y029085D01*
X002649Y029324D02*
X000462Y029324D01*
X000462Y029085D02*
X001572Y029085D01*
X001432Y028847D02*
X000462Y028847D01*
X000462Y028608D02*
X001432Y028608D01*
X001560Y028370D02*
X000462Y028370D01*
X000462Y029563D02*
X006940Y029563D01*
X007179Y029801D02*
X000462Y029801D01*
X000462Y030040D02*
X007417Y030040D01*
X007656Y030278D02*
X000462Y030278D01*
X000462Y030517D02*
X007894Y030517D01*
X008032Y030755D02*
X002509Y030755D01*
X002527Y030766D02*
X002749Y030987D01*
X002905Y031258D01*
X002986Y031561D01*
X002986Y031874D01*
X002905Y032177D01*
X002749Y032448D01*
X002527Y032670D01*
X002256Y032827D01*
X001953Y032908D01*
X001640Y032908D01*
X001337Y032827D01*
X001066Y032670D01*
X000844Y032448D01*
X000688Y032177D01*
X000607Y031874D01*
X000607Y031561D01*
X000688Y031258D01*
X000844Y030987D01*
X001066Y030766D01*
X001337Y030609D01*
X001640Y030528D01*
X001953Y030528D01*
X002256Y030609D01*
X002527Y030766D01*
X002752Y030994D02*
X007116Y030994D01*
X007120Y030990D02*
X007189Y030940D01*
X007264Y030901D01*
X007345Y030875D01*
X007429Y030862D01*
X007471Y030862D01*
X007471Y031721D01*
X006932Y031721D01*
X006932Y031359D01*
X006945Y031275D01*
X006971Y031194D01*
X007010Y031119D01*
X007060Y031050D01*
X007120Y030990D01*
X006959Y031232D02*
X002890Y031232D01*
X002962Y031471D02*
X006932Y031471D01*
X006932Y031709D02*
X002986Y031709D01*
X002967Y031948D02*
X006932Y031948D01*
X006932Y032084D02*
X006932Y031722D01*
X007471Y031722D01*
X007471Y032582D01*
X007429Y032582D01*
X007345Y032568D01*
X007264Y032542D01*
X007189Y032504D01*
X007120Y032454D01*
X007060Y032394D01*
X007010Y032325D01*
X006971Y032249D01*
X006945Y032168D01*
X006932Y032084D01*
X006951Y032187D02*
X002900Y032187D01*
X002762Y032425D02*
X007091Y032425D01*
X007471Y032425D02*
X007472Y032425D01*
X007471Y032187D02*
X007472Y032187D01*
X007471Y031948D02*
X007472Y031948D01*
X007471Y031709D02*
X007472Y031709D01*
X007471Y031471D02*
X007472Y031471D01*
X007471Y031232D02*
X007472Y031232D01*
X007471Y030994D02*
X007472Y030994D01*
X007827Y030994D02*
X007918Y030994D01*
X007894Y032425D02*
X007852Y032425D01*
X008196Y032664D02*
X002533Y032664D01*
X001974Y032902D02*
X037840Y032902D01*
X037860Y032908D02*
X037558Y032827D01*
X037286Y032670D01*
X037065Y032448D01*
X036908Y032177D01*
X036827Y031874D01*
X036827Y031561D01*
X036908Y031258D01*
X037065Y030987D01*
X037286Y030766D01*
X037558Y030609D01*
X037860Y030528D01*
X038174Y030528D01*
X038476Y030609D01*
X038748Y030766D01*
X038969Y030987D01*
X039126Y031258D01*
X039207Y031561D01*
X039207Y031874D01*
X039126Y032177D01*
X038969Y032448D01*
X038748Y032670D01*
X038476Y032827D01*
X038174Y032908D01*
X037860Y032908D01*
X038194Y032902D02*
X039352Y032902D01*
X039352Y032664D02*
X038754Y032664D01*
X038983Y032425D02*
X039352Y032425D01*
X039352Y032187D02*
X039120Y032187D01*
X039187Y031948D02*
X039352Y031948D01*
X039352Y031709D02*
X039207Y031709D01*
X039183Y031471D02*
X039352Y031471D01*
X039352Y031232D02*
X039111Y031232D01*
X038973Y030994D02*
X039352Y030994D01*
X039352Y030755D02*
X038730Y030755D01*
X039352Y030517D02*
X028873Y030517D01*
X028902Y030586D02*
X028798Y030337D01*
X028607Y030145D01*
X028357Y030042D01*
X028086Y030042D01*
X027837Y030145D01*
X027645Y030337D01*
X027542Y030586D01*
X027542Y030857D01*
X027645Y031107D01*
X027760Y031222D01*
X027645Y031337D01*
X027542Y031586D01*
X027542Y031857D01*
X027645Y032107D01*
X027837Y032298D01*
X028086Y032402D01*
X028357Y032402D01*
X028607Y032298D01*
X028798Y032107D01*
X028902Y031857D01*
X028902Y031586D01*
X028798Y031337D01*
X028683Y031222D01*
X028798Y031107D01*
X028902Y030857D01*
X028902Y030586D01*
X028902Y030755D02*
X033118Y030755D01*
X033262Y030612D02*
X034181Y030612D01*
X034832Y031262D01*
X034832Y032181D01*
X034181Y032832D01*
X033262Y032832D01*
X032612Y032181D01*
X032612Y031262D01*
X033262Y030612D01*
X032880Y030994D02*
X028845Y030994D01*
X028694Y031232D02*
X032641Y031232D01*
X032612Y031471D02*
X028854Y031471D01*
X028902Y031709D02*
X032612Y031709D01*
X032612Y031948D02*
X028864Y031948D01*
X028719Y032187D02*
X032617Y032187D01*
X032855Y032425D02*
X023049Y032425D01*
X023148Y032187D02*
X027725Y032187D01*
X027579Y031948D02*
X023152Y031948D01*
X023152Y031709D02*
X027542Y031709D01*
X027590Y031471D02*
X023152Y031471D01*
X023138Y031232D02*
X027749Y031232D01*
X027598Y030994D02*
X023025Y030994D01*
X022858Y030755D02*
X027542Y030755D01*
X027571Y030517D02*
X022639Y030517D01*
X022721Y030599D02*
X022721Y030599D01*
X022400Y030278D02*
X027704Y030278D01*
X027357Y029868D02*
X027107Y029972D01*
X026836Y029972D01*
X026587Y029868D01*
X026472Y029753D01*
X026357Y029868D01*
X026107Y029972D01*
X025836Y029972D01*
X025587Y029868D01*
X025472Y029753D01*
X025357Y029868D01*
X025107Y029972D01*
X024836Y029972D01*
X024587Y029868D01*
X024395Y029677D01*
X024382Y029645D01*
X024324Y029704D01*
X024255Y029754D01*
X024179Y029792D01*
X024098Y029818D01*
X024014Y029832D01*
X023972Y029832D01*
X023972Y028972D01*
X023971Y028972D01*
X023971Y028971D01*
X023432Y028971D01*
X023432Y028609D01*
X023445Y028525D01*
X023471Y028444D01*
X023510Y028369D01*
X023560Y028300D01*
X023620Y028240D01*
X023689Y028190D01*
X023764Y028151D01*
X023845Y028125D01*
X023929Y028112D01*
X023971Y028112D01*
X023971Y028971D01*
X023972Y028971D01*
X023972Y028112D01*
X024014Y028112D01*
X024098Y028125D01*
X024179Y028151D01*
X024255Y028190D01*
X024324Y028240D01*
X024382Y028298D01*
X024395Y028267D01*
X024587Y028075D01*
X024836Y027972D01*
X025107Y027972D01*
X025357Y028075D01*
X025472Y028190D01*
X025587Y028075D01*
X025836Y027972D01*
X026107Y027972D01*
X026357Y028075D01*
X026472Y028190D01*
X026587Y028075D01*
X026836Y027972D01*
X027107Y027972D01*
X027357Y028075D01*
X027548Y028267D01*
X027652Y028516D01*
X027652Y029427D01*
X027548Y029677D01*
X027357Y029868D01*
X027424Y029801D02*
X039352Y029801D01*
X039352Y029563D02*
X027596Y029563D01*
X027652Y029324D02*
X039352Y029324D01*
X039352Y029085D02*
X027652Y029085D01*
X027652Y028847D02*
X039352Y028847D01*
X039352Y028608D02*
X027652Y028608D01*
X027591Y028370D02*
X039352Y028370D01*
X039352Y028131D02*
X027413Y028131D01*
X026530Y028131D02*
X026413Y028131D01*
X025530Y028131D02*
X025413Y028131D01*
X024530Y028131D02*
X024117Y028131D01*
X023972Y028131D02*
X023971Y028131D01*
X023826Y028131D02*
X021895Y028131D01*
X022012Y028248D02*
X021695Y027932D01*
X021472Y027932D01*
X021472Y028471D01*
X021471Y028471D01*
X020932Y028471D01*
X020932Y028248D01*
X021248Y027932D01*
X021471Y027932D01*
X021471Y028471D01*
X021471Y028472D01*
X020932Y028472D01*
X020932Y028695D01*
X021248Y029012D01*
X021471Y029012D01*
X021471Y028472D01*
X021472Y028472D01*
X021472Y029012D01*
X021695Y029012D01*
X022012Y028695D01*
X022012Y028472D01*
X021472Y028472D01*
X021472Y028471D01*
X022012Y028471D01*
X022012Y028248D01*
X022012Y028370D02*
X023509Y028370D01*
X023432Y028608D02*
X022012Y028608D01*
X021860Y028847D02*
X023432Y028847D01*
X023432Y028972D02*
X023971Y028972D01*
X023971Y029832D01*
X023929Y029832D01*
X023845Y029818D01*
X023764Y029792D01*
X023689Y029754D01*
X023620Y029704D01*
X023560Y029644D01*
X023510Y029575D01*
X023471Y029499D01*
X023445Y029418D01*
X023432Y029334D01*
X023432Y028972D01*
X023432Y029085D02*
X019512Y029085D01*
X019512Y028972D02*
X019512Y029334D01*
X019498Y029418D01*
X019472Y029499D01*
X019434Y029575D01*
X019384Y029644D01*
X019324Y029704D01*
X019255Y029754D01*
X019179Y029792D01*
X019098Y029818D01*
X019014Y029832D01*
X018972Y029832D01*
X018972Y028972D01*
X018971Y028972D01*
X018971Y028971D01*
X018972Y028971D01*
X018972Y028112D01*
X019014Y028112D01*
X019098Y028125D01*
X019179Y028151D01*
X019255Y028190D01*
X019324Y028240D01*
X019384Y028300D01*
X019434Y028369D01*
X019472Y028444D01*
X019498Y028525D01*
X019512Y028609D01*
X019512Y028971D01*
X018972Y028971D01*
X018972Y028972D01*
X019512Y028972D01*
X019512Y028847D02*
X021083Y028847D01*
X020932Y028608D02*
X019512Y028608D01*
X019434Y028370D02*
X020932Y028370D01*
X021049Y028131D02*
X019117Y028131D01*
X018972Y028131D02*
X018971Y028131D01*
X018971Y028112D02*
X018971Y028971D01*
X018432Y028971D01*
X017972Y028971D01*
X017972Y028112D01*
X018014Y028112D01*
X018098Y028125D01*
X018179Y028151D01*
X018255Y028190D01*
X018324Y028240D01*
X018384Y028300D01*
X018434Y028369D01*
X018472Y028444D01*
X018510Y028369D01*
X018560Y028300D01*
X018620Y028240D01*
X018689Y028190D01*
X018764Y028151D01*
X018845Y028125D01*
X018929Y028112D01*
X018971Y028112D01*
X018826Y028131D02*
X018117Y028131D01*
X017972Y028131D02*
X017971Y028131D01*
X017971Y028112D02*
X017971Y028971D01*
X017972Y028971D01*
X017972Y028972D01*
X017971Y028972D01*
X017971Y028971D01*
X017512Y028971D01*
X016972Y028971D01*
X016972Y028112D01*
X017014Y028112D01*
X017098Y028125D01*
X017179Y028151D01*
X017255Y028190D01*
X017324Y028240D01*
X017384Y028300D01*
X017434Y028369D01*
X017472Y028444D01*
X017510Y028369D01*
X017560Y028300D01*
X017620Y028240D01*
X017689Y028190D01*
X017764Y028151D01*
X017845Y028125D01*
X017929Y028112D01*
X017971Y028112D01*
X017826Y028131D02*
X017117Y028131D01*
X016972Y028131D02*
X016971Y028131D01*
X016971Y028112D02*
X016971Y028971D01*
X016972Y028971D01*
X016972Y028972D01*
X016971Y028972D01*
X016971Y029832D01*
X016929Y029832D01*
X016845Y029818D01*
X016764Y029792D01*
X016689Y029754D01*
X016620Y029704D01*
X016561Y029645D01*
X016548Y029677D01*
X016357Y029868D01*
X016107Y029972D01*
X015836Y029972D01*
X015587Y029868D01*
X015472Y029753D01*
X015357Y029868D01*
X015107Y029972D01*
X014836Y029972D01*
X014587Y029868D01*
X014472Y029753D01*
X014357Y029868D01*
X014107Y029972D01*
X013836Y029972D01*
X013587Y029868D01*
X013472Y029753D01*
X013357Y029868D01*
X013107Y029972D01*
X012836Y029972D01*
X012587Y029868D01*
X012395Y029677D01*
X012382Y029645D01*
X012324Y029704D01*
X012255Y029754D01*
X012179Y029792D01*
X012098Y029818D01*
X012014Y029832D01*
X011972Y029832D01*
X011972Y028972D01*
X011971Y028972D01*
X011971Y028971D01*
X011432Y028971D01*
X011432Y028609D01*
X011445Y028525D01*
X011471Y028444D01*
X011510Y028369D01*
X011560Y028300D01*
X011620Y028240D01*
X011689Y028190D01*
X011764Y028151D01*
X011845Y028125D01*
X011929Y028112D01*
X011971Y028112D01*
X011971Y028971D01*
X011972Y028971D01*
X011972Y028112D01*
X012014Y028112D01*
X012098Y028125D01*
X012179Y028151D01*
X012255Y028190D01*
X012324Y028240D01*
X012382Y028298D01*
X012395Y028267D01*
X012587Y028075D01*
X012836Y027972D01*
X013107Y027972D01*
X013357Y028075D01*
X013472Y028190D01*
X013587Y028075D01*
X013836Y027972D01*
X014107Y027972D01*
X014357Y028075D01*
X014472Y028190D01*
X014587Y028075D01*
X014836Y027972D01*
X015107Y027972D01*
X015357Y028075D01*
X015472Y028190D01*
X015587Y028075D01*
X015836Y027972D01*
X016107Y027972D01*
X016357Y028075D01*
X016548Y028267D01*
X016561Y028298D01*
X016620Y028240D01*
X016689Y028190D01*
X016764Y028151D01*
X016845Y028125D01*
X016929Y028112D01*
X016971Y028112D01*
X016826Y028131D02*
X016413Y028131D01*
X016971Y028370D02*
X016972Y028370D01*
X016971Y028608D02*
X016972Y028608D01*
X016971Y028847D02*
X016972Y028847D01*
X016972Y028972D02*
X017512Y028972D01*
X017971Y028972D01*
X017971Y029832D01*
X017929Y029832D01*
X017845Y029818D01*
X017764Y029792D01*
X017689Y029754D01*
X017620Y029704D01*
X017560Y029644D01*
X017510Y029575D01*
X017472Y029500D01*
X017434Y029575D01*
X017384Y029644D01*
X017324Y029704D01*
X017255Y029754D01*
X017179Y029792D01*
X017098Y029818D01*
X017014Y029832D01*
X016972Y029832D01*
X016972Y028972D01*
X016971Y029085D02*
X016972Y029085D01*
X016971Y029324D02*
X016972Y029324D01*
X016971Y029563D02*
X016972Y029563D01*
X016971Y029801D02*
X016972Y029801D01*
X017151Y029801D02*
X017792Y029801D01*
X017971Y029801D02*
X017972Y029801D01*
X017972Y029832D02*
X017972Y028972D01*
X018432Y028972D01*
X018971Y028972D01*
X018971Y029832D01*
X018929Y029832D01*
X018845Y029818D01*
X018764Y029792D01*
X018689Y029754D01*
X018620Y029704D01*
X018560Y029644D01*
X018510Y029575D01*
X018472Y029500D01*
X018434Y029575D01*
X018384Y029644D01*
X018324Y029704D01*
X018255Y029754D01*
X018179Y029792D01*
X018098Y029818D01*
X018014Y029832D01*
X017972Y029832D01*
X018151Y029801D02*
X018792Y029801D01*
X018971Y029801D02*
X018972Y029801D01*
X019151Y029801D02*
X023792Y029801D01*
X023971Y029801D02*
X023972Y029801D01*
X024151Y029801D02*
X024519Y029801D01*
X023972Y029563D02*
X023971Y029563D01*
X023971Y029324D02*
X023972Y029324D01*
X023971Y029085D02*
X023972Y029085D01*
X023971Y028847D02*
X023972Y028847D01*
X023971Y028608D02*
X023972Y028608D01*
X023971Y028370D02*
X023972Y028370D01*
X023432Y029324D02*
X019512Y029324D01*
X019440Y029563D02*
X023504Y029563D01*
X022078Y030040D02*
X039352Y030040D01*
X039352Y030278D02*
X028740Y030278D01*
X026519Y029801D02*
X026424Y029801D01*
X025519Y029801D02*
X025424Y029801D01*
X025187Y026939D02*
X025757Y026939D01*
X026187Y026939D02*
X026757Y026939D01*
X027187Y026939D02*
X039352Y026939D01*
X039352Y027177D02*
X018889Y027177D01*
X018650Y027416D02*
X039352Y027416D01*
X039352Y027654D02*
X018411Y027654D01*
X018105Y027893D02*
X039352Y027893D01*
X039352Y026700D02*
X027525Y026700D01*
X027637Y026461D02*
X039352Y026461D01*
X039352Y026223D02*
X027652Y026223D01*
X027652Y025984D02*
X039352Y025984D01*
X039352Y025746D02*
X027652Y025746D01*
X027648Y025507D02*
X039352Y025507D01*
X039352Y025269D02*
X027549Y025269D01*
X027248Y025030D02*
X039352Y025030D01*
X039352Y024792D02*
X025164Y024792D01*
X025369Y025030D02*
X025695Y025030D01*
X026248Y025030D02*
X026695Y025030D01*
X024925Y024553D02*
X039352Y024553D01*
X039352Y024315D02*
X034147Y024315D01*
X034020Y024442D02*
X033722Y024442D01*
X033722Y023722D01*
X034442Y023722D01*
X034442Y024020D01*
X034020Y024442D01*
X033721Y024442D02*
X033424Y024442D01*
X033002Y024020D01*
X033002Y023722D01*
X033721Y023722D01*
X033721Y023721D01*
X033722Y023721D01*
X033722Y023002D01*
X034020Y023002D01*
X034442Y023424D01*
X034442Y023721D01*
X033722Y023721D01*
X033722Y023722D01*
X033721Y023722D01*
X033721Y024442D01*
X033721Y024315D02*
X033722Y024315D01*
X033721Y024076D02*
X033722Y024076D01*
X033721Y023838D02*
X033722Y023838D01*
X033721Y023721D02*
X033002Y023721D01*
X033002Y023424D01*
X033424Y023002D01*
X033721Y023002D01*
X033721Y023721D01*
X033721Y023599D02*
X033722Y023599D01*
X033721Y023360D02*
X033722Y023360D01*
X033721Y023122D02*
X033722Y023122D01*
X034140Y023122D02*
X039352Y023122D01*
X039352Y023360D02*
X034379Y023360D01*
X034442Y023599D02*
X039352Y023599D01*
X039352Y023838D02*
X034442Y023838D01*
X034386Y024076D02*
X039352Y024076D01*
X039352Y022883D02*
X030324Y022883D01*
X030195Y023012D02*
X029972Y023012D01*
X029972Y022472D01*
X029971Y022472D01*
X029971Y022471D01*
X029972Y022471D01*
X029972Y021932D01*
X030195Y021932D01*
X030512Y022248D01*
X030512Y022471D01*
X029972Y022471D01*
X029972Y022472D01*
X030512Y022472D01*
X030512Y022695D01*
X030195Y023012D01*
X029971Y023012D02*
X029971Y022472D01*
X029432Y022472D01*
X028972Y022472D01*
X028971Y022472D01*
X028971Y022471D01*
X028972Y022471D01*
X028972Y021932D01*
X029195Y021932D01*
X029472Y022208D01*
X029748Y021932D01*
X029971Y021932D01*
X029971Y022471D01*
X029432Y022471D01*
X028972Y022471D01*
X028972Y022472D01*
X028972Y023012D01*
X029195Y023012D01*
X029472Y022735D01*
X029748Y023012D01*
X029971Y023012D01*
X029971Y022883D02*
X029972Y022883D01*
X029971Y022645D02*
X029972Y022645D01*
X029971Y022406D02*
X029972Y022406D01*
X029971Y022168D02*
X029972Y022168D01*
X029512Y022168D02*
X029431Y022168D01*
X028972Y022168D02*
X028971Y022168D01*
X028971Y021932D02*
X028748Y021932D01*
X028472Y022208D01*
X028195Y021932D01*
X027972Y021932D01*
X027972Y022471D01*
X027971Y022471D01*
X027971Y021932D01*
X027748Y021932D01*
X027472Y022208D01*
X027195Y021932D01*
X026972Y021932D01*
X026972Y022471D01*
X026971Y022471D01*
X026971Y021932D01*
X026748Y021932D01*
X026472Y022208D01*
X026195Y021932D01*
X025972Y021932D01*
X025972Y022471D01*
X025971Y022471D01*
X025432Y022471D01*
X025432Y022248D01*
X025748Y021932D01*
X025971Y021932D01*
X025971Y022471D01*
X025971Y022472D01*
X025432Y022472D01*
X025432Y022695D01*
X025748Y023012D01*
X025971Y023012D01*
X025971Y022472D01*
X025972Y022472D01*
X025972Y023012D01*
X026195Y023012D01*
X026472Y022735D01*
X026748Y023012D01*
X026971Y023012D01*
X026971Y022472D01*
X026971Y022471D01*
X026432Y022471D01*
X025972Y022471D01*
X025972Y022472D01*
X026432Y022472D01*
X026971Y022472D01*
X026972Y022472D01*
X026972Y023012D01*
X027195Y023012D01*
X027472Y022735D01*
X027748Y023012D01*
X027971Y023012D01*
X027971Y022472D01*
X027971Y022471D01*
X027432Y022471D01*
X026972Y022471D01*
X026972Y022472D01*
X027432Y022472D01*
X027971Y022472D01*
X027972Y022472D01*
X027972Y023012D01*
X028195Y023012D01*
X028472Y022735D01*
X028748Y023012D01*
X028971Y023012D01*
X028971Y022472D01*
X028432Y022472D01*
X027972Y022472D01*
X027972Y022471D01*
X028432Y022471D01*
X028971Y022471D01*
X028971Y021932D01*
X028512Y022168D02*
X028431Y022168D01*
X028971Y022406D02*
X028972Y022406D01*
X028971Y022645D02*
X028972Y022645D01*
X028971Y022883D02*
X028972Y022883D01*
X029324Y022883D02*
X029620Y022883D01*
X030512Y022645D02*
X039352Y022645D01*
X039352Y022406D02*
X030512Y022406D01*
X030431Y022168D02*
X039352Y022168D01*
X039352Y021929D02*
X024778Y021929D01*
X024695Y022012D02*
X024472Y022012D01*
X024472Y021472D01*
X025012Y021472D01*
X025012Y021695D01*
X024695Y022012D01*
X024472Y021929D02*
X024471Y021929D01*
X024471Y021691D02*
X024472Y021691D01*
X024471Y021471D02*
X023932Y021471D01*
X023932Y021248D01*
X024248Y020932D01*
X024471Y020932D01*
X024471Y021471D01*
X024471Y021452D02*
X024472Y021452D01*
X024471Y021214D02*
X024472Y021214D01*
X024471Y020975D02*
X024472Y020975D01*
X024739Y020975D02*
X039352Y020975D01*
X039352Y020736D02*
X023109Y020736D01*
X022870Y020498D02*
X034205Y020498D01*
X034111Y020444D02*
X033890Y020222D01*
X033733Y019951D01*
X033652Y019648D01*
X033652Y019335D01*
X033733Y019032D01*
X033890Y018761D01*
X034111Y018540D01*
X034382Y018383D01*
X034685Y018302D01*
X034998Y018302D01*
X035301Y018383D01*
X035572Y018540D01*
X035794Y018761D01*
X035951Y019032D01*
X036032Y019335D01*
X036032Y019648D01*
X035951Y019951D01*
X035794Y020222D01*
X035572Y020444D01*
X035301Y020601D01*
X034998Y020682D01*
X034685Y020682D01*
X034382Y020601D01*
X034111Y020444D01*
X033927Y020259D02*
X022632Y020259D01*
X022412Y020021D02*
X024059Y020021D01*
X024190Y020152D02*
X023792Y019753D01*
X023792Y019190D01*
X024190Y018792D01*
X024753Y018792D01*
X025152Y019190D01*
X025152Y019753D01*
X024753Y020152D01*
X024190Y020152D01*
X023821Y019782D02*
X022412Y019782D01*
X022412Y019544D02*
X023792Y019544D01*
X023792Y019305D02*
X022412Y019305D01*
X022412Y019067D02*
X023915Y019067D01*
X024154Y018828D02*
X022577Y018828D01*
X022652Y018590D02*
X025292Y018590D01*
X025292Y018351D02*
X022652Y018351D01*
X022574Y018112D02*
X025369Y018112D01*
X025608Y017874D02*
X022336Y017874D01*
X022315Y017635D02*
X022628Y017635D01*
X023315Y017635D02*
X023628Y017635D01*
X024315Y017635D02*
X024628Y017635D01*
X025315Y017635D02*
X025628Y017635D01*
X026315Y017635D02*
X026628Y017635D01*
X026608Y017874D02*
X026336Y017874D01*
X027336Y017874D02*
X027608Y017874D01*
X027628Y017635D02*
X027315Y017635D01*
X027338Y019067D02*
X027605Y019067D01*
X028338Y019067D02*
X028605Y019067D01*
X029338Y019067D02*
X029605Y019067D01*
X030338Y019067D02*
X033724Y019067D01*
X033660Y019305D02*
X025152Y019305D01*
X025152Y019544D02*
X033652Y019544D01*
X033688Y019782D02*
X025123Y019782D01*
X024884Y020021D02*
X033773Y020021D01*
X033851Y018828D02*
X030577Y018828D01*
X030652Y018590D02*
X034061Y018590D01*
X034501Y018351D02*
X030652Y018351D01*
X030662Y018112D02*
X039352Y018112D01*
X039352Y017874D02*
X030662Y017874D01*
X030662Y017635D02*
X039352Y017635D01*
X039352Y017397D02*
X030669Y017397D01*
X030907Y017158D02*
X039352Y017158D01*
X039352Y016920D02*
X036152Y016920D01*
X036356Y016681D02*
X039352Y016681D01*
X039352Y016443D02*
X036442Y016443D01*
X036442Y016204D02*
X039352Y016204D01*
X039352Y015966D02*
X036442Y015966D01*
X036442Y015727D02*
X039352Y015727D01*
X039352Y015489D02*
X036442Y015489D01*
X036351Y015250D02*
X039352Y015250D01*
X039352Y015011D02*
X036140Y015011D01*
X035645Y014773D02*
X039352Y014773D01*
X039352Y014534D02*
X035407Y014534D01*
X035168Y014296D02*
X039352Y014296D01*
X039352Y014057D02*
X034929Y014057D01*
X034691Y013819D02*
X039352Y013819D01*
X039352Y013580D02*
X034426Y013580D01*
X034062Y013103D02*
X032225Y013103D01*
X032162Y012865D02*
X033833Y012865D01*
X033735Y012626D02*
X032162Y012626D01*
X032162Y012387D02*
X033732Y012387D01*
X033804Y012149D02*
X032162Y012149D01*
X032162Y011910D02*
X033987Y011910D01*
X034957Y011910D02*
X035282Y011910D01*
X035050Y011672D02*
X032044Y011672D01*
X031840Y010718D02*
X039352Y010718D01*
X039352Y010956D02*
X038532Y010956D01*
X038476Y010924D02*
X038748Y011081D01*
X038969Y011302D01*
X039126Y011573D01*
X039207Y011876D01*
X039207Y012189D01*
X039126Y012492D01*
X038969Y012763D01*
X038748Y012985D01*
X038476Y013142D01*
X038174Y013223D01*
X037860Y013223D01*
X037558Y013142D01*
X037286Y012985D01*
X037065Y012763D01*
X036908Y012492D01*
X036827Y012189D01*
X036827Y011876D01*
X036908Y011573D01*
X037065Y011302D01*
X037286Y011081D01*
X037558Y010924D01*
X037860Y010843D01*
X038174Y010843D01*
X038476Y010924D01*
X038862Y011195D02*
X039352Y011195D01*
X039352Y011433D02*
X039045Y011433D01*
X039152Y011672D02*
X039352Y011672D01*
X039352Y011910D02*
X039207Y011910D01*
X039207Y012149D02*
X039352Y012149D01*
X039352Y012387D02*
X039154Y012387D01*
X039048Y012626D02*
X039352Y012626D01*
X039352Y012865D02*
X038868Y012865D01*
X038543Y013103D02*
X039352Y013103D01*
X039352Y013342D02*
X032464Y013342D01*
X032913Y014912D02*
X033789Y014912D01*
X033960Y015082D01*
X033944Y015074D01*
X033858Y015046D01*
X033767Y015032D01*
X033722Y015032D01*
X033722Y015971D01*
X033721Y015971D01*
X033721Y015032D01*
X033676Y015032D01*
X033586Y015046D01*
X033499Y015074D01*
X033418Y015116D01*
X033344Y015169D01*
X033321Y015193D01*
X033130Y015001D01*
X032913Y014912D01*
X033140Y015011D02*
X033889Y015011D01*
X033722Y015250D02*
X033721Y015250D01*
X033721Y015489D02*
X033722Y015489D01*
X033721Y015727D02*
X033722Y015727D01*
X033721Y015966D02*
X033722Y015966D01*
X033721Y016204D02*
X033722Y016204D01*
X033721Y016443D02*
X033722Y016443D01*
X033721Y016681D02*
X033722Y016681D01*
X033152Y016920D02*
X034292Y016920D01*
X035152Y016920D02*
X035292Y016920D01*
X035182Y018351D02*
X039352Y018351D01*
X039352Y018590D02*
X035622Y018590D01*
X035833Y018828D02*
X039352Y018828D01*
X039352Y019067D02*
X035960Y019067D01*
X036024Y019305D02*
X039352Y019305D01*
X039352Y019544D02*
X036032Y019544D01*
X035996Y019782D02*
X039352Y019782D01*
X039352Y020021D02*
X035910Y020021D01*
X035757Y020259D02*
X039352Y020259D01*
X039352Y020498D02*
X035479Y020498D01*
X033303Y023122D02*
X024412Y023122D01*
X024412Y023360D02*
X033065Y023360D01*
X033002Y023599D02*
X024412Y023599D01*
X024412Y023838D02*
X033002Y023838D01*
X033058Y024076D02*
X024448Y024076D01*
X024687Y024315D02*
X033296Y024315D01*
X028620Y022883D02*
X028324Y022883D01*
X027972Y022883D02*
X027971Y022883D01*
X027971Y022645D02*
X027972Y022645D01*
X027971Y022406D02*
X027972Y022406D01*
X027971Y022168D02*
X027972Y022168D01*
X027512Y022168D02*
X027431Y022168D01*
X026972Y022168D02*
X026971Y022168D01*
X026971Y022406D02*
X026972Y022406D01*
X026971Y022645D02*
X026972Y022645D01*
X026971Y022883D02*
X026972Y022883D01*
X027324Y022883D02*
X027620Y022883D01*
X026620Y022883D02*
X026324Y022883D01*
X025972Y022883D02*
X025971Y022883D01*
X025971Y022645D02*
X025972Y022645D01*
X025971Y022406D02*
X025972Y022406D01*
X025971Y022168D02*
X025972Y022168D01*
X025512Y022168D02*
X024412Y022168D01*
X024412Y022406D02*
X025432Y022406D01*
X025432Y022645D02*
X024412Y022645D01*
X024412Y022883D02*
X025620Y022883D01*
X026431Y022168D02*
X026512Y022168D01*
X025012Y021691D02*
X039352Y021691D01*
X039352Y021452D02*
X025012Y021452D01*
X024977Y021214D02*
X039352Y021214D01*
X032292Y016920D02*
X032152Y016920D01*
X031292Y016920D02*
X031146Y016920D01*
X026605Y019067D02*
X026338Y019067D01*
X025605Y019067D02*
X025028Y019067D01*
X024790Y018828D02*
X025366Y018828D01*
X024205Y020975D02*
X023347Y020975D01*
X023586Y021214D02*
X023966Y021214D01*
X023932Y021452D02*
X023824Y021452D01*
X022784Y022406D02*
X022652Y022406D01*
X022652Y022645D02*
X023023Y022645D01*
X023032Y022883D02*
X022522Y022883D01*
X022283Y023122D02*
X023032Y023122D01*
X023032Y023360D02*
X020412Y023360D01*
X020412Y023122D02*
X020660Y023122D01*
X020412Y023599D02*
X023032Y023599D01*
X023032Y023838D02*
X020400Y023838D01*
X020240Y024076D02*
X023032Y024076D01*
X023032Y024315D02*
X020001Y024315D01*
X019763Y024553D02*
X023032Y024553D01*
X023032Y024792D02*
X019524Y024792D01*
X019412Y025030D02*
X023158Y025030D01*
X023394Y025269D02*
X019549Y025269D01*
X019648Y025507D02*
X023296Y025507D01*
X023292Y025746D02*
X019652Y025746D01*
X019652Y025984D02*
X020997Y025984D01*
X021190Y025792D02*
X020792Y026190D01*
X020792Y026753D01*
X021190Y027152D01*
X021753Y027152D01*
X022152Y026753D01*
X022152Y026190D01*
X021753Y025792D01*
X021190Y025792D01*
X020792Y026223D02*
X019652Y026223D01*
X019637Y026461D02*
X020792Y026461D01*
X020792Y026700D02*
X019525Y026700D01*
X019187Y026939D02*
X020977Y026939D01*
X021966Y026939D02*
X023757Y026939D01*
X023418Y026700D02*
X022152Y026700D01*
X022152Y026461D02*
X023306Y026461D01*
X023292Y026223D02*
X022152Y026223D01*
X021946Y025984D02*
X023292Y025984D01*
X024187Y026939D02*
X024757Y026939D01*
X021472Y028131D02*
X021471Y028131D01*
X021471Y028370D02*
X021472Y028370D01*
X021471Y028608D02*
X021472Y028608D01*
X021471Y028847D02*
X021472Y028847D01*
X018972Y028847D02*
X018971Y028847D01*
X018971Y029085D02*
X018972Y029085D01*
X018971Y029324D02*
X018972Y029324D01*
X018971Y029563D02*
X018972Y029563D01*
X018504Y029563D02*
X018440Y029563D01*
X017972Y029563D02*
X017971Y029563D01*
X017971Y029324D02*
X017972Y029324D01*
X017971Y029085D02*
X017972Y029085D01*
X017971Y028847D02*
X017972Y028847D01*
X017971Y028608D02*
X017972Y028608D01*
X017971Y028370D02*
X017972Y028370D01*
X017509Y028370D02*
X017434Y028370D01*
X018434Y028370D02*
X018509Y028370D01*
X018971Y028370D02*
X018972Y028370D01*
X018971Y028608D02*
X018972Y028608D01*
X017504Y029563D02*
X017440Y029563D01*
X016792Y029801D02*
X016424Y029801D01*
X015519Y029801D02*
X015424Y029801D01*
X014519Y029801D02*
X014424Y029801D01*
X013519Y029801D02*
X013424Y029801D01*
X012519Y029801D02*
X012151Y029801D01*
X011972Y029801D02*
X011971Y029801D01*
X011971Y029832D02*
X011929Y029832D01*
X011845Y029818D01*
X011764Y029792D01*
X011689Y029754D01*
X011620Y029704D01*
X011560Y029644D01*
X011510Y029575D01*
X011471Y029499D01*
X011445Y029418D01*
X011432Y029334D01*
X011432Y028972D01*
X011971Y028972D01*
X011971Y029832D01*
X011792Y029801D02*
X010673Y029801D01*
X010435Y029563D02*
X011504Y029563D01*
X011432Y029324D02*
X010196Y029324D01*
X009958Y029085D02*
X011432Y029085D01*
X011432Y028847D02*
X009719Y028847D01*
X009481Y028608D02*
X011432Y028608D01*
X011509Y028370D02*
X009535Y028370D01*
X009652Y028131D02*
X011826Y028131D01*
X011971Y028131D02*
X011972Y028131D01*
X012117Y028131D02*
X012530Y028131D01*
X011971Y028370D02*
X011972Y028370D01*
X011971Y028608D02*
X011972Y028608D01*
X011971Y028847D02*
X011972Y028847D01*
X011971Y029085D02*
X011972Y029085D01*
X011971Y029324D02*
X011972Y029324D01*
X011971Y029563D02*
X011972Y029563D01*
X013413Y028131D02*
X013530Y028131D01*
X014413Y028131D02*
X014530Y028131D01*
X015413Y028131D02*
X015530Y028131D01*
X015757Y026939D02*
X015187Y026939D01*
X014757Y026939D02*
X014187Y026939D01*
X013757Y026939D02*
X013187Y026939D01*
X012757Y026939D02*
X012187Y026939D01*
X011757Y026939D02*
X010311Y026939D01*
X010072Y026700D02*
X011418Y026700D01*
X010088Y027893D02*
X009652Y027893D01*
X009616Y027654D02*
X009782Y027654D01*
X009543Y027416D02*
X009377Y027416D01*
X006532Y028608D02*
X006297Y028608D01*
X006532Y028847D02*
X003652Y028847D01*
X003652Y028608D02*
X004647Y028608D01*
X004408Y028370D02*
X003562Y028370D01*
X003323Y028131D02*
X004292Y028131D01*
X005297Y028608D02*
X005647Y028608D01*
X006543Y029085D02*
X003557Y029085D01*
X003295Y029324D02*
X006702Y029324D01*
X008747Y032664D02*
X009196Y032664D01*
X009747Y032664D02*
X010196Y032664D01*
X010747Y032664D02*
X011196Y032664D01*
X011747Y032664D02*
X012196Y032664D01*
X012747Y032664D02*
X013196Y032664D01*
X013747Y032664D02*
X014196Y032664D01*
X014747Y032664D02*
X015196Y032664D01*
X015747Y032664D02*
X016196Y032664D01*
X016747Y032664D02*
X017196Y032664D01*
X017747Y032664D02*
X018196Y032664D01*
X018747Y032664D02*
X019196Y032664D01*
X019747Y032664D02*
X020196Y032664D01*
X020747Y032664D02*
X021196Y032664D01*
X021747Y032664D02*
X022196Y032664D01*
X022747Y032664D02*
X033094Y032664D01*
X034350Y032664D02*
X037280Y032664D01*
X037051Y032425D02*
X034588Y032425D01*
X034827Y032187D02*
X036914Y032187D01*
X036847Y031948D02*
X034832Y031948D01*
X034832Y031709D02*
X036827Y031709D01*
X036851Y031471D02*
X034832Y031471D01*
X034802Y031232D02*
X036923Y031232D01*
X037061Y030994D02*
X034564Y030994D01*
X034325Y030755D02*
X037304Y030755D01*
X039352Y033141D02*
X000462Y033141D01*
X000462Y033379D02*
X039352Y033379D01*
X022068Y021691D02*
X018662Y021691D01*
X018662Y021929D02*
X019553Y021929D01*
X019314Y022168D02*
X018662Y022168D01*
X018662Y022406D02*
X019292Y022406D01*
X019292Y022645D02*
X018662Y022645D01*
X018662Y022883D02*
X019422Y022883D01*
X019532Y023122D02*
X018662Y023122D01*
X018662Y023360D02*
X019532Y023360D01*
X019472Y023599D02*
X018662Y023599D01*
X018650Y023838D02*
X019234Y023838D01*
X018995Y024076D02*
X018490Y024076D01*
X018251Y024315D02*
X018757Y024315D01*
X018532Y025030D02*
X018248Y025030D01*
X017757Y026939D02*
X017187Y026939D01*
X016757Y026939D02*
X016187Y026939D01*
X015870Y022883D02*
X015772Y022883D01*
X014803Y021929D02*
X014641Y021929D01*
X017782Y020975D02*
X000462Y020975D01*
X005348Y023122D02*
X005595Y023122D01*
X005621Y023360D02*
X005322Y023360D01*
X007352Y024553D02*
X007592Y024553D01*
X008352Y024553D02*
X008592Y024553D01*
X009352Y024553D02*
X010268Y024553D01*
X010507Y024315D02*
X009590Y024315D01*
X009652Y024076D02*
X010777Y024076D01*
X007460Y021452D02*
X007271Y021452D01*
X008181Y019544D02*
X008262Y019544D01*
X014459Y015336D02*
X014548Y015247D01*
X014561Y015215D01*
X014620Y015274D01*
X014689Y015324D01*
X014764Y015362D01*
X014845Y015388D01*
X014929Y015402D01*
X014971Y015402D01*
X014971Y014222D01*
X014972Y014222D01*
X014972Y015402D01*
X015014Y015402D01*
X015098Y015388D01*
X015179Y015362D01*
X015255Y015324D01*
X015324Y015274D01*
X015382Y015215D01*
X015395Y015247D01*
X015587Y015438D01*
X015836Y015542D01*
X016107Y015542D01*
X016357Y015438D01*
X016548Y015247D01*
X016561Y015215D01*
X016620Y015274D01*
X016689Y015324D01*
X016764Y015362D01*
X016845Y015388D01*
X016929Y015402D01*
X016971Y015402D01*
X016971Y014222D01*
X016972Y014222D01*
X016972Y015402D01*
X017014Y015402D01*
X017098Y015388D01*
X017179Y015362D01*
X017255Y015324D01*
X017324Y015274D01*
X017384Y015214D01*
X017434Y015145D01*
X017472Y015069D01*
X017498Y014988D01*
X017512Y014904D01*
X017512Y014222D01*
X016972Y014222D01*
X016972Y014221D01*
X016972Y013682D01*
X017014Y013682D01*
X017098Y013695D01*
X017179Y013721D01*
X017255Y013760D01*
X017324Y013810D01*
X017384Y013870D01*
X017434Y013939D01*
X017472Y014014D01*
X017498Y014095D01*
X017512Y014179D01*
X017512Y014221D01*
X016972Y014221D01*
X016971Y014221D01*
X016971Y013682D01*
X016929Y013682D01*
X016845Y013695D01*
X016764Y013721D01*
X016689Y013760D01*
X016620Y013810D01*
X016561Y013868D01*
X016548Y013837D01*
X016514Y013802D01*
X016654Y013662D01*
X018309Y013662D01*
X018471Y013595D01*
X018595Y013471D01*
X018595Y013471D01*
X018721Y013345D01*
X018845Y013221D01*
X018912Y013059D01*
X018912Y012662D01*
X027289Y012662D01*
X027520Y012892D01*
X027472Y012940D01*
X027357Y012825D01*
X027107Y012722D01*
X026836Y012722D01*
X026587Y012825D01*
X026472Y012940D01*
X026357Y012825D01*
X026107Y012722D01*
X025836Y012722D01*
X025587Y012825D01*
X025395Y013017D01*
X025382Y013048D01*
X025324Y012990D01*
X025255Y012940D01*
X025179Y012901D01*
X025098Y012875D01*
X025014Y012862D01*
X024972Y012862D01*
X024972Y013721D01*
X024971Y013721D01*
X024971Y012862D01*
X024929Y012862D01*
X024845Y012875D01*
X024764Y012901D01*
X024689Y012940D01*
X024620Y012990D01*
X024561Y013048D01*
X024548Y013017D01*
X024357Y012825D01*
X024107Y012722D01*
X023836Y012722D01*
X023587Y012825D01*
X023472Y012940D01*
X023357Y012825D01*
X023107Y012722D01*
X022836Y012722D01*
X022587Y012825D01*
X022472Y012940D01*
X022357Y012825D01*
X022107Y012722D01*
X021836Y012722D01*
X021587Y012825D01*
X021472Y012940D01*
X021357Y012825D01*
X021107Y012722D01*
X020836Y012722D01*
X020587Y012825D01*
X020395Y013017D01*
X020292Y013266D01*
X020292Y014177D01*
X020395Y014427D01*
X020500Y014532D01*
X019059Y014532D01*
X018884Y014532D01*
X018722Y014599D01*
X017539Y015782D01*
X014904Y015782D01*
X014459Y015336D01*
X014545Y015250D02*
X014596Y015250D01*
X014611Y015489D02*
X015708Y015489D01*
X015398Y015250D02*
X015347Y015250D01*
X014972Y015250D02*
X014971Y015250D01*
X014971Y015011D02*
X014972Y015011D01*
X014971Y014773D02*
X014972Y014773D01*
X014971Y014534D02*
X014972Y014534D01*
X014971Y014296D02*
X014972Y014296D01*
X014972Y014221D02*
X014972Y013682D01*
X015014Y013682D01*
X015098Y013695D01*
X015179Y013721D01*
X015255Y013760D01*
X015324Y013810D01*
X015382Y013868D01*
X015395Y013837D01*
X015532Y013700D01*
X015532Y013634D01*
X015599Y013472D01*
X015722Y013349D01*
X015910Y013162D01*
X015154Y013162D01*
X014514Y013802D01*
X014548Y013837D01*
X014561Y013868D01*
X014620Y013810D01*
X014689Y013760D01*
X014764Y013721D01*
X014845Y013695D01*
X014929Y013682D01*
X014971Y013682D01*
X014971Y014221D01*
X014972Y014221D01*
X014971Y014057D02*
X014972Y014057D01*
X014971Y013819D02*
X014972Y013819D01*
X014736Y013580D02*
X015554Y013580D01*
X015413Y013819D02*
X015332Y013819D01*
X014974Y013342D02*
X015730Y013342D01*
X016530Y013819D02*
X016611Y013819D01*
X016971Y013819D02*
X016972Y013819D01*
X016971Y014057D02*
X016972Y014057D01*
X016971Y014296D02*
X016972Y014296D01*
X016971Y014534D02*
X016972Y014534D01*
X016971Y014773D02*
X016972Y014773D01*
X016971Y015011D02*
X016972Y015011D01*
X016971Y015250D02*
X016972Y015250D01*
X017347Y015250D02*
X018071Y015250D01*
X017833Y015489D02*
X016235Y015489D01*
X016545Y015250D02*
X016596Y015250D01*
X017491Y015011D02*
X018310Y015011D01*
X018548Y014773D02*
X017512Y014773D01*
X017512Y014534D02*
X018878Y014534D01*
X018486Y013580D02*
X020292Y013580D01*
X020292Y013342D02*
X018724Y013342D01*
X018894Y013103D02*
X020359Y013103D01*
X020547Y012865D02*
X018912Y012865D01*
X018912Y011672D02*
X028463Y011672D01*
X028367Y011910D02*
X027783Y011910D01*
X028021Y012149D02*
X028294Y012149D01*
X028306Y012387D02*
X028260Y012387D01*
X027492Y012865D02*
X027396Y012865D01*
X026547Y012865D02*
X026396Y012865D01*
X025547Y012865D02*
X025032Y012865D01*
X024972Y012865D02*
X024971Y012865D01*
X024912Y012865D02*
X024396Y012865D01*
X024971Y013103D02*
X024972Y013103D01*
X024971Y013342D02*
X024972Y013342D01*
X024971Y013580D02*
X024972Y013580D01*
X023547Y012865D02*
X023396Y012865D01*
X022547Y012865D02*
X022396Y012865D01*
X021547Y012865D02*
X021396Y012865D01*
X020292Y013819D02*
X017332Y013819D01*
X017486Y014057D02*
X020292Y014057D01*
X020341Y014296D02*
X017512Y014296D01*
X017594Y015727D02*
X014849Y015727D01*
X014611Y013819D02*
X014530Y013819D01*
X018662Y016681D02*
X020292Y016681D01*
X020292Y016443D02*
X018873Y016443D01*
X019112Y016204D02*
X020318Y016204D01*
X020446Y015966D02*
X019350Y015966D01*
X018662Y016920D02*
X020292Y016920D01*
X020292Y017158D02*
X018662Y017158D01*
X018662Y017397D02*
X020383Y017397D01*
X020628Y017635D02*
X018662Y017635D01*
X018662Y017874D02*
X019608Y017874D01*
X019369Y018112D02*
X018662Y018112D01*
X018662Y018351D02*
X019292Y018351D01*
X019292Y018590D02*
X018662Y018590D01*
X018662Y018828D02*
X019366Y018828D01*
X019605Y019067D02*
X018662Y019067D01*
X018662Y019305D02*
X020532Y019305D01*
X020532Y019067D02*
X020338Y019067D01*
X020532Y019544D02*
X018662Y019544D01*
X018662Y019782D02*
X020532Y019782D01*
X020532Y020021D02*
X018662Y020021D01*
X018662Y020259D02*
X020637Y020259D01*
X020876Y020498D02*
X018662Y020498D01*
X018662Y020736D02*
X021114Y020736D01*
X021353Y020975D02*
X018662Y020975D01*
X018662Y021214D02*
X021591Y021214D01*
X021830Y021452D02*
X018662Y021452D01*
X020391Y021929D02*
X020553Y021929D01*
X021391Y021929D02*
X021553Y021929D01*
X021660Y023122D02*
X021283Y023122D01*
X021336Y017874D02*
X021608Y017874D01*
X021628Y017635D02*
X021315Y017635D01*
X020608Y017874D02*
X020336Y017874D01*
X018912Y011433D02*
X028325Y011433D01*
X028294Y011195D02*
X018912Y011195D01*
X017695Y004512D02*
X017472Y004512D01*
X017472Y003972D01*
X018012Y003972D01*
X018012Y004195D01*
X017695Y004512D01*
X017471Y004512D02*
X017248Y004512D01*
X016972Y004235D01*
X016695Y004512D01*
X016472Y004512D01*
X016472Y003972D01*
X016932Y003972D01*
X017471Y003972D01*
X017471Y004512D01*
X017471Y004277D02*
X017472Y004277D01*
X017471Y004038D02*
X017472Y004038D01*
X017471Y003800D02*
X017472Y003800D01*
X017471Y003561D02*
X017472Y003561D01*
X017825Y003561D02*
X018252Y003561D01*
X018182Y003323D02*
X015784Y003323D01*
X016023Y003561D02*
X016118Y003561D01*
X016471Y003561D02*
X016472Y003561D01*
X016471Y003800D02*
X016472Y003800D01*
X016471Y004038D02*
X016472Y004038D01*
X016471Y004277D02*
X016472Y004277D01*
X016930Y004277D02*
X017013Y004277D01*
X017118Y003561D02*
X016825Y003561D01*
X017930Y004277D02*
X025042Y004277D01*
X024803Y004038D02*
X019317Y004038D01*
X019680Y003800D02*
X024565Y003800D01*
X024326Y003561D02*
X019832Y003561D01*
X019902Y003323D02*
X024087Y003323D01*
X028540Y003800D02*
X034712Y003800D01*
X034774Y003862D02*
X034552Y003639D01*
X034432Y003349D01*
X034432Y003035D01*
X034552Y002744D01*
X034774Y002522D01*
X035065Y002402D01*
X036239Y002402D01*
X036529Y002522D01*
X036751Y002744D01*
X036872Y003035D01*
X036872Y003349D01*
X036751Y003639D01*
X036529Y003862D01*
X036239Y003982D01*
X035065Y003982D01*
X034774Y003862D01*
X034975Y004038D02*
X036615Y004038D01*
X036623Y004035D02*
X036706Y004013D01*
X036790Y004002D01*
X036833Y004002D01*
X036875Y004002D01*
X036960Y004013D01*
X037042Y004035D01*
X037121Y004068D01*
X037195Y004110D01*
X037262Y004162D01*
X037323Y004222D01*
X037374Y004290D01*
X037417Y004364D01*
X037450Y004442D01*
X037472Y004525D01*
X037483Y004609D01*
X037483Y005081D01*
X036833Y005081D01*
X036833Y004002D01*
X036833Y005081D01*
X036833Y005081D01*
X036833Y005082D01*
X036833Y005082D01*
X036833Y006162D01*
X036875Y006162D01*
X036960Y006151D01*
X037042Y006129D01*
X037121Y006096D01*
X037195Y006053D01*
X037262Y006001D01*
X037323Y005941D01*
X037374Y005874D01*
X037417Y005800D01*
X037450Y005721D01*
X037472Y005639D01*
X037483Y005554D01*
X037483Y005082D01*
X036833Y005082D01*
X036833Y006162D01*
X036790Y006162D01*
X036706Y006151D01*
X036623Y006129D01*
X036545Y006096D01*
X036471Y006053D01*
X036403Y006001D01*
X036343Y005941D01*
X036291Y005874D01*
X036249Y005800D01*
X036216Y005721D01*
X036194Y005639D01*
X036183Y005554D01*
X036183Y005082D01*
X036832Y005082D01*
X036832Y005081D01*
X036183Y005081D01*
X036183Y004609D01*
X036194Y004525D01*
X036216Y004442D01*
X036249Y004364D01*
X036291Y004290D01*
X036343Y004222D01*
X036403Y004162D01*
X036471Y004110D01*
X036545Y004068D01*
X036623Y004035D01*
X036833Y004038D02*
X036833Y004038D01*
X037051Y004038D02*
X039352Y004038D01*
X039352Y003800D02*
X036591Y003800D01*
X036784Y003561D02*
X039352Y003561D01*
X039352Y003323D02*
X036872Y003323D01*
X036872Y003084D02*
X039352Y003084D01*
X039352Y002846D02*
X038580Y002846D01*
X038476Y002905D02*
X038174Y002986D01*
X037860Y002986D01*
X037558Y002905D01*
X037286Y002749D01*
X037065Y002527D01*
X036908Y002256D01*
X036827Y001953D01*
X036827Y001640D01*
X036908Y001337D01*
X037065Y001066D01*
X037286Y000844D01*
X037558Y000688D01*
X037860Y000607D01*
X038174Y000607D01*
X038476Y000688D01*
X038748Y000844D01*
X038969Y001066D01*
X039126Y001337D01*
X039207Y001640D01*
X039207Y001953D01*
X039126Y002256D01*
X038969Y002527D01*
X038748Y002749D01*
X038476Y002905D01*
X038889Y002607D02*
X039352Y002607D01*
X039352Y002369D02*
X039061Y002369D01*
X039159Y002130D02*
X039352Y002130D01*
X039352Y001892D02*
X039207Y001892D01*
X039207Y001653D02*
X039352Y001653D01*
X039352Y001414D02*
X039146Y001414D01*
X039033Y001176D02*
X039352Y001176D01*
X039352Y000937D02*
X038841Y000937D01*
X038496Y000699D02*
X039352Y000699D01*
X037538Y000699D02*
X002275Y000699D01*
X002620Y000937D02*
X031031Y000937D01*
X031412Y000937D02*
X037193Y000937D01*
X037001Y001176D02*
X031835Y001176D01*
X032016Y001414D02*
X036887Y001414D01*
X036827Y001653D02*
X032112Y001653D01*
X032112Y001892D02*
X036827Y001892D01*
X036875Y002130D02*
X032057Y002130D01*
X031933Y002369D02*
X036973Y002369D01*
X037145Y002607D02*
X036614Y002607D01*
X036793Y002846D02*
X037454Y002846D01*
X037365Y004277D02*
X039352Y004277D01*
X039352Y004516D02*
X037469Y004516D01*
X037483Y004754D02*
X039352Y004754D01*
X039352Y004993D02*
X037483Y004993D01*
X037483Y005231D02*
X039352Y005231D01*
X039352Y005470D02*
X037483Y005470D01*
X037453Y005708D02*
X039352Y005708D01*
X039352Y005947D02*
X037317Y005947D01*
X036833Y005947D02*
X036833Y005947D01*
X036833Y005708D02*
X036833Y005708D01*
X036833Y005470D02*
X036833Y005470D01*
X036833Y005231D02*
X036833Y005231D01*
X036833Y004993D02*
X036833Y004993D01*
X036833Y004754D02*
X036833Y004754D01*
X036833Y004516D02*
X036833Y004516D01*
X036833Y004277D02*
X036833Y004277D01*
X036301Y004277D02*
X035170Y004277D01*
X035261Y004516D02*
X036196Y004516D01*
X036183Y004754D02*
X035261Y004754D01*
X035261Y004993D02*
X036183Y004993D01*
X036183Y005231D02*
X035261Y005231D01*
X035261Y005470D02*
X036183Y005470D01*
X036213Y005708D02*
X035244Y005708D01*
X035145Y005947D02*
X036349Y005947D01*
X034909Y006185D02*
X039352Y006185D01*
X039352Y007378D02*
X037840Y007378D01*
X038471Y007617D02*
X038472Y007617D01*
X038471Y007855D02*
X038472Y007855D01*
X038471Y008094D02*
X038472Y008094D01*
X038471Y008332D02*
X038472Y008332D01*
X038875Y008332D02*
X039352Y008332D01*
X039352Y008094D02*
X039012Y008094D01*
X039012Y007855D02*
X039352Y007855D01*
X039352Y007617D02*
X038880Y007617D01*
X039352Y008571D02*
X037834Y008571D01*
X037753Y009042D02*
X038071Y009359D01*
X038248Y009182D01*
X038471Y009182D01*
X038471Y009721D01*
X038472Y009721D01*
X038472Y009182D01*
X038695Y009182D01*
X039012Y009498D01*
X039012Y009721D01*
X038472Y009721D01*
X038472Y009722D01*
X039012Y009722D01*
X039012Y009945D01*
X038695Y010262D01*
X038472Y010262D01*
X038472Y009722D01*
X038471Y009722D01*
X038471Y010262D01*
X038248Y010262D01*
X038071Y010084D01*
X037753Y010402D01*
X037190Y010402D01*
X036792Y010003D01*
X036792Y009440D01*
X037190Y009042D01*
X037753Y009042D01*
X037759Y009048D02*
X039352Y009048D01*
X039352Y009286D02*
X038800Y009286D01*
X039012Y009525D02*
X039352Y009525D01*
X039352Y009763D02*
X039012Y009763D01*
X038955Y010002D02*
X039352Y010002D01*
X039352Y010241D02*
X038716Y010241D01*
X038472Y010241D02*
X038471Y010241D01*
X038471Y010002D02*
X038472Y010002D01*
X038471Y009763D02*
X038472Y009763D01*
X038471Y009525D02*
X038472Y009525D01*
X038471Y009286D02*
X038472Y009286D01*
X038143Y009286D02*
X037998Y009286D01*
X037184Y009048D02*
X036107Y009048D01*
X036003Y009152D02*
X036402Y008753D01*
X036402Y008190D01*
X036003Y007792D01*
X035440Y007792D01*
X035123Y008109D01*
X035099Y008053D01*
X034891Y007844D01*
X034619Y007732D01*
X034324Y007732D01*
X034053Y007844D01*
X033844Y008053D01*
X033732Y008324D01*
X033732Y008619D01*
X033844Y008891D01*
X034053Y009099D01*
X034324Y009212D01*
X034619Y009212D01*
X034891Y009099D01*
X035099Y008891D01*
X035123Y008834D01*
X035440Y009152D01*
X036003Y009152D01*
X036346Y008809D02*
X039352Y008809D01*
X039352Y010479D02*
X031601Y010479D01*
X031363Y010241D02*
X037029Y010241D01*
X036792Y010002D02*
X031124Y010002D01*
X030886Y009763D02*
X031886Y009763D01*
X031222Y009525D02*
X031221Y009525D01*
X031221Y009286D02*
X031222Y009286D01*
X031221Y009048D02*
X031222Y009048D01*
X031221Y008809D02*
X031222Y008809D01*
X031221Y008571D02*
X031222Y008571D01*
X031221Y008332D02*
X031222Y008332D01*
X031221Y008094D02*
X031222Y008094D01*
X031221Y007855D02*
X031222Y007855D01*
X031573Y007855D02*
X031662Y007855D01*
X030871Y007855D02*
X030782Y007855D01*
X029482Y008332D02*
X028681Y008332D01*
X028943Y008571D02*
X029482Y008571D01*
X029482Y008809D02*
X029181Y008809D01*
X029420Y009048D02*
X029482Y009048D01*
X028618Y010241D02*
X028412Y010241D01*
X032558Y009763D02*
X036792Y009763D01*
X036792Y009525D02*
X032845Y009525D01*
X032946Y009286D02*
X036945Y009286D01*
X037109Y008571D02*
X036402Y008571D01*
X036402Y008332D02*
X036871Y008332D01*
X036792Y008094D02*
X036305Y008094D01*
X036067Y007855D02*
X036792Y007855D01*
X035377Y007855D02*
X034902Y007855D01*
X035116Y008094D02*
X035138Y008094D01*
X034042Y007855D02*
X032782Y007855D01*
X032920Y008094D02*
X033827Y008094D01*
X033732Y008332D02*
X032962Y008332D01*
X032962Y008571D02*
X033732Y008571D01*
X033811Y008809D02*
X032962Y008809D01*
X032962Y009048D02*
X034001Y009048D01*
X034942Y009048D02*
X035336Y009048D01*
X035578Y010956D02*
X037502Y010956D01*
X037172Y011195D02*
X035817Y011195D01*
X036056Y011433D02*
X036989Y011433D01*
X036882Y011672D02*
X036162Y011672D01*
X036162Y011910D02*
X036827Y011910D01*
X036827Y012149D02*
X036361Y012149D01*
X036402Y012387D02*
X036880Y012387D01*
X036986Y012626D02*
X036402Y012626D01*
X036291Y012865D02*
X037166Y012865D01*
X037491Y013103D02*
X036052Y013103D01*
X035391Y013103D02*
X034881Y013103D01*
X035110Y012865D02*
X035153Y012865D01*
X037914Y010241D02*
X038227Y010241D01*
X034520Y003561D02*
X028692Y003561D01*
X028762Y003323D02*
X034432Y003323D01*
X034432Y003084D02*
X028762Y003084D01*
X028762Y002846D02*
X034510Y002846D01*
X034689Y002607D02*
X031651Y002607D01*
X030792Y002607D02*
X028762Y002607D01*
X028762Y002369D02*
X030510Y002369D01*
X030386Y002130D02*
X028762Y002130D01*
X028696Y001892D02*
X030332Y001892D01*
X030332Y001653D02*
X028549Y001653D01*
X018766Y004038D02*
X018012Y004038D01*
X018012Y003800D02*
X018404Y003800D01*
X015159Y003323D02*
X014784Y003323D01*
X001084Y030755D02*
X000462Y030755D01*
X000462Y030994D02*
X000841Y030994D01*
X000703Y031232D02*
X000462Y031232D01*
X000462Y031471D02*
X000631Y031471D01*
X000607Y031709D02*
X000462Y031709D01*
X000462Y031948D02*
X000626Y031948D01*
X000693Y032187D02*
X000462Y032187D01*
X000462Y032425D02*
X000831Y032425D01*
X001060Y032664D02*
X000462Y032664D01*
X000462Y032902D02*
X001619Y032902D01*
D21*
X001722Y016472D03*
X005972Y014222D03*
X027972Y009722D03*
X027972Y008722D03*
X028972Y011222D03*
X028972Y012222D03*
X038222Y019472D03*
D22*
X035722Y015972D02*
X035722Y015472D01*
X034222Y013972D01*
X032472Y013972D01*
X031722Y013222D01*
X031722Y011972D01*
X028472Y008722D01*
X027972Y008722D01*
X027972Y009722D02*
X028722Y009722D01*
X031222Y012222D01*
X031222Y013472D01*
X032222Y014472D01*
X033972Y014472D01*
X034722Y015222D01*
X034722Y015972D01*
X031722Y015972D02*
X031472Y015972D01*
X030222Y017222D01*
X030222Y018222D01*
X029972Y018472D01*
X029472Y017722D02*
X029722Y017472D01*
X029722Y015972D01*
X030722Y014972D01*
X030722Y012722D01*
X029222Y011222D01*
X028972Y011222D01*
X028972Y012222D02*
X029472Y012222D01*
X030222Y012972D01*
X030222Y014722D01*
X028972Y015972D01*
X028972Y016722D01*
X028722Y017722D02*
X029472Y017722D01*
X028722Y017722D02*
X027972Y018472D01*
X027972Y015472D02*
X028972Y014472D01*
X028972Y013722D01*
X027972Y013722D02*
X027972Y012722D01*
X027472Y012222D01*
X018472Y012222D01*
X018472Y009722D01*
X017722Y008972D01*
X016222Y008972D01*
X015472Y008222D01*
X015472Y007972D01*
X014472Y007972D02*
X015972Y009472D01*
X017472Y009472D01*
X017972Y009972D01*
X017972Y012472D01*
X017722Y012722D01*
X014972Y012722D01*
X013972Y013722D01*
X013972Y014222D01*
X013972Y015472D01*
X014722Y016222D01*
X017722Y016222D01*
X018972Y014972D01*
X026472Y014972D01*
X026972Y014472D01*
X026972Y013722D01*
X027972Y015472D02*
X019222Y015472D01*
X018222Y016472D01*
X018222Y023722D01*
X017472Y024472D01*
X010972Y024472D01*
X009972Y025472D01*
X006972Y025472D01*
X004972Y027472D01*
X004972Y027972D01*
X006972Y027972D02*
X006972Y027472D01*
X007472Y026972D01*
X009722Y026972D01*
X010222Y027472D01*
X017972Y027472D01*
X018972Y026472D01*
X018972Y025972D01*
X018972Y024722D01*
X019972Y023722D01*
X019972Y022472D01*
X021972Y020222D02*
X023972Y022222D01*
X023972Y024222D01*
X024972Y025222D01*
X024972Y025972D01*
X023972Y025972D02*
X023972Y025222D01*
X023472Y024722D01*
X023472Y022472D01*
X020972Y019972D01*
X020972Y018472D01*
X021972Y018472D02*
X021972Y020222D01*
X023972Y025722D02*
X023972Y025972D01*
X021972Y030472D02*
X022472Y030972D01*
X022472Y031722D01*
X021972Y030472D02*
X010722Y030472D01*
X008972Y028722D01*
X008972Y027972D01*
X006972Y027972D02*
X006972Y028972D01*
X008472Y030472D01*
X008472Y031722D01*
X011972Y029722D02*
X011972Y028972D01*
X011972Y029722D02*
X012222Y029972D01*
X016722Y029972D01*
X016972Y029722D01*
X016972Y028972D01*
X010972Y018722D02*
X010972Y017972D01*
X009722Y016722D01*
X004722Y016722D01*
X004222Y016222D01*
X004222Y008972D01*
X004472Y008722D01*
X005972Y008722D01*
X005972Y009722D02*
X007222Y009722D01*
X007472Y009472D01*
X007472Y006222D01*
X007222Y005972D01*
X005972Y005972D01*
X005972Y004972D02*
X007722Y004972D01*
X007972Y005222D01*
X007972Y008722D01*
X008722Y009472D01*
X013222Y009472D01*
X013972Y010222D01*
X013972Y011222D01*
X015972Y011222D02*
X015972Y010222D01*
X014722Y008972D01*
X008972Y008972D01*
X008472Y008472D01*
X008472Y004472D01*
X007972Y003972D01*
X005972Y003972D01*
X005972Y007722D02*
X004472Y007722D01*
X003722Y008472D01*
X003722Y016472D01*
X004472Y017222D01*
X006722Y017222D01*
X007722Y018222D01*
X007722Y018722D01*
X010972Y015472D02*
X012472Y016972D01*
X014222Y016972D01*
X015222Y017972D01*
X015222Y018472D01*
X010972Y015472D02*
X010972Y014222D01*
X015972Y014222D02*
X015972Y013722D01*
X016472Y013222D01*
X018222Y013222D01*
X018472Y012972D01*
X018472Y012222D01*
X030222Y009722D02*
X030222Y008722D01*
X030222Y009722D02*
X031722Y011222D01*
X035222Y011222D01*
X035722Y011722D01*
X035722Y012472D01*
D23*
X026422Y006722D02*
X026422Y004922D01*
X024222Y002722D01*
X019042Y002722D01*
X011972Y002722D01*
X011222Y003472D01*
X011222Y003972D01*
D24*
X001797Y001797D03*
X001797Y012033D03*
X005312Y019492D03*
X001797Y031718D03*
X034842Y019492D03*
X038017Y012033D03*
X038017Y001797D03*
X038017Y031718D03*
M02*
