%
M48
M72
T01C0.0236
T02C0.0315
T03C0.0320
T04C0.0394
T05C0.0400
T06C0.0440
T07C0.0520
T08C0.1260
T09C0.1300
%
T01
X5972Y14222
X1722Y16472
X27972Y9722
X27972Y8722
X28972Y11222
X28972Y12222
X38222Y19472
T02
X36833Y5082
X35652Y3192
T03
X37472Y7972
X38472Y7972
X38472Y9722
X37472Y9722
X35722Y8472
X35722Y12472
X28972Y13722
X27972Y13722
X26972Y13722
X25972Y13722
X24972Y13722
X23972Y13722
X22972Y13722
X21972Y13722
X20972Y13722
X20972Y16722
X21972Y16722
X22972Y16722
X23972Y16722
X24972Y16722
X25972Y16722
X26972Y16722
X27972Y16722
X28972Y16722
X28972Y18472
X29972Y18472
X27972Y18472
X26972Y18472
X25972Y18472
X24472Y19472
X24472Y21472
X25972Y22472
X26972Y22472
X27972Y22472
X28972Y22472
X29972Y22472
X26972Y25972
X25972Y25972
X24972Y25972
X23972Y25972
X21472Y26472
X21472Y28472
X23972Y28972
X24972Y28972
X25972Y28972
X26972Y28972
X28222Y30722
X28222Y31722
X22472Y31722
X21472Y31722
X20472Y31722
X19472Y31722
X18472Y31722
X17472Y31722
X16472Y31722
X15472Y31722
X14472Y31722
X13472Y31722
X12472Y31722
X11472Y31722
X10472Y31722
X9472Y31722
X8472Y31722
X7472Y31722
X7972Y27972
X6972Y27972
X5972Y27972
X4972Y27972
X2972Y28722
X1972Y28722
X4972Y23972
X5972Y23972
X6972Y23972
X7972Y23972
X8972Y23972
X8972Y22222
X7972Y22222
X6972Y22222
X5972Y22222
X4972Y22222
X3972Y22222
X7722Y18722
X8722Y18722
X9722Y18722
X10972Y18722
X11972Y18722
X12972Y18722
X14222Y18472
X15222Y18472
X16222Y18472
X17222Y18472
X19972Y18472
X20972Y18472
X21972Y18472
X21972Y22472
X20972Y22472
X19972Y22472
X17222Y22472
X16222Y22472
X15222Y22472
X14222Y22472
X13972Y25972
X12972Y25972
X11972Y25972
X8972Y27972
X11972Y28972
X12972Y28972
X13972Y28972
X14972Y28972
X15972Y28972
X16972Y28972
X17972Y28972
X18972Y28972
X18972Y25972
X17972Y25972
X16972Y25972
X15972Y25972
X14972Y25972
X14972Y14222
X15972Y14222
X16972Y14222
X16972Y11222
X15972Y11222
X14972Y11222
X13972Y11222
X12972Y11222
X11972Y11222
X10972Y11222
X9972Y11222
X9972Y14222
X10972Y14222
X11972Y14222
X12972Y14222
X13972Y14222
X14472Y7972
X15472Y7972
X16472Y7972
X17472Y7972
X20522Y6722
X21922Y6722
X25022Y6722
X26422Y6722
X17472Y3972
X16472Y3972
X15472Y3972
X14472Y3972
X13472Y3972
X12472Y3972
X12472Y7972
X13472Y7972
T04
X34471Y5082
T05
X23875Y10064
X22875Y10064
X21875Y10064
X20875Y10064
X19875Y10064
X31722Y15972
X32722Y15972
X33722Y15972
X34722Y15972
X35722Y15972
X5972Y9722
X5972Y8722
X5972Y7722
X5972Y5972
X5972Y4972
X5972Y3972
T06
X9972Y3972
X11222Y3972
X11222Y7972
X9972Y7972
X30222Y8722
X31222Y8722
X32222Y8722
X34472Y8472
X34472Y12472
X33722Y23722
X33722Y31722
T07
X27902Y2722
X19042Y2722
T08
X1797Y1797
X1797Y12033
X5312Y19492
X1797Y31718
X34842Y19492
X38017Y12033
X38017Y1797
X38017Y31718
T09
X31222Y1822
M30
