G75*
G70*
%OFA0B0*%
%FSLAX24Y24*%
%IPPOS*%
%LPD*%
%AMOC8*
5,1,8,0,0,1.08239X$1,22.5*
%
%ADD10C,0.0000*%
%ADD11C,0.0040*%
%ADD12C,0.0070*%
%ADD13C,0.0120*%
%ADD14C,0.0030*%
%ADD15C,0.0060*%
%ADD16C,0.0020*%
%ADD17R,0.0250X0.0450*%
%ADD18R,0.0250X0.1600*%
%ADD19R,0.4000X0.0200*%
%ADD20R,0.1550X0.0050*%
%ADD21R,0.1900X0.0200*%
%ADD22C,0.0100*%
%ADD23C,0.0050*%
%ADD24C,0.0039*%
D10*
X000222Y000222D02*
X000222Y033686D01*
X039592Y033686D01*
X039592Y000222D01*
X000222Y000222D01*
X030572Y001822D02*
X030574Y001872D01*
X030580Y001922D01*
X030590Y001972D01*
X030603Y002020D01*
X030620Y002068D01*
X030641Y002114D01*
X030665Y002158D01*
X030693Y002200D01*
X030724Y002240D01*
X030758Y002277D01*
X030795Y002312D01*
X030834Y002343D01*
X030875Y002372D01*
X030919Y002397D01*
X030965Y002419D01*
X031012Y002437D01*
X031060Y002451D01*
X031109Y002462D01*
X031159Y002469D01*
X031209Y002472D01*
X031260Y002471D01*
X031310Y002466D01*
X031360Y002457D01*
X031408Y002445D01*
X031456Y002428D01*
X031502Y002408D01*
X031547Y002385D01*
X031590Y002358D01*
X031630Y002328D01*
X031668Y002295D01*
X031703Y002259D01*
X031736Y002220D01*
X031765Y002179D01*
X031791Y002136D01*
X031814Y002091D01*
X031833Y002044D01*
X031848Y001996D01*
X031860Y001947D01*
X031868Y001897D01*
X031872Y001847D01*
X031872Y001797D01*
X031868Y001747D01*
X031860Y001697D01*
X031848Y001648D01*
X031833Y001600D01*
X031814Y001553D01*
X031791Y001508D01*
X031765Y001465D01*
X031736Y001424D01*
X031703Y001385D01*
X031668Y001349D01*
X031630Y001316D01*
X031590Y001286D01*
X031547Y001259D01*
X031502Y001236D01*
X031456Y001216D01*
X031408Y001199D01*
X031360Y001187D01*
X031310Y001178D01*
X031260Y001173D01*
X031209Y001172D01*
X031159Y001175D01*
X031109Y001182D01*
X031060Y001193D01*
X031012Y001207D01*
X030965Y001225D01*
X030919Y001247D01*
X030875Y001272D01*
X030834Y001301D01*
X030795Y001332D01*
X030758Y001367D01*
X030724Y001404D01*
X030693Y001444D01*
X030665Y001486D01*
X030641Y001530D01*
X030620Y001576D01*
X030603Y001624D01*
X030590Y001672D01*
X030580Y001722D01*
X030574Y001772D01*
X030572Y001822D01*
D11*
X033473Y001620D02*
X033560Y001707D01*
X033733Y001707D01*
X033820Y001620D01*
X033820Y001274D01*
X033733Y001187D01*
X033560Y001187D01*
X033473Y001274D01*
X033989Y001274D02*
X033989Y001620D01*
X034076Y001707D01*
X034336Y001707D01*
X034336Y001187D01*
X034076Y001187D01*
X033989Y001274D01*
X035020Y001360D02*
X035194Y001187D01*
X035367Y001360D01*
X035367Y001707D01*
X035536Y001620D02*
X035622Y001707D01*
X035796Y001707D01*
X035883Y001620D01*
X035536Y001620D02*
X035536Y001534D01*
X035883Y001187D01*
X035536Y001187D01*
X035020Y001360D02*
X035020Y001707D01*
X036051Y001187D02*
X036398Y001187D01*
X036225Y001187D02*
X036225Y001707D01*
X036398Y001534D01*
X036567Y001447D02*
X036914Y001447D01*
X036740Y001620D02*
X036740Y001274D01*
X007445Y004641D02*
X007445Y004761D01*
X007445Y004701D02*
X007145Y004701D01*
X007085Y004641D01*
X007085Y004581D01*
X007145Y004521D01*
X007085Y004889D02*
X007085Y005130D01*
X007085Y005010D02*
X007445Y005010D01*
X007325Y004889D01*
X007133Y002842D02*
X006786Y002842D01*
X006617Y002842D02*
X006617Y002321D01*
X006270Y002321D01*
X006101Y002408D02*
X006015Y002321D01*
X005841Y002321D01*
X005755Y002408D01*
X005755Y002755D01*
X005841Y002842D01*
X006015Y002842D01*
X006101Y002755D01*
X006101Y002408D01*
X005586Y002321D02*
X005586Y002668D01*
X005412Y002842D01*
X005239Y002668D01*
X005239Y002321D01*
X005239Y002581D02*
X005586Y002581D01*
X005070Y002842D02*
X004723Y002842D01*
X004897Y002842D02*
X004897Y002321D01*
X004039Y002408D02*
X003952Y002321D01*
X003779Y002321D01*
X003692Y002408D01*
X003692Y002495D01*
X003779Y002581D01*
X003952Y002581D01*
X004039Y002668D01*
X004039Y002755D01*
X003952Y002842D01*
X003779Y002842D01*
X003692Y002755D01*
X003523Y002842D02*
X003523Y002321D01*
X003350Y002495D01*
X003176Y002321D01*
X003176Y002842D01*
X006959Y002581D02*
X007133Y002581D01*
X007133Y002321D02*
X007133Y002842D01*
X007053Y008239D02*
X006993Y008299D01*
X006993Y008359D01*
X007053Y008419D01*
X007353Y008419D01*
X007353Y008359D02*
X007353Y008479D01*
X007293Y008607D02*
X007353Y008667D01*
X007353Y008788D01*
X007293Y008848D01*
X007233Y008848D01*
X006993Y008607D01*
X006993Y008848D01*
X006836Y010634D02*
X006836Y011154D01*
X006575Y011154D01*
X006489Y011067D01*
X006489Y010894D01*
X006575Y010807D01*
X006836Y010807D01*
X006662Y010807D02*
X006489Y010634D01*
X006320Y010634D02*
X006320Y011154D01*
X005973Y011154D01*
X005804Y011154D02*
X005804Y010634D01*
X005457Y010634D01*
X005289Y010634D02*
X005289Y010981D01*
X005115Y011154D01*
X004942Y010981D01*
X004942Y010634D01*
X004942Y010894D02*
X005289Y010894D01*
X005973Y010634D02*
X006320Y010634D01*
X006320Y010894D02*
X006146Y010894D01*
X004773Y011067D02*
X004600Y010894D01*
X004600Y010634D01*
X004600Y010894D02*
X004426Y011067D01*
X004426Y011154D01*
X004257Y011067D02*
X004257Y010981D01*
X004171Y010894D01*
X003997Y010894D01*
X003911Y010807D01*
X003911Y010720D01*
X003997Y010634D01*
X004171Y010634D01*
X004257Y010720D01*
X004257Y011067D02*
X004171Y011154D01*
X003997Y011154D01*
X003911Y011067D01*
X004773Y011067D02*
X004773Y011154D01*
D12*
X004454Y009996D02*
X004454Y009566D01*
X004597Y009566D02*
X004310Y009566D01*
X004597Y009853D02*
X004454Y009996D01*
X004432Y008016D02*
X004360Y007945D01*
X004360Y007873D01*
X004432Y007801D01*
X004360Y007730D01*
X004360Y007658D01*
X004432Y007586D01*
X004576Y007586D01*
X004647Y007658D01*
X004504Y007801D02*
X004432Y007801D01*
X004432Y008016D02*
X004576Y008016D01*
X004647Y007945D01*
X004454Y006246D02*
X004454Y005816D01*
X004597Y005816D02*
X004310Y005816D01*
X004597Y006103D02*
X004454Y006246D01*
X004432Y004266D02*
X004360Y004195D01*
X004360Y004123D01*
X004432Y004051D01*
X004360Y003980D01*
X004360Y003908D01*
X004432Y003836D01*
X004576Y003836D01*
X004647Y003908D01*
X004504Y004051D02*
X004432Y004051D01*
X004432Y004266D02*
X004576Y004266D01*
X004647Y004195D01*
X002180Y018952D02*
X001390Y018952D01*
X001785Y018952D02*
X001785Y019479D01*
X002048Y019744D02*
X001785Y020008D01*
X001390Y020008D01*
X001785Y020008D02*
X002048Y020271D01*
X002180Y020271D01*
X002180Y020536D02*
X002180Y020931D01*
X002048Y021063D01*
X001521Y021063D01*
X001390Y020931D01*
X001390Y020536D01*
X002180Y020536D01*
X002180Y021328D02*
X001390Y021328D01*
X001653Y021328D02*
X001653Y021723D01*
X001785Y021855D01*
X002048Y021855D01*
X002180Y021723D01*
X002180Y021328D01*
X001653Y021591D02*
X001390Y021855D01*
X001521Y022120D02*
X001390Y022251D01*
X001390Y022515D01*
X001521Y022647D01*
X002048Y022647D01*
X002180Y022515D01*
X002180Y022251D01*
X002048Y022120D01*
X001521Y022120D01*
X001785Y022911D02*
X001785Y023438D01*
X002048Y023175D02*
X001521Y023175D01*
X002048Y019744D02*
X002180Y019744D01*
X002180Y019479D02*
X001390Y019479D01*
D13*
X000874Y017864D02*
X000874Y024364D01*
X002874Y024364D01*
X002874Y017864D01*
X000874Y017864D01*
D14*
X038918Y011012D02*
X038918Y010765D01*
X039288Y010765D01*
X039288Y011012D01*
X039103Y010889D02*
X039103Y010765D01*
X039041Y010644D02*
X038980Y010644D01*
X038918Y010582D01*
X038918Y010459D01*
X038980Y010397D01*
X038918Y010276D02*
X038918Y010029D01*
X039288Y010029D01*
X039288Y009907D02*
X038980Y009907D01*
X038918Y009846D01*
X038918Y009722D01*
X038980Y009661D01*
X039288Y009661D01*
X039227Y009539D02*
X039103Y009539D01*
X039041Y009477D01*
X039041Y009292D01*
X038918Y009292D02*
X039288Y009292D01*
X039288Y009477D01*
X039227Y009539D01*
X039227Y010397D02*
X039165Y010397D01*
X039103Y010459D01*
X039103Y010582D01*
X039041Y010644D01*
X039227Y010644D02*
X039288Y010582D01*
X039288Y010459D01*
X039227Y010397D01*
X039288Y008262D02*
X038918Y008262D01*
X039288Y008015D01*
X038918Y008015D01*
X038980Y007894D02*
X039227Y007894D01*
X039288Y007832D01*
X039288Y007709D01*
X039227Y007647D01*
X038980Y007647D01*
X038918Y007709D01*
X038918Y007832D01*
X038980Y007894D01*
D15*
X037972Y008572D02*
X037927Y008570D01*
X037881Y008565D01*
X037837Y008557D01*
X037793Y008545D01*
X037750Y008529D01*
X037708Y008511D01*
X037668Y008489D01*
X037630Y008465D01*
X037594Y008438D01*
X037559Y008408D01*
X037528Y008375D01*
X037498Y008340D01*
X037972Y008572D02*
X038017Y008570D01*
X038063Y008565D01*
X038107Y008557D01*
X038151Y008545D01*
X038194Y008529D01*
X038236Y008511D01*
X038276Y008489D01*
X038314Y008465D01*
X038350Y008438D01*
X038385Y008408D01*
X038416Y008375D01*
X038446Y008340D01*
X037972Y007372D02*
X037926Y007374D01*
X037880Y007379D01*
X037834Y007388D01*
X037789Y007400D01*
X037746Y007416D01*
X037704Y007435D01*
X037663Y007458D01*
X037624Y007483D01*
X037588Y007511D01*
X037553Y007542D01*
X037521Y007576D01*
X037492Y007612D01*
X037972Y007372D02*
X038019Y007374D01*
X038067Y007380D01*
X038113Y007389D01*
X038159Y007402D01*
X038203Y007418D01*
X038247Y007438D01*
X038288Y007462D01*
X038327Y007488D01*
X038364Y007518D01*
X038399Y007551D01*
X038431Y007586D01*
X038460Y007623D01*
X037498Y010090D02*
X037528Y010125D01*
X037559Y010158D01*
X037594Y010188D01*
X037630Y010215D01*
X037668Y010239D01*
X037708Y010261D01*
X037750Y010279D01*
X037793Y010295D01*
X037837Y010307D01*
X037881Y010315D01*
X037927Y010320D01*
X037972Y010322D01*
X038017Y010320D01*
X038063Y010315D01*
X038107Y010307D01*
X038151Y010295D01*
X038194Y010279D01*
X038236Y010261D01*
X038276Y010239D01*
X038314Y010215D01*
X038350Y010188D01*
X038385Y010158D01*
X038416Y010125D01*
X038446Y010090D01*
X037972Y009122D02*
X037926Y009124D01*
X037880Y009129D01*
X037834Y009138D01*
X037789Y009150D01*
X037746Y009166D01*
X037704Y009185D01*
X037663Y009208D01*
X037624Y009233D01*
X037588Y009261D01*
X037553Y009292D01*
X037521Y009326D01*
X037492Y009362D01*
X037972Y009122D02*
X038019Y009124D01*
X038067Y009130D01*
X038113Y009139D01*
X038159Y009152D01*
X038203Y009168D01*
X038247Y009188D01*
X038288Y009212D01*
X038327Y009238D01*
X038364Y009268D01*
X038399Y009301D01*
X038431Y009336D01*
X038460Y009373D01*
X028422Y004272D02*
X028422Y003372D01*
X027722Y003722D02*
X025722Y003722D01*
X025722Y004172D01*
X027722Y004172D01*
X027722Y003722D01*
X028422Y004272D02*
X018522Y004272D01*
X018522Y003372D01*
X018972Y003522D02*
X018972Y004172D01*
X019222Y004172D01*
X021222Y004172D01*
X021222Y003722D01*
X019222Y003722D01*
X019222Y003972D01*
X019072Y003972D01*
X019072Y003522D01*
X019222Y003972D02*
X019222Y004172D01*
X018522Y002072D02*
X018522Y001172D01*
X028422Y001172D01*
X028422Y002072D01*
X027972Y001922D02*
X027972Y001272D01*
X027722Y001272D01*
X025722Y001272D01*
X025722Y001722D01*
X027722Y001722D01*
X027722Y001472D01*
X027872Y001472D01*
X027872Y001922D01*
X027722Y001472D02*
X027722Y001272D01*
X021222Y001272D02*
X021222Y001722D01*
X019222Y001722D01*
X019222Y001272D01*
X021222Y001272D01*
D16*
X021472Y001572D02*
X025472Y001572D01*
X025522Y002722D02*
X021422Y002722D01*
X021472Y003872D02*
X025472Y003872D01*
D17*
X025597Y003747D03*
X025597Y001697D03*
X021347Y001697D03*
X021347Y003747D03*
D18*
X021347Y002722D03*
X025597Y002722D03*
D19*
X023472Y003672D03*
X023472Y001772D03*
D20*
X020447Y001947D03*
X020447Y003497D03*
X026497Y003497D03*
X026497Y001947D03*
D21*
X026672Y001822D03*
X026672Y003622D03*
X020272Y003622D03*
X020272Y001822D03*
D22*
X005222Y003472D02*
X003972Y003472D01*
X003972Y003822D01*
X001522Y003822D01*
X001382Y003952D01*
X000822Y003972D02*
X000622Y004072D01*
X000622Y004492D01*
X000622Y004452D02*
X000622Y005872D01*
X000822Y005972D01*
X003972Y005972D01*
X003972Y006472D01*
X005222Y006472D01*
X005222Y006222D01*
X004972Y006222D01*
X004972Y005722D01*
X005222Y005722D01*
X005222Y005222D01*
X004972Y005222D01*
X004972Y004722D01*
X005222Y004722D01*
X005222Y004222D01*
X004972Y004222D01*
X004972Y003722D01*
X005222Y003722D01*
X005222Y003472D01*
X003972Y003972D02*
X000822Y003972D01*
X001382Y005992D02*
X001522Y006122D01*
X003972Y006122D01*
X003972Y007222D02*
X003972Y007572D01*
X001522Y007572D01*
X001382Y007702D01*
X000822Y007722D02*
X000622Y007822D01*
X000622Y008242D01*
X000622Y008202D02*
X000622Y009622D01*
X000822Y009722D01*
X003972Y009722D01*
X003972Y010222D01*
X005222Y010222D01*
X005222Y009972D01*
X004972Y009972D01*
X004972Y009472D01*
X005222Y009472D01*
X005222Y008972D01*
X004972Y008972D01*
X004972Y008472D01*
X005222Y008472D01*
X005222Y007972D01*
X004972Y007972D01*
X004972Y007472D01*
X005222Y007472D01*
X005222Y007222D01*
X003972Y007222D01*
X003972Y007722D02*
X000822Y007722D01*
X001382Y009742D02*
X001522Y009872D01*
X003972Y009872D01*
X037277Y010119D02*
X037307Y010167D01*
X037340Y010212D01*
X037376Y010255D01*
X037414Y010296D01*
X037456Y010333D01*
X037500Y010368D01*
X037546Y010399D01*
X037595Y010428D01*
X037645Y010452D01*
X037697Y010473D01*
X037751Y010491D01*
X037805Y010504D01*
X037860Y010514D01*
X037916Y010520D01*
X037972Y010522D01*
X038025Y010520D01*
X038079Y010515D01*
X038131Y010506D01*
X038183Y010494D01*
X038234Y010478D01*
X038284Y010459D01*
X038333Y010436D01*
X038380Y010410D01*
X038425Y010382D01*
X038468Y010350D01*
X038508Y010316D01*
X038547Y010278D01*
X038583Y010239D01*
X037972Y008922D02*
X037918Y008924D01*
X037864Y008929D01*
X037811Y008938D01*
X037758Y008951D01*
X037707Y008967D01*
X037657Y008987D01*
X037608Y009010D01*
X037560Y009036D01*
X037515Y009065D01*
X037472Y009098D01*
X037431Y009133D01*
X037392Y009171D01*
X037356Y009211D01*
X037323Y009254D01*
X037293Y009299D01*
X037266Y009346D01*
X037972Y008922D02*
X038026Y008924D01*
X038079Y008929D01*
X038133Y008938D01*
X038185Y008951D01*
X038236Y008967D01*
X038287Y008987D01*
X038336Y009009D01*
X038383Y009035D01*
X038428Y009065D01*
X038471Y009097D01*
X038512Y009132D01*
X038551Y009170D01*
X038587Y009210D01*
X038583Y008489D02*
X038547Y008528D01*
X038508Y008566D01*
X038468Y008600D01*
X038425Y008632D01*
X038380Y008660D01*
X038333Y008686D01*
X038284Y008709D01*
X038234Y008728D01*
X038183Y008744D01*
X038131Y008756D01*
X038079Y008765D01*
X038025Y008770D01*
X037972Y008772D01*
X037916Y008770D01*
X037860Y008764D01*
X037805Y008754D01*
X037751Y008741D01*
X037697Y008723D01*
X037645Y008702D01*
X037595Y008678D01*
X037546Y008649D01*
X037500Y008618D01*
X037456Y008583D01*
X037414Y008546D01*
X037376Y008505D01*
X037340Y008462D01*
X037307Y008417D01*
X037277Y008369D01*
X037972Y007172D02*
X038026Y007174D01*
X038079Y007179D01*
X038133Y007188D01*
X038185Y007201D01*
X038236Y007217D01*
X038287Y007237D01*
X038336Y007259D01*
X038383Y007285D01*
X038428Y007315D01*
X038471Y007347D01*
X038512Y007382D01*
X038551Y007420D01*
X038587Y007460D01*
X037972Y007172D02*
X037918Y007174D01*
X037864Y007179D01*
X037811Y007188D01*
X037758Y007201D01*
X037707Y007217D01*
X037657Y007237D01*
X037608Y007260D01*
X037560Y007286D01*
X037515Y007315D01*
X037472Y007348D01*
X037431Y007383D01*
X037392Y007421D01*
X037356Y007461D01*
X037323Y007504D01*
X037293Y007549D01*
X037266Y007596D01*
D23*
X003972Y007572D02*
X003972Y009722D01*
X003972Y005972D02*
X003972Y003822D01*
D24*
X034372Y003507D02*
X034372Y004157D01*
X034569Y004157D02*
X034569Y003507D01*
X034372Y003507D01*
X035160Y004007D02*
X035160Y006657D01*
X034569Y006657D01*
X034569Y006007D01*
X034372Y006007D02*
X034372Y006657D01*
X034569Y006657D01*
X035160Y006657D02*
X035160Y006853D01*
X039884Y006853D01*
X039884Y006342D01*
X039490Y006342D01*
X039097Y006342D02*
X038703Y006342D01*
X038506Y006657D02*
X035160Y006657D01*
X036341Y006342D02*
X036341Y006105D01*
X036341Y006342D02*
X036734Y006342D01*
X037128Y006342D02*
X037522Y006342D01*
X037916Y006342D02*
X038309Y006342D01*
X038506Y006657D02*
X038506Y006853D01*
X038506Y006657D02*
X038506Y003310D01*
X038309Y003822D02*
X037916Y003822D01*
X037522Y003822D02*
X037128Y003822D01*
X036734Y003822D02*
X036341Y003822D01*
X036341Y004058D01*
X036341Y004452D02*
X036341Y004688D01*
X036341Y005475D01*
X036341Y005712D01*
X038703Y003822D02*
X039097Y003822D01*
X039490Y003822D02*
X039884Y003822D01*
X039884Y006342D01*
X039097Y005476D02*
X039136Y005474D01*
X039174Y005468D01*
X039211Y005459D01*
X039248Y005446D01*
X039283Y005429D01*
X039316Y005410D01*
X039347Y005387D01*
X039376Y005361D01*
X039402Y005332D01*
X039425Y005301D01*
X039444Y005268D01*
X039461Y005233D01*
X039474Y005196D01*
X039483Y005159D01*
X039489Y005121D01*
X039491Y005082D01*
X039489Y005043D01*
X039483Y005005D01*
X039474Y004968D01*
X039461Y004931D01*
X039444Y004896D01*
X039425Y004863D01*
X039402Y004832D01*
X039376Y004803D01*
X039347Y004777D01*
X039316Y004754D01*
X039283Y004735D01*
X039248Y004718D01*
X039211Y004705D01*
X039174Y004696D01*
X039136Y004690D01*
X039097Y004688D01*
X039884Y003822D02*
X039884Y003310D01*
X036660Y003310D01*
M02*
